<?xml version="1.0" encoding="UTF-8"?>
<!DOCTYPE svg PUBLIC "-//W3C//DTD SVG 1.1//EN" "http://www.w3.org/Graphics/SVG/1.1/DTD/svg11.dtd">
<!-- Creator: CorelDRAW -->
<svg xmlns="http://www.w3.org/2000/svg" xml:space="preserve" width="2980.2mm" height="360.2mm" style="shape-rendering:geometricPrecision; text-rendering:geometricPrecision; image-rendering:optimizeQuality; fill-rule:evenodd; clip-rule:evenodd"
viewBox="0 0 2980.2 360.2"
 xmlns:xlink="http://www.w3.org/1999/xlink">
 <defs>
  <style type="text/css">
   <![CDATA[
    .str0 {stroke:#2B2A29;stroke-width:0.2}
    .str1 {stroke:#2B2A29;stroke-width:1}
    .fil0 {fill:none}
    .fil1 {fill:none;fill-rule:nonzero}
   ]]>
  </style>
 </defs>
 <g id="Layer_x0020_1">
  <metadata id="CorelCorpID_0Corel-Layer"/>
  <rect class="fil0 str0" x="0.100022" y="0.0999984" width="2980" height="360"/>
  <g id="_202311856">
   <path id="_202308256" class="fil1 str1" d="M1426.04 243.965l82.3209 0 0 -27.5512 -49.407 0 0 -22.2381 40.5973 0 0 -27.5511 -40.5973 0 0 -19.5579 47.4913 0 0 -27.5511 -80.4052 0 0 124.449zm110.743 0l80.0229 0 0 -27.5512 -47.109 0 0 -96.8982 -32.9139 0 0 124.449zm102.725 0l82.3209 0 0 -27.5512 -49.407 0 0 -22.2381 40.5972 0 0 -27.5511 -40.5972 0 0 -19.5579 47.4912 0 0 -27.5511 -80.4051 0 0 124.449zm110.743 0l32.9139 0 0 -31.014 11.8723 -16.8528 27.576 47.8668 36.0013 0 -44.4266 -73.9025 37.1503 -50.5469 -36.0013 0 -31.4075 46.3332 -0.7645 0 0 -46.3332 -32.9139 0 0 124.449zm151.109 0l32.9139 0 0 -96.8983 32.9365 0 0 -27.5511 -98.7891 0 0 27.5511 32.9387 0 0 96.8983zm119.951 -98.4296l11.8813 0c13.0281,0 19.9311,3.4471 19.9311,14.1793 0,10.7301 -6.903,16.4841 -19.9311,16.4841l-11.8813 0 0 -30.6634zm70.8535 98.4296l-26.9856 -48.249c12.0577,-6.5118 20.0916,-18.1759 20.0916,-36.0013 0,-31.0162 -22.9641,-40.1991 -49.7802,-40.1991l-47.0932 0 0 124.449 32.9139 0 0 -41.7463 12.6458 0 21.4646 41.7463 36.7431 0zm71.8216 2.298c34.4768,0 57.8255,-24.1132 57.8255,-65.1018 0,-40.7895 -23.3487,-63.9436 -57.8255,-63.9436 -34.47,0 -57.8164,22.9641 -57.8164,63.9436 0,40.9886 23.3464,65.1018 57.8164,65.1018zm0 -28.3179c-14.946,0 -24.138,-14.1793 -24.138,-36.7839 0,-22.6045 9.192,-35.6258 24.138,-35.6258 14.9438,0 24.1449,13.0213 24.1449,35.6258 0,22.6046 -9.2011,36.7839 -24.1449,36.7839zm83.8838 26.0199l31.3827 0 0 -35.9922c0,-15.3216 -2.6735,-33.3143 -4.2047,-47.4845l0.7667 0 11.8723 27.7592 27.5918 55.7175 33.6807 0 0 -124.449 -31.3827 0 0 35.9922c0,15.3215 2.6803,34.081 4.2138,47.4844l-0.7668 0 -11.8722 -27.9514 -27.5919 -55.5252 -33.6897 0 0 124.449zm132.965 0l32.9139 0 0 -124.449 -32.9139 0 0 124.449zm64.4729 0l32.9139 0 0 -31.014 11.8723 -16.8528 27.576 47.8668 36.0035 0 -44.4287 -73.9025 37.1502 -50.5469 -36.0012 0 -31.4053 46.3332 -0.7668 0 0 -46.3332 -32.9139 0 0 124.449zm164.45 -51.8724l2.108 -8.6243c3.0625,-11.8745 6.1273,-26.8183 8.8075,-39.4664l0.7668 0c3.0647,12.4558 6.1272,27.5919 9.1829,39.4664l2.108 8.6243 -22.9732 0zm35.0377 51.8724l34.8455 0 -37.9102 -124.449 -39.8237 0 -37.9103 124.449 33.6965 0 6.1295 -26.427 34.8432 0 6.1295 26.427z"/>
   <path id="_202308184" class="fil1 str1" d="M642.077 243.967l32.9139 0 0 -49.4071 37.1751 0 0 49.4071 32.9139 0 0 -124.452 -32.9139 0 0 46.3445 -37.1751 0 0 -46.3445 -32.9139 0 0 124.452zm187.24 2.298c34.47,0 57.8164,-24.1132 57.8164,-65.1018 0,-40.7985 -23.3464,-63.9459 -57.8164,-63.9459 -34.4791,0 -57.8255,22.9642 -57.8255,63.9459 0,40.9886 23.3464,65.1018 57.8255,65.1018zm0 -28.3179c-14.9461,0 -24.1448,-14.1793 -24.1448,-36.7839 0,-22.6045 9.1987,-35.628 24.1448,-35.628 14.937,0 24.1358,13.0235 24.1358,35.628 0,22.6046 -9.1988,36.7839 -24.1358,36.7839zm116.798 -72.4119l11.8813 0c13.0303,0 19.9334,3.447 19.9334,14.1793 0,10.7323 -6.9031,16.4863 -19.9334,16.4863l-11.8813 0 0 -30.6656zm70.8558 98.4318l-26.9857 -48.249c12.0487,-6.5118 20.0917,-18.1782 20.0917,-36.0035 0,-31.014 -22.9642,-40.1992 -49.7825,-40.1992l-47.0932 0 0 124.452 32.9139 0 0 -41.7463 12.6481 0 21.4555 41.7463 36.7522 0zm41.7553 0l39.8237 0 36.759 -124.452 -33.6942 0 -12.6322 54.3785c-3.2548,13.2225 -5.745,26.0515 -9.192,39.4573l-0.7645 0c-3.447,-13.4058 -5.745,-26.2348 -9.192,-39.4483l-13.0235 -54.3875 -34.8455 0 36.7612 124.452zm120.055 -51.8724l2.1058 -8.6266c3.0557,-11.8722 6.1204,-26.816 8.8007,-39.4641l0.7667 0c3.0648,12.4558 6.1273,27.5919 9.1921,39.4641l2.1057 8.6266 -22.971 0zm35.0355 51.8724l34.8455 0 -37.908 -124.452 -39.826 0 -37.9079 124.452 33.6964 0 6.1273 -26.427 34.8455 0 6.1272 26.427zm66.8094 0l32.9139 0 0 -96.8983 32.9388 0 0 -27.5534 -98.7892 0 0 27.5534 32.9365 0 0 96.8983z"/>
   <g>
    <path id="_202308112" class="fil1 str1" d="M520.692 135.374l-135.726 0c-3.9562,0 -7.1605,-3.2043 -7.1605,-7.1605 0,-3.9553 3.2043,-7.1597 7.1605,-7.1597l135.726 0c3.9528,0 7.1605,3.2044 7.1605,7.1597 0,3.9562 -3.2077,7.1605 -7.1605,7.1605z"/>
    <path id="_202308016" class="fil1 str1" d="M520.062 246.112l-134.47 0c-2.7688,0 -5.2865,-1.5933 -6.4713,-4.0966 -1.184,-2.5032 -0.8203,-5.4657 0.9336,-7.6045l67.2382 -81.9254c2.7147,-3.3143 8.3538,-3.3143 11.0685,0l67.2348 81.9254c1.7574,2.1388 2.121,5.1013 0.9396,7.6045 -1.184,2.5033 -3.705,4.0966 -6.4738,4.0966z"/>
    <path id="_202307992" class="fil1 str1" d="M450.637 330.1c-82.7551,0 -150.079,-67.3278 -150.079,-150.085 0,-76.277 57.0585,-140.368 132.725,-149.085 6.2675,-0.7222 13.4576,-0.8296 17.1812,-0.8296 3.9503,0 7.1513,3.195 7.1606,7.1428l0.17 63.8359c0.0084,3.9562 -3.1892,7.1698 -7.1428,7.1783l-0.0178 0c-3.9502,0 -7.1512,-3.1917 -7.1597,-7.1419l-0.1522 -56.557c-2.7155,0.104 -5.678,0.2858 -8.3986,0.5996 -68.4374,7.8819 -120.044,65.8563 -120.044,134.857 0,74.8604 60.9005,135.764 135.758,135.764 3.9528,0 7.1597,3.2078 7.1597,7.1606 0,3.9528 -3.2069,7.1605 -7.1597,7.1605z"/>
   </g>
  </g>
 </g>
</svg>
