  0
SECTION
  2
HEADER
  9
$ACADVER
  1
AC1021
  9
$ACADMAINTVER
 70
    25
  9
$DWGCODEPAGE
  3
ANSI_1250
  9
$INSBASE
 10
0.0
 20
0.0
 30
0.0
  9
$EXTMIN
 10
-149.01
 20
-18.01
 30
0.0
  9
$EXTMAX
 10
149.01
 20
18.01
 30
0.0
  9
$LIMMIN
 10
0.0
 20
0.0
  9
$LIMMAX
 10
12.0
 20
9.0
  9
$ORTHOMODE
 70
     0
  9
$REGENMODE
 70
     1
  9
$FILLMODE
 70
     1
  9
$QTEXTMODE
 70
     0
  9
$MIRRTEXT
 70
     1
  9
$LTSCALE
 40
1.0
  9
$ATTMODE
 70
     1
  9
$TEXTSIZE
 40
0.2
  9
$TRACEWID
 40
0.05
  9
$TEXTSTYLE
  7
Standard
  9
$CLAYER
  8
0
  9
$CELTYPE
  6
ByLayer
  9
$CECOLOR
 62
   256
  9
$CELTSCALE
 40
1.0
  9
$DISPSILH
 70
     0
  9
$DIMSCALE
 40
1.0
  9
$DIMASZ
 40
0.18
  9
$DIMEXO
 40
0.0625
  9
$DIMDLI
 40
0.38
  9
$DIMRND
 40
0.0
  9
$DIMDLE
 40
0.0
  9
$DIMEXE
 40
0.18
  9
$DIMTP
 40
0.0
  9
$DIMTM
 40
0.0
  9
$DIMTXT
 40
0.18
  9
$DIMCEN
 40
0.09
  9
$DIMTSZ
 40
0.0
  9
$DIMTOL
 70
     0
  9
$DIMLIM
 70
     0
  9
$DIMTIH
 70
     1
  9
$DIMTOH
 70
     1
  9
$DIMSE1
 70
     0
  9
$DIMSE2
 70
     0
  9
$DIMTAD
 70
     0
  9
$DIMZIN
 70
     0
  9
$DIMBLK
  1

  9
$DIMASO
 70
     1
  9
$DIMSHO
 70
     1
  9
$DIMPOST
  1

  9
$DIMAPOST
  1

  9
$DIMALT
 70
     0
  9
$DIMALTD
 70
     2
  9
$DIMALTF
 40
25.4
  9
$DIMLFAC
 40
1.0
  9
$DIMTOFL
 70
     0
  9
$DIMTVP
 40
0.0
  9
$DIMTIX
 70
     0
  9
$DIMSOXD
 70
     0
  9
$DIMSAH
 70
     0
  9
$DIMBLK1
  1

  9
$DIMBLK2
  1

  9
$DIMSTYLE
  2
Standard
  9
$DIMCLRD
 70
     0
  9
$DIMCLRE
 70
     0
  9
$DIMCLRT
 70
     0
  9
$DIMTFAC
 40
1.0
  9
$DIMGAP
 40
0.09
  9
$DIMJUST
 70
     0
  9
$DIMSD1
 70
     0
  9
$DIMSD2
 70
     0
  9
$DIMTOLJ
 70
     1
  9
$DIMTZIN
 70
     0
  9
$DIMALTZ
 70
     0
  9
$DIMALTTZ
 70
     0
  9
$DIMUPT
 70
     0
  9
$DIMDEC
 70
     4
  9
$DIMTDEC
 70
     4
  9
$DIMALTU
 70
     2
  9
$DIMALTTD
 70
     2
  9
$DIMTXSTY
  7
Standard
  9
$DIMAUNIT
 70
     0
  9
$DIMADEC
 70
     0
  9
$DIMALTRND
 40
0.0
  9
$DIMAZIN
 70
     0
  9
$DIMDSEP
 70
    46
  9
$DIMATFIT
 70
     3
  9
$DIMFRAC
 70
     0
  9
$DIMLDRBLK
  1

  9
$DIMLUNIT
 70
     2
  9
$DIMLWD
 70
    -2
  9
$DIMLWE
 70
    -2
  9
$DIMTMOVE
 70
     0
  9
$DIMFXL
 40
1.0
  9
$DIMFXLON
 70
     0
  9
$DIMJOGANG
 40
0.7853981633974483
  9
$DIMTFILL
 70
     0
  9
$DIMTFILLCLR
 70
     0
  9
$DIMARCSYM
 70
     0
  9
$DIMLTYPE
  6

  9
$DIMLTEX1
  6

  9
$DIMLTEX2
  6

  9
$LUNITS
 70
     2
  9
$LUPREC
 70
     4
  9
$SKETCHINC
 40
0.1
  9
$FILLETRAD
 40
0.5
  9
$AUNITS
 70
     0
  9
$AUPREC
 70
     0
  9
$MENU
  1
.
  9
$ELEVATION
 40
0.0
  9
$PELEVATION
 40
0.0
  9
$THICKNESS
 40
0.0
  9
$LIMCHECK
 70
     0
  9
$CHAMFERA
 40
0.5
  9
$CHAMFERB
 40
0.5
  9
$CHAMFERC
 40
1.0
  9
$CHAMFERD
 40
0.0
  9
$SKPOLY
 70
     0
  9
$TDCREATE
 40
2456806.561735729
  9
$TDUCREATE
 40
2456806.478402396
  9
$TDUPDATE
 40
2456806.561735741
  9
$TDUUPDATE
 40
2456806.478402407
  9
$TDINDWG
 40
0.0000000116
  9
$TDUSRTIMER
 40
0.0000000116
  9
$USRTIMER
 70
     1
  9
$ANGBASE
 50
0.0
  9
$ANGDIR
 70
     0
  9
$PDMODE
 70
     0
  9
$PDSIZE
 40
0.0
  9
$PLINEWID
 40
0.0
  9
$SPLFRAME
 70
     0
  9
$SPLINETYPE
 70
     6
  9
$SPLINESEGS
 70
     8
  9
$HANDSEED
  5
7E
  9
$SURFTAB1
 70
     6
  9
$SURFTAB2
 70
     6
  9
$SURFTYPE
 70
     6
  9
$SURFU
 70
     6
  9
$SURFV
 70
     6
  9
$UCSBASE
  2

  9
$UCSNAME
  2

  9
$UCSORG
 10
0.0
 20
0.0
 30
0.0
  9
$UCSXDIR
 10
1.0
 20
0.0
 30
0.0
  9
$UCSYDIR
 10
0.0
 20
1.0
 30
0.0
  9
$UCSORTHOREF
  2

  9
$UCSORTHOVIEW
 70
     0
  9
$UCSORGTOP
 10
0.0
 20
0.0
 30
0.0
  9
$UCSORGBOTTOM
 10
0.0
 20
0.0
 30
0.0
  9
$UCSORGLEFT
 10
0.0
 20
0.0
 30
0.0
  9
$UCSORGRIGHT
 10
0.0
 20
0.0
 30
0.0
  9
$UCSORGFRONT
 10
0.0
 20
0.0
 30
0.0
  9
$UCSORGBACK
 10
0.0
 20
0.0
 30
0.0
  9
$PUCSBASE
  2

  9
$PUCSNAME
  2

  9
$PUCSORG
 10
0.0
 20
0.0
 30
0.0
  9
$PUCSXDIR
 10
1.0
 20
0.0
 30
0.0
  9
$PUCSYDIR
 10
0.0
 20
1.0
 30
0.0
  9
$PUCSORTHOREF
  2

  9
$PUCSORTHOVIEW
 70
     0
  9
$PUCSORGTOP
 10
0.0
 20
0.0
 30
0.0
  9
$PUCSORGBOTTOM
 10
0.0
 20
0.0
 30
0.0
  9
$PUCSORGLEFT
 10
0.0
 20
0.0
 30
0.0
  9
$PUCSORGRIGHT
 10
0.0
 20
0.0
 30
0.0
  9
$PUCSORGFRONT
 10
0.0
 20
0.0
 30
0.0
  9
$PUCSORGBACK
 10
0.0
 20
0.0
 30
0.0
  9
$USERI1
 70
     0
  9
$USERI2
 70
     0
  9
$USERI3
 70
     0
  9
$USERI4
 70
     0
  9
$USERI5
 70
     0
  9
$USERR1
 40
0.0
  9
$USERR2
 40
0.0
  9
$USERR3
 40
0.0
  9
$USERR4
 40
0.0
  9
$USERR5
 40
0.0
  9
$WORLDVIEW
 70
     1
  9
$SHADEDGE
 70
     3
  9
$SHADEDIF
 70
    70
  9
$TILEMODE
 70
     1
  9
$MAXACTVP
 70
    64
  9
$PINSBASE
 10
0.0
 20
0.0
 30
0.0
  9
$PLIMCHECK
 70
     0
  9
$PEXTMIN
 10
1.000000000000000E+20
 20
1.000000000000000E+20
 30
1.000000000000000E+20
  9
$PEXTMAX
 10
-1.000000000000000E+20
 20
-1.000000000000000E+20
 30
-1.000000000000000E+20
  9
$PLIMMIN
 10
0.0
 20
0.0
  9
$PLIMMAX
 10
12.0
 20
9.0
  9
$UNITMODE
 70
     0
  9
$VISRETAIN
 70
     1
  9
$PLINEGEN
 70
     0
  9
$PSLTSCALE
 70
     1
  9
$TREEDEPTH
 70
  3020
  9
$CMLSTYLE
  2
Standard
  9
$CMLJUST
 70
     0
  9
$CMLSCALE
 40
1.0
  9
$PROXYGRAPHICS
 70
     1
  9
$MEASUREMENT
 70
     0
  9
$CELWEIGHT
370
    -1
  9
$ENDCAPS
280
     0
  9
$JOINSTYLE
280
     0
  9
$LWDISPLAY
290
     0
  9
$INSUNITS
 70
     5
  9
$HYPERLINKBASE
  1

  9
$STYLESHEET
  1

  9
$XEDIT
290
     1
  9
$CEPSNTYPE
380
     0
  9
$PSTYLEMODE
290
     1
  9
$FINGERPRINTGUID
  2
{2E0CFBB8-48C1-4633-865D-102BAA6A438B}
  9
$VERSIONGUID
  2
{FAEB1C32-E019-11D5-929B-00C0DF256EC4}
  9
$EXTNAMES
290
     1
  9
$PSVPSCALE
 40
0.0
  9
$OLESTARTUP
290
     0
  9
$SORTENTS
280
   127
  9
$INDEXCTL
280
     0
  9
$HIDETEXT
280
     1
  9
$XCLIPFRAME
290
     0
  9
$HALOGAP
280
     0
  9
$OBSCOLOR
 70
   257
  9
$OBSLTYPE
280
     0
  9
$INTERSECTIONDISPLAY
280
     0
  9
$INTERSECTIONCOLOR
 70
   257
  9
$DIMASSOC
280
     2
  9
$PROJECTNAME
  1

  9
$CAMERADISPLAY
290
     0
  9
$LENSLENGTH
 40
50.0
  9
$CAMERAHEIGHT
 40
0.0
  9
$STEPSPERSEC
 40
2.0
  9
$STEPSIZE
 40
6.0
  9
$3DDWFPREC
 40
2.0
  9
$PSOLWIDTH
 40
0.25
  9
$PSOLHEIGHT
 40
4.0
  9
$LOFTANG1
 40
1.570796326794897
  9
$LOFTANG2
 40
1.570796326794897
  9
$LOFTMAG1
 40
0.0
  9
$LOFTMAG2
 40
0.0
  9
$LOFTPARAM
 70
     7
  9
$LOFTNORMALS
280
     1
  9
$LATITUDE
 40
37.795
  9
$LONGITUDE
 40
-122.394
  9
$NORTHDIRECTION
 40
0.0
  9
$TIMEZONE
 70
 -8000
  9
$LIGHTGLYPHDISPLAY
280
     1
  9
$TILEMODELIGHTSYNCH
280
     1
  9
$SOLIDHIST
280
     1
  9
$SHOWHIST
280
     1
  9
$DWFFRAME
280
     2
  9
$DGNFRAME
280
     2
  9
$REALWORLDSCALE
290
     1
  9
$INTERFERECOLOR
 62
   256
  9
$CSHADOW
280
     0
  9
$SHADOWPLANELOCATION
 40
0.0
  0
ENDSEC
  0
SECTION
  2
CLASSES
  0
CLASS
  1
ACDBDICTIONARYWDFLT
  2
AcDbDictionaryWithDefault
  3
ObjectDBX Classes
 90
        0
 91
        4
280
     0
281
     0
  0
CLASS
  1
VISUALSTYLE
  2
AcDbVisualStyle
  3
ObjectDBX Classes
 90
     4095
 91
        4
280
     0
281
     0
  0
CLASS
  1
MATERIAL
  2
AcDbMaterial
  3
ObjectDBX Classes
 90
     1153
 91
        4
280
     0
281
     0
  0
ENDSEC
  0
SECTION
  2
TABLES
  0
TABLE
  2
VPORT
  5
8
330
0
100
AcDbSymbolTable
 70
     1
  0
VPORT
  5
29
330
8
100
AcDbSymbolTableRecord
100
AcDbViewportTableRecord
  2
*Active
 70
     0
 10
0.0
 20
0.0
 11
1.0
 21
1.0
 12
10.42990654205607
 22
4.5
 13
0.0
 23
0.0
 14
0.5
 24
0.5
 15
0.5
 25
0.5
 16
0.0
 26
0.0
 36
1.0
 17
0.0
 27
0.0
 37
0.0
 40
9.0
 41
1.972972972850329
 42
50.0
 43
0.0
 44
0.0
 50
0.0
 51
0.0
 71
     0
 72
   100
 73
     1
 74
     3
 75
     0
 76
     0
 77
     0
 78
     0
281
     0
 65
     1
110
0.0
120
0.0
130
0.0
111
1.0
121
0.0
131
0.0
112
0.0
122
1.0
132
0.0
 79
     0
146
0.0
 60
     3
 61
     5
292
     1
282
     1
141
0.0
142
0.0
 63
   250
  0
ENDTAB
  0
TABLE
  2
LTYPE
  5
5
330
0
100
AcDbSymbolTable
 70
     1
  0
LTYPE
  5
14
330
5
100
AcDbSymbolTableRecord
100
AcDbLinetypeTableRecord
  2
ByBlock
 70
     0
  3

 72
    65
 73
     0
 40
0.0
  0
LTYPE
  5
15
330
5
100
AcDbSymbolTableRecord
100
AcDbLinetypeTableRecord
  2
ByLayer
 70
     0
  3

 72
    65
 73
     0
 40
0.0
  0
LTYPE
  5
16
330
5
100
AcDbSymbolTableRecord
100
AcDbLinetypeTableRecord
  2
Continuous
 70
     0
  3
Solid line
 72
    65
 73
     0
 40
0.0
  0
ENDTAB
  0
TABLE
  2
LAYER
  5
2
330
0
100
AcDbSymbolTable
 70
     2
  0
LAYER
  5
10
330
2
100
AcDbSymbolTableRecord
100
AcDbLayerTableRecord
  2
0
 70
     0
 62
     7
  6
Continuous
370
    -3
390
F
347
3E
  0
LAYER
  5
40
330
2
100
AcDbSymbolTableRecord
100
AcDbLayerTableRecord
  2
Layer 1
 70
     0
 62
     7
  6
Continuous
370
    -3
390
F
347
3E
  0
ENDTAB
  0
TABLE
  2
STYLE
  5
3
330
0
100
AcDbSymbolTable
 70
     1
  0
STYLE
  5
11
330
3
100
AcDbSymbolTableRecord
100
AcDbTextStyleTableRecord
  2
Standard
 70
     0
 40
0.0
 41
1.0
 50
0.0
 71
     0
 42
0.2
  3
txt
  4

  0
ENDTAB
  0
TABLE
  2
VIEW
  5
6
330
0
100
AcDbSymbolTable
 70
     0
  0
ENDTAB
  0
TABLE
  2
UCS
  5
7
330
0
100
AcDbSymbolTable
 70
     0
  0
ENDTAB
  0
TABLE
  2
APPID
  5
9
330
0
100
AcDbSymbolTable
 70
     2
  0
APPID
  5
12
330
9
100
AcDbSymbolTableRecord
100
AcDbRegAppTableRecord
  2
ACAD
 70
     0
  0
APPID
  5
3F
330
9
100
AcDbSymbolTableRecord
100
AcDbRegAppTableRecord
  2
ODA
 70
     0
  0
ENDTAB
  0
TABLE
  2
DIMSTYLE
  5
A
330
0
100
AcDbSymbolTable
 70
     1
100
AcDbDimStyleTable
  0
DIMSTYLE
105
27
330
A
100
AcDbSymbolTableRecord
100
AcDbDimStyleTableRecord
  2
Standard
 70
     0
340
11
  0
ENDTAB
  0
TABLE
  2
BLOCK_RECORD
  5
1
330
0
100
AcDbSymbolTable
 70
     1
  0
BLOCK_RECORD
  5
1F
330
1
100
AcDbSymbolTableRecord
100
AcDbBlockTableRecord
  2
*Model_Space
340
22
 70
     0
280
     1
281
     0
  0
BLOCK_RECORD
  5
1B
330
1
100
AcDbSymbolTableRecord
100
AcDbBlockTableRecord
  2
*Paper_Space
340
1E
 70
     0
280
     1
281
     0
  0
BLOCK_RECORD
  5
23
330
1
100
AcDbSymbolTableRecord
100
AcDbBlockTableRecord
  2
*Paper_Space0
340
26
 70
     0
280
     1
281
     0
  0
ENDTAB
  0
ENDSEC
  0
SECTION
  2
BLOCKS
  0
BLOCK
  5
20
330
1F
100
AcDbEntity
  8
0
100
AcDbBlockBegin
  2
*Model_Space
 70
     0
 10
0.0
 20
0.0
 30
0.0
  3
*Model_Space
  1

  0
ENDBLK
  5
21
330
1F
100
AcDbEntity
  8
0
100
AcDbBlockEnd
  0
BLOCK
  5
1C
330
1B
100
AcDbEntity
 67
     1
  8
0
100
AcDbBlockBegin
  2
*Paper_Space
 70
     0
 10
0.0
 20
0.0
 30
0.0
  3
*Paper_Space
  1

  0
ENDBLK
  5
1D
330
1B
100
AcDbEntity
 67
     1
  8
0
100
AcDbBlockEnd
  0
BLOCK
  5
24
330
23
100
AcDbEntity
  8
0
100
AcDbBlockBegin
  2
*Paper_Space0
 70
     0
 10
0.0
 20
0.0
 30
0.0
  3
*Paper_Space0
  1

  0
ENDBLK
  5
25
330
23
100
AcDbEntity
  8
0
100
AcDbBlockEnd
  0
ENDSEC
  0
SECTION
  2
ENTITIES
  0
LWPOLYLINE
  5
41
330
1F
100
AcDbEntity
  8
Layer 1
 62
   250
370
    20
100
AcDbPolyline
 90
        5
 70
     1
 43
0.0
 10
-149.0
 20
-18.0
 10
149.0
 20
-18.0
 10
149.0
 20
18.0
 10
-149.0
 20
18.0
 10
-149.0
 20
-18.0
  0
SPLINE
  5
42
330
1F
100
AcDbEntity
  8
Layer 1
 62
   250
370
   100
100
AcDbSpline
210
0.0
220
0.0
230
1.0
 70
    11
 71
     3
 72
    52
 73
    48
 74
     0
 42
0.0000000001
 43
0.0000000001
 40
0.0
 40
0.0
 40
0.0
 40
0.0
 40
0.0769230769230769
 40
0.0769230769230769
 40
0.0769230769230769
 40
0.0769230769230769
 40
0.1538461538461539
 40
0.1538461538461539
 40
0.1538461538461539
 40
0.1538461538461539
 40
0.2307692307692308
 40
0.2307692307692308
 40
0.2307692307692308
 40
0.2307692307692308
 40
0.3076923076923077
 40
0.3076923076923077
 40
0.3076923076923077
 40
0.3076923076923077
 40
0.3846153846153846
 40
0.3846153846153846
 40
0.3846153846153846
 40
0.3846153846153846
 40
0.4615384615384616
 40
0.4615384615384616
 40
0.4615384615384616
 40
0.4615384615384616
 40
0.5384615384615384
 40
0.5384615384615384
 40
0.5384615384615384
 40
0.5384615384615384
 40
0.6153846153846154
 40
0.6153846153846154
 40
0.6153846153846154
 40
0.6153846153846154
 40
0.6923076923076923
 40
0.6923076923076923
 40
0.6923076923076923
 40
0.6923076923076923
 40
0.7692307692307693
 40
0.7692307692307693
 40
0.7692307692307693
 40
0.7692307692307693
 40
0.8461538461538461
 40
0.8461538461538461
 40
0.8461538461538461
 40
0.8461538461538461
 40
1.0
 40
1.0
 40
1.0
 40
1.0
 10
-6.40578
 20
-6.38648
 30
0.0
 10
-6.40578
 20
-6.38648
 30
0.0
 10
1.82631
 20
-6.38648
 30
0.0
 10
1.82631
 20
-6.38648
 30
0.0
 10
1.82631
 20
-6.38648
 30
0.0
 10
1.82631
 20
-6.38648
 30
0.0
 10
1.82631
 20
-3.63136
 30
0.0
 10
1.82631
 20
-3.63136
 30
0.0
 10
1.82631
 20
-3.63136
 30
0.0
 10
1.82631
 20
-3.63136
 30
0.0
 10
-3.11439
 20
-3.63136
 30
0.0
 10
-3.11439
 20
-3.63136
 30
0.0
 10
-3.11439
 20
-3.63136
 30
0.0
 10
-3.11439
 20
-3.63136
 30
0.0
 10
-3.11439
 20
-1.40755
 30
0.0
 10
-3.11439
 20
-1.40755
 30
0.0
 10
-3.11439
 20
-1.40755
 30
0.0
 10
-3.11439
 20
-1.40755
 30
0.0
 10
0.94534
 20
-1.40755
 30
0.0
 10
0.94534
 20
-1.40755
 30
0.0
 10
0.94534
 20
-1.40755
 30
0.0
 10
0.94534
 20
-1.40755
 30
0.0
 10
0.94534
 20
1.34756
 30
0.0
 10
0.94534
 20
1.34756
 30
0.0
 10
0.94534
 20
1.34756
 30
0.0
 10
0.94534
 20
1.34756
 30
0.0
 10
-3.11439
 20
1.34756
 30
0.0
 10
-3.11439
 20
1.34756
 30
0.0
 10
-3.11439
 20
1.34756
 30
0.0
 10
-3.11439
 20
1.34756
 30
0.0
 10
-3.11439
 20
3.30335
 30
0.0
 10
-3.11439
 20
3.30335
 30
0.0
 10
-3.11439
 20
3.30335
 30
0.0
 10
-3.11439
 20
3.30335
 30
0.0
 10
1.63474
 20
3.30335
 30
0.0
 10
1.63474
 20
3.30335
 30
0.0
 10
1.63474
 20
3.30335
 30
0.0
 10
1.63474
 20
3.30335
 30
0.0
 10
1.63474
 20
6.05846
 30
0.0
 10
1.63474
 20
6.05846
 30
0.0
 10
1.63474
 20
6.05846
 30
0.0
 10
1.63474
 20
6.05846
 30
0.0
 10
-6.40578
 20
6.05846
 30
0.0
 10
-6.40578
 20
6.05846
 30
0.0
 10
-6.40578
 20
6.05846
 30
0.0
 10
-6.40578
 20
6.05846
 30
0.0
 10
-6.40578
 20
-6.38648
 30
0.0
 10
-6.40578
 20
-6.38648
 30
0.0
  0
SPLINE
  5
43
330
1F
100
AcDbEntity
  8
Layer 1
 62
   250
370
   100
100
AcDbSpline
210
0.0
220
0.0
230
1.0
 70
    11
 71
     3
 72
    28
 73
    24
 74
     0
 42
0.0000000001
 43
0.0000000001
 40
0.0
 40
0.0
 40
0.0
 40
0.0
 40
0.1428571428571428
 40
0.1428571428571428
 40
0.1428571428571428
 40
0.1428571428571428
 40
0.2857142857142857
 40
0.2857142857142857
 40
0.2857142857142857
 40
0.2857142857142857
 40
0.4285714285714285
 40
0.4285714285714285
 40
0.4285714285714285
 40
0.4285714285714285
 40
0.5714285714285714
 40
0.5714285714285714
 40
0.5714285714285714
 40
0.5714285714285714
 40
0.7142857142857143
 40
0.7142857142857143
 40
0.7142857142857143
 40
0.7142857142857143
 40
1.0
 40
1.0
 40
1.0
 40
1.0
 10
4.66851
 20
-6.38648
 30
0.0
 10
4.66851
 20
-6.38648
 30
0.0
 10
12.6708
 20
-6.38648
 30
0.0
 10
12.6708
 20
-6.38648
 30
0.0
 10
12.6708
 20
-6.38648
 30
0.0
 10
12.6708
 20
-6.38648
 30
0.0
 10
12.6708
 20
-3.63136
 30
0.0
 10
12.6708
 20
-3.63136
 30
0.0
 10
12.6708
 20
-3.63136
 30
0.0
 10
12.6708
 20
-3.63136
 30
0.0
 10
7.9599
 20
-3.63136
 30
0.0
 10
7.9599
 20
-3.63136
 30
0.0
 10
7.9599
 20
-3.63136
 30
0.0
 10
7.9599
 20
-3.63136
 30
0.0
 10
7.9599
 20
6.05846
 30
0.0
 10
7.9599
 20
6.05846
 30
0.0
 10
7.9599
 20
6.05846
 30
0.0
 10
7.9599
 20
6.05846
 30
0.0
 10
4.66851
 20
6.05846
 30
0.0
 10
4.66851
 20
6.05846
 30
0.0
 10
4.66851
 20
6.05846
 30
0.0
 10
4.66851
 20
6.05846
 30
0.0
 10
4.66851
 20
-6.38648
 30
0.0
 10
4.66851
 20
-6.38648
 30
0.0
  0
SPLINE
  5
44
330
1F
100
AcDbEntity
  8
Layer 1
 62
   250
370
   100
100
AcDbSpline
210
0.0
220
0.0
230
1.0
 70
    11
 71
     3
 72
    52
 73
    48
 74
     0
 42
0.0000000001
 43
0.0000000001
 40
0.0
 40
0.0
 40
0.0
 40
0.0
 40
0.0769230769230769
 40
0.0769230769230769
 40
0.0769230769230769
 40
0.0769230769230769
 40
0.1538461538461539
 40
0.1538461538461539
 40
0.1538461538461539
 40
0.1538461538461539
 40
0.2307692307692308
 40
0.2307692307692308
 40
0.2307692307692308
 40
0.2307692307692308
 40
0.3076923076923077
 40
0.3076923076923077
 40
0.3076923076923077
 40
0.3076923076923077
 40
0.3846153846153846
 40
0.3846153846153846
 40
0.3846153846153846
 40
0.3846153846153846
 40
0.4615384615384616
 40
0.4615384615384616
 40
0.4615384615384616
 40
0.4615384615384616
 40
0.5384615384615384
 40
0.5384615384615384
 40
0.5384615384615384
 40
0.5384615384615384
 40
0.6153846153846154
 40
0.6153846153846154
 40
0.6153846153846154
 40
0.6153846153846154
 40
0.6923076923076923
 40
0.6923076923076923
 40
0.6923076923076923
 40
0.6923076923076923
 40
0.7692307692307693
 40
0.7692307692307693
 40
0.7692307692307693
 40
0.7692307692307693
 40
0.8461538461538461
 40
0.8461538461538461
 40
0.8461538461538461
 40
0.8461538461538461
 40
1.0
 40
1.0
 40
1.0
 40
1.0
 10
14.94098
 20
-6.38648
 30
0.0
 10
14.94098
 20
-6.38648
 30
0.0
 10
23.17307
 20
-6.38648
 30
0.0
 10
23.17307
 20
-6.38648
 30
0.0
 10
23.17307
 20
-6.38648
 30
0.0
 10
23.17307
 20
-6.38648
 30
0.0
 10
23.17307
 20
-3.63136
 30
0.0
 10
23.17307
 20
-3.63136
 30
0.0
 10
23.17307
 20
-3.63136
 30
0.0
 10
23.17307
 20
-3.63136
 30
0.0
 10
18.23237
 20
-3.63136
 30
0.0
 10
18.23237
 20
-3.63136
 30
0.0
 10
18.23237
 20
-3.63136
 30
0.0
 10
18.23237
 20
-3.63136
 30
0.0
 10
18.23237
 20
-1.40755
 30
0.0
 10
18.23237
 20
-1.40755
 30
0.0
 10
18.23237
 20
-1.40755
 30
0.0
 10
18.23237
 20
-1.40755
 30
0.0
 10
22.29209
 20
-1.40755
 30
0.0
 10
22.29209
 20
-1.40755
 30
0.0
 10
22.29209
 20
-1.40755
 30
0.0
 10
22.29209
 20
-1.40755
 30
0.0
 10
22.29209
 20
1.34756
 30
0.0
 10
22.29209
 20
1.34756
 30
0.0
 10
22.29209
 20
1.34756
 30
0.0
 10
22.29209
 20
1.34756
 30
0.0
 10
18.23237
 20
1.34756
 30
0.0
 10
18.23237
 20
1.34756
 30
0.0
 10
18.23237
 20
1.34756
 30
0.0
 10
18.23237
 20
1.34756
 30
0.0
 10
18.23237
 20
3.30335
 30
0.0
 10
18.23237
 20
3.30335
 30
0.0
 10
18.23237
 20
3.30335
 30
0.0
 10
18.23237
 20
3.30335
 30
0.0
 10
22.98149
 20
3.30335
 30
0.0
 10
22.98149
 20
3.30335
 30
0.0
 10
22.98149
 20
3.30335
 30
0.0
 10
22.98149
 20
3.30335
 30
0.0
 10
22.98149
 20
6.05846
 30
0.0
 10
22.98149
 20
6.05846
 30
0.0
 10
22.98149
 20
6.05846
 30
0.0
 10
22.98149
 20
6.05846
 30
0.0
 10
14.94098
 20
6.05846
 30
0.0
 10
14.94098
 20
6.05846
 30
0.0
 10
14.94098
 20
6.05846
 30
0.0
 10
14.94098
 20
6.05846
 30
0.0
 10
14.94098
 20
-6.38648
 30
0.0
 10
14.94098
 20
-6.38648
 30
0.0
  0
SPLINE
  5
45
330
1F
100
AcDbEntity
  8
Layer 1
 62
   250
370
   100
100
AcDbSpline
210
0.0
220
0.0
230
1.0
 70
    11
 71
     3
 72
    56
 73
    52
 74
     0
 42
0.0000000001
 43
0.0000000001
 40
0.0
 40
0.0
 40
0.0
 40
0.0
 40
0.0714285714285714
 40
0.0714285714285714
 40
0.0714285714285714
 40
0.0714285714285714
 40
0.1428571428571428
 40
0.1428571428571428
 40
0.1428571428571428
 40
0.1428571428571428
 40
0.2142857142857143
 40
0.2142857142857143
 40
0.2142857142857143
 40
0.2142857142857143
 40
0.2857142857142857
 40
0.2857142857142857
 40
0.2857142857142857
 40
0.2857142857142857
 40
0.3571428571428572
 40
0.3571428571428572
 40
0.3571428571428572
 40
0.3571428571428572
 40
0.4285714285714285
 40
0.4285714285714285
 40
0.4285714285714285
 40
0.4285714285714285
 40
0.5
 40
0.5
 40
0.5
 40
0.5
 40
0.5714285714285714
 40
0.5714285714285714
 40
0.5714285714285714
 40
0.5714285714285714
 40
0.6428571428571429
 40
0.6428571428571429
 40
0.6428571428571429
 40
0.6428571428571429
 40
0.7142857142857143
 40
0.7142857142857143
 40
0.7142857142857143
 40
0.7142857142857143
 40
0.7857142857142857
 40
0.7857142857142857
 40
0.7857142857142857
 40
0.7857142857142857
 40
0.8571428571428571
 40
0.8571428571428571
 40
0.8571428571428571
 40
0.8571428571428571
 40
1.0
 40
1.0
 40
1.0
 40
1.0
 10
26.01526
 20
-6.38648
 30
0.0
 10
26.01526
 20
-6.38648
 30
0.0
 10
29.30665
 20
-6.38648
 30
0.0
 10
29.30665
 20
-6.38648
 30
0.0
 10
29.30665
 20
-6.38648
 30
0.0
 10
29.30665
 20
-6.38648
 30
0.0
 10
29.30665
 20
-3.28508
 30
0.0
 10
29.30665
 20
-3.28508
 30
0.0
 10
29.30665
 20
-3.28508
 30
0.0
 10
29.30665
 20
-3.28508
 30
0.0
 10
30.49388
 20
-1.5998
 30
0.0
 10
30.49388
 20
-1.5998
 30
0.0
 10
30.49388
 20
-1.5998
 30
0.0
 10
30.49388
 20
-1.5998
 30
0.0
 10
33.25148
 20
-6.38648
 30
0.0
 10
33.25148
 20
-6.38648
 30
0.0
 10
33.25148
 20
-6.38648
 30
0.0
 10
33.25148
 20
-6.38648
 30
0.0
 10
36.85161
 20
-6.38648
 30
0.0
 10
36.85161
 20
-6.38648
 30
0.0
 10
36.85161
 20
-6.38648
 30
0.0
 10
36.85161
 20
-6.38648
 30
0.0
 10
32.40895
 20
1.00377
 30
0.0
 10
32.40895
 20
1.00377
 30
0.0
 10
32.40895
 20
1.00377
 30
0.0
 10
32.40895
 20
1.00377
 30
0.0
 10
36.12398
 20
6.05846
 30
0.0
 10
36.12398
 20
6.05846
 30
0.0
 10
36.12398
 20
6.05846
 30
0.0
 10
36.12398
 20
6.05846
 30
0.0
 10
32.52385
 20
6.05846
 30
0.0
 10
32.52385
 20
6.05846
 30
0.0
 10
32.52385
 20
6.05846
 30
0.0
 10
32.52385
 20
6.05846
 30
0.0
 10
29.3831
 20
1.42514
 30
0.0
 10
29.3831
 20
1.42514
 30
0.0
 10
29.3831
 20
1.42514
 30
0.0
 10
29.3831
 20
1.42514
 30
0.0
 10
29.30665
 20
1.42514
 30
0.0
 10
29.30665
 20
1.42514
 30
0.0
 10
29.30665
 20
1.42514
 30
0.0
 10
29.30665
 20
1.42514
 30
0.0
 10
29.30665
 20
6.05846
 30
0.0
 10
29.30665
 20
6.05846
 30
0.0
 10
29.30665
 20
6.05846
 30
0.0
 10
29.30665
 20
6.05846
 30
0.0
 10
26.01526
 20
6.05846
 30
0.0
 10
26.01526
 20
6.05846
 30
0.0
 10
26.01526
 20
6.05846
 30
0.0
 10
26.01526
 20
6.05846
 30
0.0
 10
26.01526
 20
-6.38648
 30
0.0
 10
26.01526
 20
-6.38648
 30
0.0
  0
SPLINE
  5
46
330
1F
100
AcDbEntity
  8
Layer 1
 62
   250
370
   100
100
AcDbSpline
210
0.0
220
0.0
230
1.0
 70
    11
 71
     3
 72
    36
 73
    32
 74
     0
 42
0.0000000001
 43
0.0000000001
 40
0.0
 40
0.0
 40
0.0
 40
0.0
 40
0.1111111111111111
 40
0.1111111111111111
 40
0.1111111111111111
 40
0.1111111111111111
 40
0.2222222222222222
 40
0.2222222222222222
 40
0.2222222222222222
 40
0.2222222222222222
 40
0.3333333333333333
 40
0.3333333333333333
 40
0.3333333333333333
 40
0.3333333333333333
 40
0.4444444444444444
 40
0.4444444444444444
 40
0.4444444444444444
 40
0.4444444444444444
 40
0.5555555555555556
 40
0.5555555555555556
 40
0.5555555555555556
 40
0.5555555555555556
 40
0.6666666666666666
 40
0.6666666666666666
 40
0.6666666666666666
 40
0.6666666666666666
 40
0.7777777777777778
 40
0.7777777777777778
 40
0.7777777777777778
 40
0.7777777777777778
 40
1.0
 40
1.0
 40
1.0
 40
1.0
 10
41.1262
 20
-6.38648
 30
0.0
 10
41.1262
 20
-6.38648
 30
0.0
 10
44.41759
 20
-6.38648
 30
0.0
 10
44.41759
 20
-6.38648
 30
0.0
 10
44.41759
 20
-6.38648
 30
0.0
 10
44.41759
 20
-6.38648
 30
0.0
 10
44.41759
 20
3.30335
 30
0.0
 10
44.41759
 20
3.30335
 30
0.0
 10
44.41759
 20
3.30335
 30
0.0
 10
44.41759
 20
3.30335
 30
0.0
 10
47.71124
 20
3.30335
 30
0.0
 10
47.71124
 20
3.30335
 30
0.0
 10
47.71124
 20
3.30335
 30
0.0
 10
47.71124
 20
3.30335
 30
0.0
 10
47.71124
 20
6.05846
 30
0.0
 10
47.71124
 20
6.05846
 30
0.0
 10
47.71124
 20
6.05846
 30
0.0
 10
47.71124
 20
6.05846
 30
0.0
 10
37.83233
 20
6.05846
 30
0.0
 10
37.83233
 20
6.05846
 30
0.0
 10
37.83233
 20
6.05846
 30
0.0
 10
37.83233
 20
6.05846
 30
0.0
 10
37.83233
 20
3.30335
 30
0.0
 10
37.83233
 20
3.30335
 30
0.0
 10
37.83233
 20
3.30335
 30
0.0
 10
37.83233
 20
3.30335
 30
0.0
 10
41.1262
 20
3.30335
 30
0.0
 10
41.1262
 20
3.30335
 30
0.0
 10
41.1262
 20
3.30335
 30
0.0
 10
41.1262
 20
3.30335
 30
0.0
 10
41.1262
 20
-6.38648
 30
0.0
 10
41.1262
 20
-6.38648
 30
0.0
  0
SPLINE
  5
47
330
1F
100
AcDbEntity
  8
Layer 1
 62
   250
370
   100
100
AcDbSpline
210
0.0
220
0.0
230
1.0
 70
    11
 71
     3
 72
    24
 73
    20
 74
     0
 42
0.0000000001
 43
0.0000000001
 40
0.0
 40
0.0
 40
0.0
 40
0.0
 40
0.1666666666666667
 40
0.1666666666666667
 40
0.1666666666666667
 40
0.1666666666666667
 40
0.3333333333333333
 40
0.3333333333333333
 40
0.3333333333333333
 40
0.3333333333333333
 40
0.5
 40
0.5
 40
0.5
 40
0.5
 40
0.6666666666666666
 40
0.6666666666666666
 40
0.6666666666666666
 40
0.6666666666666666
 40
1.0
 40
1.0
 40
1.0
 40
1.0
 10
53.12127
 20
3.45648
 30
0.0
 10
53.12127
 20
3.45648
 30
0.0
 10
54.3094
 20
3.45648
 30
0.0
 10
54.3094
 20
3.45648
 30
0.0
 10
54.3094
 20
3.45648
 30
0.0
 10
55.61221
 20
3.45648
 30
0.0
 10
56.30251
 20
3.11177
 30
0.0
 10
56.30251
 20
2.03855
 30
0.0
 10
56.30251
 20
2.03855
 30
0.0
 10
56.30251
 20
0.96554
 30
0.0
 10
55.61221
 20
0.39014
 30
0.0
 10
54.3094
 20
0.39014
 30
0.0
 10
54.3094
 20
0.39014
 30
0.0
 10
54.3094
 20
0.39014
 30
0.0
 10
53.12127
 20
0.39014
 30
0.0
 10
53.12127
 20
0.39014
 30
0.0
 10
53.12127
 20
0.39014
 30
0.0
 10
53.12127
 20
0.39014
 30
0.0
 10
53.12127
 20
3.45648
 30
0.0
 10
53.12127
 20
3.45648
 30
0.0
  0
SPLINE
  5
48
330
1F
100
AcDbEntity
  8
Layer 1
 62
   250
370
   100
100
AcDbSpline
210
0.0
220
0.0
230
1.0
 70
    11
 71
     3
 72
    44
 73
    40
 74
     0
 42
0.0000000001
 43
0.0000000001
 40
0.0
 40
0.0
 40
0.0
 40
0.0
 40
0.0909090909090909
 40
0.0909090909090909
 40
0.0909090909090909
 40
0.0909090909090909
 40
0.1818181818181818
 40
0.1818181818181818
 40
0.1818181818181818
 40
0.1818181818181818
 40
0.2727272727272727
 40
0.2727272727272727
 40
0.2727272727272727
 40
0.2727272727272727
 40
0.3636363636363636
 40
0.3636363636363636
 40
0.3636363636363636
 40
0.3636363636363636
 40
0.4545454545454545
 40
0.4545454545454545
 40
0.4545454545454545
 40
0.4545454545454545
 40
0.5454545454545454
 40
0.5454545454545454
 40
0.5454545454545454
 40
0.5454545454545454
 40
0.6363636363636364
 40
0.6363636363636364
 40
0.6363636363636364
 40
0.6363636363636364
 40
0.7272727272727273
 40
0.7272727272727273
 40
0.7272727272727273
 40
0.7272727272727273
 40
0.8181818181818182
 40
0.8181818181818182
 40
0.8181818181818182
 40
0.8181818181818182
 40
1.0
 40
1.0
 40
1.0
 40
1.0
 10
60.20662
 20
-6.38648
 30
0.0
 10
60.20662
 20
-6.38648
 30
0.0
 10
57.50806
 20
-1.56158
 30
0.0
 10
57.50806
 20
-1.56158
 30
0.0
 10
57.50806
 20
-1.56158
 30
0.0
 10
58.71383
 20
-0.9104
 30
0.0
 10
59.51722
 20
0.25601
 30
0.0
 10
59.51722
 20
2.03855
 30
0.0
 10
59.51722
 20
2.03855
 30
0.0
 10
59.51722
 20
5.14017
 30
0.0
 10
57.22081
 20
6.05846
 30
0.0
 10
54.5392
 20
6.05846
 30
0.0
 10
54.5392
 20
6.05846
 30
0.0
 10
54.5392
 20
6.05846
 30
0.0
 10
49.82988
 20
6.05846
 30
0.0
 10
49.82988
 20
6.05846
 30
0.0
 10
49.82988
 20
6.05846
 30
0.0
 10
49.82988
 20
6.05846
 30
0.0
 10
49.82988
 20
-6.38648
 30
0.0
 10
49.82988
 20
-6.38648
 30
0.0
 10
49.82988
 20
-6.38648
 30
0.0
 10
49.82988
 20
-6.38648
 30
0.0
 10
53.12127
 20
-6.38648
 30
0.0
 10
53.12127
 20
-6.38648
 30
0.0
 10
53.12127
 20
-6.38648
 30
0.0
 10
53.12127
 20
-6.38648
 30
0.0
 10
53.12127
 20
-2.21185
 30
0.0
 10
53.12127
 20
-2.21185
 30
0.0
 10
53.12127
 20
-2.21185
 30
0.0
 10
53.12127
 20
-2.21185
 30
0.0
 10
54.38585
 20
-2.21185
 30
0.0
 10
54.38585
 20
-2.21185
 30
0.0
 10
54.38585
 20
-2.21185
 30
0.0
 10
54.38585
 20
-2.21185
 30
0.0
 10
56.53231
 20
-6.38648
 30
0.0
 10
56.53231
 20
-6.38648
 30
0.0
 10
56.53231
 20
-6.38648
 30
0.0
 10
56.53231
 20
-6.38648
 30
0.0
 10
60.20662
 20
-6.38648
 30
0.0
 10
60.20662
 20
-6.38648
 30
0.0
  0
SPLINE
  5
49
330
1F
100
AcDbEntity
  8
Layer 1
 62
   250
370
   100
100
AcDbSpline
210
0.0
220
0.0
230
1.0
 70
    11
 71
     3
 72
    20
 73
    16
 74
     0
 42
0.0000000001
 43
0.0000000001
 40
0.0
 40
0.0
 40
0.0
 40
0.0
 40
0.2
 40
0.2
 40
0.2
 40
0.2
 40
0.4
 40
0.4
 40
0.4
 40
0.4
 40
0.6
 40
0.6
 40
0.6
 40
0.6
 40
1.0
 40
1.0
 40
1.0
 40
1.0
 10
67.38878
 20
-6.61628
 30
0.0
 10
70.83646
 20
-6.61628
 30
0.0
 10
73.17133
 20
-4.20496
 30
0.0
 10
73.17133
 20
-0.1061
 30
0.0
 10
73.17133
 20
-0.1061
 30
0.0
 10
73.17133
 20
3.97285
 30
0.0
 10
70.83646
 20
6.28826
 30
0.0
 10
67.38878
 20
6.28826
 30
0.0
 10
67.38878
 20
6.28826
 30
0.0
 10
63.94178
 20
6.28826
 30
0.0
 10
61.60714
 20
3.99185
 30
0.0
 10
61.60714
 20
-0.1061
 30
0.0
 10
61.60714
 20
-0.1061
 30
0.0
 10
61.60714
 20
-4.20496
 30
0.0
 10
63.94178
 20
-6.61628
 30
0.0
 10
67.38878
 20
-6.61628
 30
0.0
  0
SPLINE
  5
4A
330
1F
100
AcDbEntity
  8
Layer 1
 62
   250
370
   100
100
AcDbSpline
210
0.0
220
0.0
230
1.0
 70
    11
 71
     3
 72
    20
 73
    16
 74
     0
 42
0.0000000001
 43
0.0000000001
 40
0.0
 40
0.0
 40
0.0
 40
0.0
 40
0.2
 40
0.2
 40
0.2
 40
0.2
 40
0.4
 40
0.4
 40
0.4
 40
0.4
 40
0.6
 40
0.6
 40
0.6
 40
0.6
 40
1.0
 40
1.0
 40
1.0
 40
1.0
 10
67.38878
 20
-3.78449
 30
0.0
 10
65.89418
 20
-3.78449
 30
0.0
 10
64.97498
 20
-2.36656
 30
0.0
 10
64.97498
 20
-0.1061
 30
0.0
 10
64.97498
 20
-0.1061
 30
0.0
 10
64.97498
 20
2.15435
 30
0.0
 10
65.89418
 20
3.45648
 30
0.0
 10
67.38878
 20
3.45648
 30
0.0
 10
67.38878
 20
3.45648
 30
0.0
 10
68.88316
 20
3.45648
 30
0.0
 10
69.80327
 20
2.15435
 30
0.0
 10
69.80327
 20
-0.1061
 30
0.0
 10
69.80327
 20
-0.1061
 30
0.0
 10
69.80327
 20
-2.36656
 30
0.0
 10
68.88316
 20
-3.78449
 30
0.0
 10
67.38878
 20
-3.78449
 30
0.0
  0
SPLINE
  5
4B
330
1F
100
AcDbEntity
  8
Layer 1
 62
   250
370
   100
100
AcDbSpline
210
0.0
220
0.0
230
1.0
 70
    11
 71
     3
 72
    68
 73
    64
 74
     0
 42
0.0000000001
 43
0.0000000001
 40
0.0
 40
0.0
 40
0.0
 40
0.0
 40
0.0588235294117647
 40
0.0588235294117647
 40
0.0588235294117647
 40
0.0588235294117647
 40
0.1176470588235294
 40
0.1176470588235294
 40
0.1176470588235294
 40
0.1176470588235294
 40
0.1764705882352941
 40
0.1764705882352941
 40
0.1764705882352941
 40
0.1764705882352941
 40
0.2352941176470588
 40
0.2352941176470588
 40
0.2352941176470588
 40
0.2352941176470588
 40
0.2941176470588235
 40
0.2941176470588235
 40
0.2941176470588235
 40
0.2941176470588235
 40
0.3529411764705883
 40
0.3529411764705883
 40
0.3529411764705883
 40
0.3529411764705883
 40
0.4117647058823529
 40
0.4117647058823529
 40
0.4117647058823529
 40
0.4117647058823529
 40
0.4705882352941176
 40
0.4705882352941176
 40
0.4705882352941176
 40
0.4705882352941176
 40
0.5294117647058824
 40
0.5294117647058824
 40
0.5294117647058824
 40
0.5294117647058824
 40
0.5882352941176471
 40
0.5882352941176471
 40
0.5882352941176471
 40
0.5882352941176471
 40
0.6470588235294118
 40
0.6470588235294118
 40
0.6470588235294118
 40
0.6470588235294118
 40
0.7058823529411765
 40
0.7058823529411765
 40
0.7058823529411765
 40
0.7058823529411765
 40
0.7647058823529411
 40
0.7647058823529411
 40
0.7647058823529411
 40
0.7647058823529411
 40
0.8235294117647058
 40
0.8235294117647058
 40
0.8235294117647058
 40
0.8235294117647058
 40
0.8823529411764706
 40
0.8823529411764706
 40
0.8823529411764706
 40
0.8823529411764706
 40
1.0
 40
1.0
 40
1.0
 40
1.0
 10
75.77716
 20
-6.38648
 30
0.0
 10
75.77716
 20
-6.38648
 30
0.0
 10
78.91543
 20
-6.38648
 30
0.0
 10
78.91543
 20
-6.38648
 30
0.0
 10
78.91543
 20
-6.38648
 30
0.0
 10
78.91543
 20
-6.38648
 30
0.0
 10
78.91543
 20
-2.78726
 30
0.0
 10
78.91543
 20
-2.78726
 30
0.0
 10
78.91543
 20
-2.78726
 30
0.0
 10
78.91543
 20
-1.2551
 30
0.0
 10
78.64808
 20
0.54417
 30
0.0
 10
78.49496
 20
1.96119
 30
0.0
 10
78.49496
 20
1.96119
 30
0.0
 10
78.49496
 20
1.96119
 30
0.0
 10
78.57163
 20
1.96119
 30
0.0
 10
78.57163
 20
1.96119
 30
0.0
 10
78.57163
 20
1.96119
 30
0.0
 10
78.57163
 20
1.96119
 30
0.0
 10
79.75886
 20
-0.81473
 30
0.0
 10
79.75886
 20
-0.81473
 30
0.0
 10
79.75886
 20
-0.81473
 30
0.0
 10
79.75886
 20
-0.81473
 30
0.0
 10
82.51804
 20
-6.38648
 30
0.0
 10
82.51804
 20
-6.38648
 30
0.0
 10
82.51804
 20
-6.38648
 30
0.0
 10
82.51804
 20
-6.38648
 30
0.0
 10
85.88611
 20
-6.38648
 30
0.0
 10
85.88611
 20
-6.38648
 30
0.0
 10
85.88611
 20
-6.38648
 30
0.0
 10
85.88611
 20
-6.38648
 30
0.0
 10
85.88611
 20
6.05846
 30
0.0
 10
85.88611
 20
6.05846
 30
0.0
 10
85.88611
 20
6.05846
 30
0.0
 10
85.88611
 20
6.05846
 30
0.0
 10
82.74784
 20
6.05846
 30
0.0
 10
82.74784
 20
6.05846
 30
0.0
 10
82.74784
 20
6.05846
 30
0.0
 10
82.74784
 20
6.05846
 30
0.0
 10
82.74784
 20
2.45924
 30
0.0
 10
82.74784
 20
2.45924
 30
0.0
 10
82.74784
 20
2.45924
 30
0.0
 10
82.74784
 20
0.92709
 30
0.0
 10
83.01587
 20
-0.94886
 30
0.0
 10
83.16922
 20
-2.2892
 30
0.0
 10
83.16922
 20
-2.2892
 30
0.0
 10
83.16922
 20
-2.2892
 30
0.0
 10
83.09254
 20
-2.2892
 30
0.0
 10
83.09254
 20
-2.2892
 30
0.0
 10
83.09254
 20
-2.2892
 30
0.0
 10
83.09254
 20
-2.2892
 30
0.0
 10
81.90532
 20
0.50594
 30
0.0
 10
81.90532
 20
0.50594
 30
0.0
 10
81.90532
 20
0.50594
 30
0.0
 10
81.90532
 20
0.50594
 30
0.0
 10
79.14613
 20
6.05846
 30
0.0
 10
79.14613
 20
6.05846
 30
0.0
 10
79.14613
 20
6.05846
 30
0.0
 10
79.14613
 20
6.05846
 30
0.0
 10
75.77716
 20
6.05846
 30
0.0
 10
75.77716
 20
6.05846
 30
0.0
 10
75.77716
 20
6.05846
 30
0.0
 10
75.77716
 20
6.05846
 30
0.0
 10
75.77716
 20
-6.38648
 30
0.0
 10
75.77716
 20
-6.38648
 30
0.0
  0
SPLINE
  5
4C
330
1F
100
AcDbEntity
  8
Layer 1
 62
   250
370
   100
100
AcDbSpline
210
0.0
220
0.0
230
1.0
 70
    11
 71
     3
 72
    20
 73
    16
 74
     0
 42
0.0000000001
 43
0.0000000001
 40
0.0
 40
0.0
 40
0.0
 40
0.0
 40
0.2
 40
0.2
 40
0.2
 40
0.2
 40
0.4
 40
0.4
 40
0.4
 40
0.4
 40
0.6
 40
0.6
 40
0.6
 40
0.6
 40
1.0
 40
1.0
 40
1.0
 40
1.0
 10
89.07368
 20
-6.38648
 30
0.0
 10
89.07368
 20
-6.38648
 30
0.0
 10
92.36507
 20
-6.38648
 30
0.0
 10
92.36507
 20
-6.38648
 30
0.0
 10
92.36507
 20
-6.38648
 30
0.0
 10
92.36507
 20
-6.38648
 30
0.0
 10
92.36507
 20
6.05846
 30
0.0
 10
92.36507
 20
6.05846
 30
0.0
 10
92.36507
 20
6.05846
 30
0.0
 10
92.36507
 20
6.05846
 30
0.0
 10
89.07368
 20
6.05846
 30
0.0
 10
89.07368
 20
6.05846
 30
0.0
 10
89.07368
 20
6.05846
 30
0.0
 10
89.07368
 20
6.05846
 30
0.0
 10
89.07368
 20
-6.38648
 30
0.0
 10
89.07368
 20
-6.38648
 30
0.0
  0
SPLINE
  5
4D
330
1F
100
AcDbEntity
  8
Layer 1
 62
   250
370
   100
100
AcDbSpline
210
0.0
220
0.0
230
1.0
 70
    11
 71
     3
 72
    56
 73
    52
 74
     0
 42
0.0000000001
 43
0.0000000001
 40
0.0
 40
0.0
 40
0.0
 40
0.0
 40
0.0714285714285714
 40
0.0714285714285714
 40
0.0714285714285714
 40
0.0714285714285714
 40
0.1428571428571428
 40
0.1428571428571428
 40
0.1428571428571428
 40
0.1428571428571428
 40
0.2142857142857143
 40
0.2142857142857143
 40
0.2142857142857143
 40
0.2142857142857143
 40
0.2857142857142857
 40
0.2857142857142857
 40
0.2857142857142857
 40
0.2857142857142857
 40
0.3571428571428572
 40
0.3571428571428572
 40
0.3571428571428572
 40
0.3571428571428572
 40
0.4285714285714285
 40
0.4285714285714285
 40
0.4285714285714285
 40
0.4285714285714285
 40
0.5
 40
0.5
 40
0.5
 40
0.5
 40
0.5714285714285714
 40
0.5714285714285714
 40
0.5714285714285714
 40
0.5714285714285714
 40
0.6428571428571429
 40
0.6428571428571429
 40
0.6428571428571429
 40
0.6428571428571429
 40
0.7142857142857143
 40
0.7142857142857143
 40
0.7142857142857143
 40
0.7142857142857143
 40
0.7857142857142857
 40
0.7857142857142857
 40
0.7857142857142857
 40
0.7857142857142857
 40
0.8571428571428571
 40
0.8571428571428571
 40
0.8571428571428571
 40
0.8571428571428571
 40
1.0
 40
1.0
 40
1.0
 40
1.0
 10
95.52097
 20
-6.38648
 30
0.0
 10
95.52097
 20
-6.38648
 30
0.0
 10
98.81236
 20
-6.38648
 30
0.0
 10
98.81236
 20
-6.38648
 30
0.0
 10
98.81236
 20
-6.38648
 30
0.0
 10
98.81236
 20
-6.38648
 30
0.0
 10
98.81236
 20
-3.28508
 30
0.0
 10
98.81236
 20
-3.28508
 30
0.0
 10
98.81236
 20
-3.28508
 30
0.0
 10
98.81236
 20
-3.28508
 30
0.0
 10
99.99959
 20
-1.5998
 30
0.0
 10
99.99959
 20
-1.5998
 30
0.0
 10
99.99959
 20
-1.5998
 30
0.0
 10
99.99959
 20
-1.5998
 30
0.0
 10
102.75719
 20
-6.38648
 30
0.0
 10
102.75719
 20
-6.38648
 30
0.0
 10
102.75719
 20
-6.38648
 30
0.0
 10
102.75719
 20
-6.38648
 30
0.0
 10
106.35754
 20
-6.38648
 30
0.0
 10
106.35754
 20
-6.38648
 30
0.0
 10
106.35754
 20
-6.38648
 30
0.0
 10
106.35754
 20
-6.38648
 30
0.0
 10
101.91467
 20
1.00377
 30
0.0
 10
101.91467
 20
1.00377
 30
0.0
 10
101.91467
 20
1.00377
 30
0.0
 10
101.91467
 20
1.00377
 30
0.0
 10
105.62969
 20
6.05846
 30
0.0
 10
105.62969
 20
6.05846
 30
0.0
 10
105.62969
 20
6.05846
 30
0.0
 10
105.62969
 20
6.05846
 30
0.0
 10
102.02957
 20
6.05846
 30
0.0
 10
102.02957
 20
6.05846
 30
0.0
 10
102.02957
 20
6.05846
 30
0.0
 10
102.02957
 20
6.05846
 30
0.0
 10
98.88904
 20
1.42514
 30
0.0
 10
98.88904
 20
1.42514
 30
0.0
 10
98.88904
 20
1.42514
 30
0.0
 10
98.88904
 20
1.42514
 30
0.0
 10
98.81236
 20
1.42514
 30
0.0
 10
98.81236
 20
1.42514
 30
0.0
 10
98.81236
 20
1.42514
 30
0.0
 10
98.81236
 20
1.42514
 30
0.0
 10
98.81236
 20
6.05846
 30
0.0
 10
98.81236
 20
6.05846
 30
0.0
 10
98.81236
 20
6.05846
 30
0.0
 10
98.81236
 20
6.05846
 30
0.0
 10
95.52097
 20
6.05846
 30
0.0
 10
95.52097
 20
6.05846
 30
0.0
 10
95.52097
 20
6.05846
 30
0.0
 10
95.52097
 20
6.05846
 30
0.0
 10
95.52097
 20
-6.38648
 30
0.0
 10
95.52097
 20
-6.38648
 30
0.0
  0
SPLINE
  5
4E
330
1F
100
AcDbEntity
  8
Layer 1
 62
   250
370
   100
100
AcDbSpline
210
0.0
220
0.0
230
1.0
 70
    11
 71
     3
 72
    28
 73
    24
 74
     0
 42
0.0000000001
 43
0.0000000001
 40
0.0
 40
0.0
 40
0.0
 40
0.0
 40
0.1428571428571428
 40
0.1428571428571428
 40
0.1428571428571428
 40
0.1428571428571428
 40
0.2857142857142857
 40
0.2857142857142857
 40
0.2857142857142857
 40
0.2857142857142857
 40
0.4285714285714285
 40
0.4285714285714285
 40
0.4285714285714285
 40
0.4285714285714285
 40
0.5714285714285714
 40
0.5714285714285714
 40
0.5714285714285714
 40
0.5714285714285714
 40
0.7142857142857143
 40
0.7142857142857143
 40
0.7142857142857143
 40
0.7142857142857143
 40
1.0
 40
1.0
 40
1.0
 40
1.0
 10
111.96593
 20
-1.19924
 30
0.0
 10
111.96593
 20
-1.19924
 30
0.0
 10
112.17673
 20
-0.33681
 30
0.0
 10
112.17673
 20
-0.33681
 30
0.0
 10
112.17673
 20
-0.33681
 30
0.0
 10
112.48298
 20
0.85064
 30
0.0
 10
112.78946
 20
2.34502
 30
0.0
 10
113.05748
 20
3.60983
 30
0.0
 10
113.05748
 20
3.60983
 30
0.0
 10
113.05748
 20
3.60983
 30
0.0
 10
113.13416
 20
3.60983
 30
0.0
 10
113.13416
 20
3.60983
 30
0.0
 10
113.13416
 20
3.60983
 30
0.0
 10
113.44063
 20
2.36425
 30
0.0
 10
113.74688
 20
0.85064
 30
0.0
 10
114.05245
 20
-0.33681
 30
0.0
 10
114.05245
 20
-0.33681
 30
0.0
 10
114.05245
 20
-0.33681
 30
0.0
 10
114.26325
 20
-1.19924
 30
0.0
 10
114.26325
 20
-1.19924
 30
0.0
 10
114.26325
 20
-1.19924
 30
0.0
 10
114.26325
 20
-1.19924
 30
0.0
 10
111.96593
 20
-1.19924
 30
0.0
 10
111.96593
 20
-1.19924
 30
0.0
  0
SPLINE
  5
4F
330
1F
100
AcDbEntity
  8
Layer 1
 62
   250
370
   100
100
AcDbSpline
210
0.0
220
0.0
230
1.0
 70
    11
 71
     3
 72
    36
 73
    32
 74
     0
 42
0.0000000001
 43
0.0000000001
 40
0.0
 40
0.0
 40
0.0
 40
0.0
 40
0.1111111111111111
 40
0.1111111111111111
 40
0.1111111111111111
 40
0.1111111111111111
 40
0.2222222222222222
 40
0.2222222222222222
 40
0.2222222222222222
 40
0.2222222222222222
 40
0.3333333333333333
 40
0.3333333333333333
 40
0.3333333333333333
 40
0.3333333333333333
 40
0.4444444444444444
 40
0.4444444444444444
 40
0.4444444444444444
 40
0.4444444444444444
 40
0.5555555555555556
 40
0.5555555555555556
 40
0.5555555555555556
 40
0.5555555555555556
 40
0.6666666666666666
 40
0.6666666666666666
 40
0.6666666666666666
 40
0.6666666666666666
 40
0.7777777777777778
 40
0.7777777777777778
 40
0.7777777777777778
 40
0.7777777777777778
 40
1.0
 40
1.0
 40
1.0
 40
1.0
 10
115.4697
 20
-6.38648
 30
0.0
 10
115.4697
 20
-6.38648
 30
0.0
 10
118.95425
 20
-6.38648
 30
0.0
 10
118.95425
 20
-6.38648
 30
0.0
 10
118.95425
 20
-6.38648
 30
0.0
 10
118.95425
 20
-6.38648
 30
0.0
 10
115.16323
 20
6.05846
 30
0.0
 10
115.16323
 20
6.05846
 30
0.0
 10
115.16323
 20
6.05846
 30
0.0
 10
115.16323
 20
6.05846
 30
0.0
 10
111.18086
 20
6.05846
 30
0.0
 10
111.18086
 20
6.05846
 30
0.0
 10
111.18086
 20
6.05846
 30
0.0
 10
111.18086
 20
6.05846
 30
0.0
 10
107.38983
 20
-6.38648
 30
0.0
 10
107.38983
 20
-6.38648
 30
0.0
 10
107.38983
 20
-6.38648
 30
0.0
 10
107.38983
 20
-6.38648
 30
0.0
 10
110.75948
 20
-6.38648
 30
0.0
 10
110.75948
 20
-6.38648
 30
0.0
 10
110.75948
 20
-6.38648
 30
0.0
 10
110.75948
 20
-6.38648
 30
0.0
 10
111.37243
 20
-3.74378
 30
0.0
 10
111.37243
 20
-3.74378
 30
0.0
 10
111.37243
 20
-3.74378
 30
0.0
 10
111.37243
 20
-3.74378
 30
0.0
 10
114.85675
 20
-3.74378
 30
0.0
 10
114.85675
 20
-3.74378
 30
0.0
 10
114.85675
 20
-3.74378
 30
0.0
 10
114.85675
 20
-3.74378
 30
0.0
 10
115.4697
 20
-6.38648
 30
0.0
 10
115.4697
 20
-6.38648
 30
0.0
  0
SPLINE
  5
50
330
1F
100
AcDbEntity
  8
Layer 1
 62
   250
370
   100
100
AcDbSpline
210
0.0
220
0.0
230
1.0
 70
    11
 71
     3
 72
    52
 73
    48
 74
     0
 42
0.0000000001
 43
0.0000000001
 40
0.0
 40
0.0
 40
0.0
 40
0.0
 40
0.0769230769230769
 40
0.0769230769230769
 40
0.0769230769230769
 40
0.0769230769230769
 40
0.1538461538461539
 40
0.1538461538461539
 40
0.1538461538461539
 40
0.1538461538461539
 40
0.2307692307692308
 40
0.2307692307692308
 40
0.2307692307692308
 40
0.2307692307692308
 40
0.3076923076923077
 40
0.3076923076923077
 40
0.3076923076923077
 40
0.3076923076923077
 40
0.3846153846153846
 40
0.3846153846153846
 40
0.3846153846153846
 40
0.3846153846153846
 40
0.4615384615384616
 40
0.4615384615384616
 40
0.4615384615384616
 40
0.4615384615384616
 40
0.5384615384615384
 40
0.5384615384615384
 40
0.5384615384615384
 40
0.5384615384615384
 40
0.6153846153846154
 40
0.6153846153846154
 40
0.6153846153846154
 40
0.6153846153846154
 40
0.6923076923076923
 40
0.6923076923076923
 40
0.6923076923076923
 40
0.6923076923076923
 40
0.7692307692307693
 40
0.7692307692307693
 40
0.7692307692307693
 40
0.7692307692307693
 40
0.8461538461538461
 40
0.8461538461538461
 40
0.8461538461538461
 40
0.8461538461538461
 40
1.0
 40
1.0
 40
1.0
 40
1.0
 10
-84.80233
 20
-6.38671
 30
0.0
 10
-84.80233
 20
-6.38671
 30
0.0
 10
-81.51094
 20
-6.38671
 30
0.0
 10
-81.51094
 20
-6.38671
 30
0.0
 10
-81.51094
 20
-6.38671
 30
0.0
 10
-81.51094
 20
-6.38671
 30
0.0
 10
-81.51094
 20
-1.446
 30
0.0
 10
-81.51094
 20
-1.446
 30
0.0
 10
-81.51094
 20
-1.446
 30
0.0
 10
-81.51094
 20
-1.446
 30
0.0
 10
-77.79343
 20
-1.446
 30
0.0
 10
-77.79343
 20
-1.446
 30
0.0
 10
-77.79343
 20
-1.446
 30
0.0
 10
-77.79343
 20
-1.446
 30
0.0
 10
-77.79343
 20
-6.38671
 30
0.0
 10
-77.79343
 20
-6.38671
 30
0.0
 10
-77.79343
 20
-6.38671
 30
0.0
 10
-77.79343
 20
-6.38671
 30
0.0
 10
-74.50204
 20
-6.38671
 30
0.0
 10
-74.50204
 20
-6.38671
 30
0.0
 10
-74.50204
 20
-6.38671
 30
0.0
 10
-74.50204
 20
-6.38671
 30
0.0
 10
-74.50204
 20
6.05846
 30
0.0
 10
-74.50204
 20
6.05846
 30
0.0
 10
-74.50204
 20
6.05846
 30
0.0
 10
-74.50204
 20
6.05846
 30
0.0
 10
-77.79343
 20
6.05846
 30
0.0
 10
-77.79343
 20
6.05846
 30
0.0
 10
-77.79343
 20
6.05846
 30
0.0
 10
-77.79343
 20
6.05846
 30
0.0
 10
-77.79343
 20
1.42401
 30
0.0
 10
-77.79343
 20
1.42401
 30
0.0
 10
-77.79343
 20
1.42401
 30
0.0
 10
-77.79343
 20
1.42401
 30
0.0
 10
-81.51094
 20
1.42401
 30
0.0
 10
-81.51094
 20
1.42401
 30
0.0
 10
-81.51094
 20
1.42401
 30
0.0
 10
-81.51094
 20
1.42401
 30
0.0
 10
-81.51094
 20
6.05846
 30
0.0
 10
-81.51094
 20
6.05846
 30
0.0
 10
-81.51094
 20
6.05846
 30
0.0
 10
-81.51094
 20
6.05846
 30
0.0
 10
-84.80233
 20
6.05846
 30
0.0
 10
-84.80233
 20
6.05846
 30
0.0
 10
-84.80233
 20
6.05846
 30
0.0
 10
-84.80233
 20
6.05846
 30
0.0
 10
-84.80233
 20
-6.38671
 30
0.0
 10
-84.80233
 20
-6.38671
 30
0.0
  0
SPLINE
  5
51
330
1F
100
AcDbEntity
  8
Layer 1
 62
   250
370
   100
100
AcDbSpline
210
0.0
220
0.0
230
1.0
 70
    11
 71
     3
 72
    20
 73
    16
 74
     0
 42
0.0000000001
 43
0.0000000001
 40
0.0
 40
0.0
 40
0.0
 40
0.0
 40
0.2
 40
0.2
 40
0.2
 40
0.2
 40
0.4
 40
0.4
 40
0.4
 40
0.4
 40
0.6
 40
0.6
 40
0.6
 40
0.6
 40
1.0
 40
1.0
 40
1.0
 40
1.0
 10
-66.07837
 20
-6.61651
 30
0.0
 10
-62.63137
 20
-6.61651
 30
0.0
 10
-60.29673
 20
-4.20519
 30
0.0
 10
-60.29673
 20
-0.10633
 30
0.0
 10
-60.29673
 20
-0.10633
 30
0.0
 10
-60.29673
 20
3.97352
 30
0.0
 10
-62.63137
 20
6.28826
 30
0.0
 10
-66.07837
 20
6.28826
 30
0.0
 10
-66.07837
 20
6.28826
 30
0.0
 10
-69.52628
 20
6.28826
 30
0.0
 10
-71.86092
 20
3.99184
 30
0.0
 10
-71.86092
 20
-0.10633
 30
0.0
 10
-71.86092
 20
-0.10633
 30
0.0
 10
-71.86092
 20
-4.20519
 30
0.0
 10
-69.52628
 20
-6.61651
 30
0.0
 10
-66.07837
 20
-6.61651
 30
0.0
  0
SPLINE
  5
52
330
1F
100
AcDbEntity
  8
Layer 1
 62
   250
370
   100
100
AcDbSpline
210
0.0
220
0.0
230
1.0
 70
    11
 71
     3
 72
    20
 73
    16
 74
     0
 42
0.0000000001
 43
0.0000000001
 40
0.0
 40
0.0
 40
0.0
 40
0.0
 40
0.2
 40
0.2
 40
0.2
 40
0.2
 40
0.4
 40
0.4
 40
0.4
 40
0.4
 40
0.6
 40
0.6
 40
0.6
 40
0.6
 40
1.0
 40
1.0
 40
1.0
 40
1.0
 10
-66.07837
 20
-3.78472
 30
0.0
 10
-67.57298
 20
-3.78472
 30
0.0
 10
-68.49285
 20
-2.36679
 30
0.0
 10
-68.49285
 20
-0.10633
 30
0.0
 10
-68.49285
 20
-0.10633
 30
0.0
 10
-68.49285
 20
2.15412
 30
0.0
 10
-67.57298
 20
3.45647
 30
0.0
 10
-66.07837
 20
3.45647
 30
0.0
 10
-66.07837
 20
3.45647
 30
0.0
 10
-64.58467
 20
3.45647
 30
0.0
 10
-63.66479
 20
2.15412
 30
0.0
 10
-63.66479
 20
-0.10633
 30
0.0
 10
-63.66479
 20
-0.10633
 30
0.0
 10
-63.66479
 20
-2.36679
 30
0.0
 10
-64.58467
 20
-3.78472
 30
0.0
 10
-66.07837
 20
-3.78472
 30
0.0
  0
SPLINE
  5
53
330
1F
100
AcDbEntity
  8
Layer 1
 62
   250
370
   100
100
AcDbSpline
210
0.0
220
0.0
230
1.0
 70
    11
 71
     3
 72
    24
 73
    20
 74
     0
 42
0.0000000001
 43
0.0000000001
 40
0.0
 40
0.0
 40
0.0
 40
0.0
 40
0.1666666666666667
 40
0.1666666666666667
 40
0.1666666666666667
 40
0.1666666666666667
 40
0.3333333333333333
 40
0.3333333333333333
 40
0.3333333333333333
 40
0.3333333333333333
 40
0.5
 40
0.5
 40
0.5
 40
0.5
 40
0.6666666666666666
 40
0.6666666666666666
 40
0.6666666666666666
 40
0.6666666666666666
 40
1.0
 40
1.0
 40
1.0
 40
1.0
 10
-54.3986
 20
3.45647
 30
0.0
 10
-54.3986
 20
3.45647
 30
0.0
 10
-53.21047
 20
3.45647
 30
0.0
 10
-53.21047
 20
3.45647
 30
0.0
 10
-53.21047
 20
3.45647
 30
0.0
 10
-51.90744
 20
3.45647
 30
0.0
 10
-51.21713
 20
3.11177
 30
0.0
 10
-51.21713
 20
2.03854
 30
0.0
 10
-51.21713
 20
2.03854
 30
0.0
 10
-51.21713
 20
0.96531
 30
0.0
 10
-51.90744
 20
0.38991
 30
0.0
 10
-53.21047
 20
0.38991
 30
0.0
 10
-53.21047
 20
0.38991
 30
0.0
 10
-53.21047
 20
0.38991
 30
0.0
 10
-54.3986
 20
0.38991
 30
0.0
 10
-54.3986
 20
0.38991
 30
0.0
 10
-54.3986
 20
0.38991
 30
0.0
 10
-54.3986
 20
0.38991
 30
0.0
 10
-54.3986
 20
3.45647
 30
0.0
 10
-54.3986
 20
3.45647
 30
0.0
  0
SPLINE
  5
54
330
1F
100
AcDbEntity
  8
Layer 1
 62
   250
370
   100
100
AcDbSpline
210
0.0
220
0.0
230
1.0
 70
    11
 71
     3
 72
    44
 73
    40
 74
     0
 42
0.0000000001
 43
0.0000000001
 40
0.0
 40
0.0
 40
0.0
 40
0.0
 40
0.0909090909090909
 40
0.0909090909090909
 40
0.0909090909090909
 40
0.0909090909090909
 40
0.1818181818181818
 40
0.1818181818181818
 40
0.1818181818181818
 40
0.1818181818181818
 40
0.2727272727272727
 40
0.2727272727272727
 40
0.2727272727272727
 40
0.2727272727272727
 40
0.3636363636363636
 40
0.3636363636363636
 40
0.3636363636363636
 40
0.3636363636363636
 40
0.4545454545454545
 40
0.4545454545454545
 40
0.4545454545454545
 40
0.4545454545454545
 40
0.5454545454545454
 40
0.5454545454545454
 40
0.5454545454545454
 40
0.5454545454545454
 40
0.6363636363636364
 40
0.6363636363636364
 40
0.6363636363636364
 40
0.6363636363636364
 40
0.7272727272727273
 40
0.7272727272727273
 40
0.7272727272727273
 40
0.7272727272727273
 40
0.8181818181818182
 40
0.8181818181818182
 40
0.8181818181818182
 40
0.8181818181818182
 40
1.0
 40
1.0
 40
1.0
 40
1.0
 10
-47.31302
 20
-6.38671
 30
0.0
 10
-47.31302
 20
-6.38671
 30
0.0
 10
-50.01159
 20
-1.56181
 30
0.0
 10
-50.01159
 20
-1.56181
 30
0.0
 10
-50.01159
 20
-1.56181
 30
0.0
 10
-48.80672
 20
-0.91063
 30
0.0
 10
-48.00242
 20
0.25601
 30
0.0
 10
-48.00242
 20
2.03854
 30
0.0
 10
-48.00242
 20
2.03854
 30
0.0
 10
-48.00242
 20
5.13994
 30
0.0
 10
-50.29884
 20
6.05846
 30
0.0
 10
-52.98067
 20
6.05846
 30
0.0
 10
-52.98067
 20
6.05846
 30
0.0
 10
-52.98067
 20
6.05846
 30
0.0
 10
-57.68999
 20
6.05846
 30
0.0
 10
-57.68999
 20
6.05846
 30
0.0
 10
-57.68999
 20
6.05846
 30
0.0
 10
-57.68999
 20
6.05846
 30
0.0
 10
-57.68999
 20
-6.38671
 30
0.0
 10
-57.68999
 20
-6.38671
 30
0.0
 10
-57.68999
 20
-6.38671
 30
0.0
 10
-57.68999
 20
-6.38671
 30
0.0
 10
-54.3986
 20
-6.38671
 30
0.0
 10
-54.3986
 20
-6.38671
 30
0.0
 10
-54.3986
 20
-6.38671
 30
0.0
 10
-54.3986
 20
-6.38671
 30
0.0
 10
-54.3986
 20
-2.21208
 30
0.0
 10
-54.3986
 20
-2.21208
 30
0.0
 10
-54.3986
 20
-2.21208
 30
0.0
 10
-54.3986
 20
-2.21208
 30
0.0
 10
-53.13379
 20
-2.21208
 30
0.0
 10
-53.13379
 20
-2.21208
 30
0.0
 10
-53.13379
 20
-2.21208
 30
0.0
 10
-53.13379
 20
-2.21208
 30
0.0
 10
-50.98824
 20
-6.38671
 30
0.0
 10
-50.98824
 20
-6.38671
 30
0.0
 10
-50.98824
 20
-6.38671
 30
0.0
 10
-50.98824
 20
-6.38671
 30
0.0
 10
-47.31302
 20
-6.38671
 30
0.0
 10
-47.31302
 20
-6.38671
 30
0.0
  0
SPLINE
  5
55
330
1F
100
AcDbEntity
  8
Layer 1
 62
   250
370
   100
100
AcDbSpline
210
0.0
220
0.0
230
1.0
 70
    11
 71
     3
 72
    44
 73
    40
 74
     0
 42
0.0000000001
 43
0.0000000001
 40
0.0
 40
0.0
 40
0.0
 40
0.0
 40
0.0909090909090909
 40
0.0909090909090909
 40
0.0909090909090909
 40
0.0909090909090909
 40
0.1818181818181818
 40
0.1818181818181818
 40
0.1818181818181818
 40
0.1818181818181818
 40
0.2727272727272727
 40
0.2727272727272727
 40
0.2727272727272727
 40
0.2727272727272727
 40
0.3636363636363636
 40
0.3636363636363636
 40
0.3636363636363636
 40
0.3636363636363636
 40
0.4545454545454545
 40
0.4545454545454545
 40
0.4545454545454545
 40
0.4545454545454545
 40
0.5454545454545454
 40
0.5454545454545454
 40
0.5454545454545454
 40
0.5454545454545454
 40
0.6363636363636364
 40
0.6363636363636364
 40
0.6363636363636364
 40
0.6363636363636364
 40
0.7272727272727273
 40
0.7272727272727273
 40
0.7272727272727273
 40
0.7272727272727273
 40
0.8181818181818182
 40
0.8181818181818182
 40
0.8181818181818182
 40
0.8181818181818182
 40
1.0
 40
1.0
 40
1.0
 40
1.0
 10
-43.13749
 20
-6.38671
 30
0.0
 10
-43.13749
 20
-6.38671
 30
0.0
 10
-39.15512
 20
-6.38671
 30
0.0
 10
-39.15512
 20
-6.38671
 30
0.0
 10
-39.15512
 20
-6.38671
 30
0.0
 10
-39.15512
 20
-6.38671
 30
0.0
 10
-35.47922
 20
6.05846
 30
0.0
 10
-35.47922
 20
6.05846
 30
0.0
 10
-35.47922
 20
6.05846
 30
0.0
 10
-35.47922
 20
6.05846
 30
0.0
 10
-38.84864
 20
6.05846
 30
0.0
 10
-38.84864
 20
6.05846
 30
0.0
 10
-38.84864
 20
6.05846
 30
0.0
 10
-38.84864
 20
6.05846
 30
0.0
 10
-40.11186
 20
0.62061
 30
0.0
 10
-40.11186
 20
0.62061
 30
0.0
 10
-40.11186
 20
0.62061
 30
0.0
 10
-40.43734
 20
-0.70164
 30
0.0
 10
-40.68636
 20
-1.98454
 30
0.0
 10
-41.03106
 20
-3.32512
 30
0.0
 10
-41.03106
 20
-3.32512
 30
0.0
 10
-41.03106
 20
-3.32512
 30
0.0
 10
-41.10751
 20
-3.32512
 30
0.0
 10
-41.10751
 20
-3.32512
 30
0.0
 10
-41.10751
 20
-3.32512
 30
0.0
 10
-41.45221
 20
-1.98454
 30
0.0
 10
-41.68201
 20
-0.70164
 30
0.0
 10
-42.02671
 20
0.61971
 30
0.0
 10
-42.02671
 20
0.61971
 30
0.0
 10
-42.02671
 20
0.61971
 30
0.0
 10
-43.32906
 20
6.05846
 30
0.0
 10
-43.32906
 20
6.05846
 30
0.0
 10
-43.32906
 20
6.05846
 30
0.0
 10
-43.32906
 20
6.05846
 30
0.0
 10
-46.81361
 20
6.05846
 30
0.0
 10
-46.81361
 20
6.05846
 30
0.0
 10
-46.81361
 20
6.05846
 30
0.0
 10
-46.81361
 20
6.05846
 30
0.0
 10
-43.13749
 20
-6.38671
 30
0.0
 10
-43.13749
 20
-6.38671
 30
0.0
  0
SPLINE
  5
56
330
1F
100
AcDbEntity
  8
Layer 1
 62
   250
370
   100
100
AcDbSpline
210
0.0
220
0.0
230
1.0
 70
    11
 71
     3
 72
    28
 73
    24
 74
     0
 42
0.0000000001
 43
0.0000000001
 40
0.0
 40
0.0
 40
0.0
 40
0.0
 40
0.1428571428571428
 40
0.1428571428571428
 40
0.1428571428571428
 40
0.1428571428571428
 40
0.2857142857142857
 40
0.2857142857142857
 40
0.2857142857142857
 40
0.2857142857142857
 40
0.4285714285714285
 40
0.4285714285714285
 40
0.4285714285714285
 40
0.4285714285714285
 40
0.5714285714285714
 40
0.5714285714285714
 40
0.5714285714285714
 40
0.5714285714285714
 40
0.7142857142857143
 40
0.7142857142857143
 40
0.7142857142857143
 40
0.7142857142857143
 40
1.0
 40
1.0
 40
1.0
 40
1.0
 10
-31.13202
 20
-1.19947
 30
0.0
 10
-31.13202
 20
-1.19947
 30
0.0
 10
-30.92144
 20
-0.33681
 30
0.0
 10
-30.92144
 20
-0.33681
 30
0.0
 10
-30.92144
 20
-0.33681
 30
0.0
 10
-30.61587
 20
0.85041
 30
0.0
 10
-30.3094
 20
2.34479
 30
0.0
 10
-30.04137
 20
3.6096
 30
0.0
 10
-30.04137
 20
3.6096
 30
0.0
 10
-30.04137
 20
3.6096
 30
0.0
 10
-29.9647
 20
3.6096
 30
0.0
 10
-29.9647
 20
3.6096
 30
0.0
 10
-29.9647
 20
3.6096
 30
0.0
 10
-29.65822
 20
2.36402
 30
0.0
 10
-29.35197
 20
0.85041
 30
0.0
 10
-29.04549
 20
-0.33681
 30
0.0
 10
-29.04549
 20
-0.33681
 30
0.0
 10
-29.04549
 20
-0.33681
 30
0.0
 10
-28.83492
 20
-1.19947
 30
0.0
 10
-28.83492
 20
-1.19947
 30
0.0
 10
-28.83492
 20
-1.19947
 30
0.0
 10
-28.83492
 20
-1.19947
 30
0.0
 10
-31.13202
 20
-1.19947
 30
0.0
 10
-31.13202
 20
-1.19947
 30
0.0
  0
SPLINE
  5
57
330
1F
100
AcDbEntity
  8
Layer 1
 62
   250
370
   100
100
AcDbSpline
210
0.0
220
0.0
230
1.0
 70
    11
 71
     3
 72
    36
 73
    32
 74
     0
 42
0.0000000001
 43
0.0000000001
 40
0.0
 40
0.0
 40
0.0
 40
0.0
 40
0.1111111111111111
 40
0.1111111111111111
 40
0.1111111111111111
 40
0.1111111111111111
 40
0.2222222222222222
 40
0.2222222222222222
 40
0.2222222222222222
 40
0.2222222222222222
 40
0.3333333333333333
 40
0.3333333333333333
 40
0.3333333333333333
 40
0.3333333333333333
 40
0.4444444444444444
 40
0.4444444444444444
 40
0.4444444444444444
 40
0.4444444444444444
 40
0.5555555555555556
 40
0.5555555555555556
 40
0.5555555555555556
 40
0.5555555555555556
 40
0.6666666666666666
 40
0.6666666666666666
 40
0.6666666666666666
 40
0.6666666666666666
 40
0.7777777777777778
 40
0.7777777777777778
 40
0.7777777777777778
 40
0.7777777777777778
 40
1.0
 40
1.0
 40
1.0
 40
1.0
 10
-27.62847
 20
-6.38671
 30
0.0
 10
-27.62847
 20
-6.38671
 30
0.0
 10
-24.14392
 20
-6.38671
 30
0.0
 10
-24.14392
 20
-6.38671
 30
0.0
 10
-24.14392
 20
-6.38671
 30
0.0
 10
-24.14392
 20
-6.38671
 30
0.0
 10
-27.93472
 20
6.05846
 30
0.0
 10
-27.93472
 20
6.05846
 30
0.0
 10
-27.93472
 20
6.05846
 30
0.0
 10
-27.93472
 20
6.05846
 30
0.0
 10
-31.91732
 20
6.05846
 30
0.0
 10
-31.91732
 20
6.05846
 30
0.0
 10
-31.91732
 20
6.05846
 30
0.0
 10
-31.91732
 20
6.05846
 30
0.0
 10
-35.70811
 20
-6.38671
 30
0.0
 10
-35.70811
 20
-6.38671
 30
0.0
 10
-35.70811
 20
-6.38671
 30
0.0
 10
-35.70811
 20
-6.38671
 30
0.0
 10
-32.33847
 20
-6.38671
 30
0.0
 10
-32.33847
 20
-6.38671
 30
0.0
 10
-32.33847
 20
-6.38671
 30
0.0
 10
-32.33847
 20
-6.38671
 30
0.0
 10
-31.72574
 20
-3.74401
 30
0.0
 10
-31.72574
 20
-3.74401
 30
0.0
 10
-31.72574
 20
-3.74401
 30
0.0
 10
-31.72574
 20
-3.74401
 30
0.0
 10
-28.24119
 20
-3.74401
 30
0.0
 10
-28.24119
 20
-3.74401
 30
0.0
 10
-28.24119
 20
-3.74401
 30
0.0
 10
-28.24119
 20
-3.74401
 30
0.0
 10
-27.62847
 20
-6.38671
 30
0.0
 10
-27.62847
 20
-6.38671
 30
0.0
  0
SPLINE
  5
58
330
1F
100
AcDbEntity
  8
Layer 1
 62
   250
370
   100
100
AcDbSpline
210
0.0
220
0.0
230
1.0
 70
    11
 71
     3
 72
    36
 73
    32
 74
     0
 42
0.0000000001
 43
0.0000000001
 40
0.0
 40
0.0
 40
0.0
 40
0.0
 40
0.1111111111111111
 40
0.1111111111111111
 40
0.1111111111111111
 40
0.1111111111111111
 40
0.2222222222222222
 40
0.2222222222222222
 40
0.2222222222222222
 40
0.2222222222222222
 40
0.3333333333333333
 40
0.3333333333333333
 40
0.3333333333333333
 40
0.3333333333333333
 40
0.4444444444444444
 40
0.4444444444444444
 40
0.4444444444444444
 40
0.4444444444444444
 40
0.5555555555555556
 40
0.5555555555555556
 40
0.5555555555555556
 40
0.5555555555555556
 40
0.6666666666666666
 40
0.6666666666666666
 40
0.6666666666666666
 40
0.6666666666666666
 40
0.7777777777777778
 40
0.7777777777777778
 40
0.7777777777777778
 40
0.7777777777777778
 40
1.0
 40
1.0
 40
1.0
 40
1.0
 10
-20.94753
 20
-6.38671
 30
0.0
 10
-20.94753
 20
-6.38671
 30
0.0
 10
-17.65614
 20
-6.38671
 30
0.0
 10
-17.65614
 20
-6.38671
 30
0.0
 10
-17.65614
 20
-6.38671
 30
0.0
 10
-17.65614
 20
-6.38671
 30
0.0
 10
-17.65614
 20
3.30312
 30
0.0
 10
-17.65614
 20
3.30312
 30
0.0
 10
-17.65614
 20
3.30312
 30
0.0
 10
-17.65614
 20
3.30312
 30
0.0
 10
-14.36226
 20
3.30312
 30
0.0
 10
-14.36226
 20
3.30312
 30
0.0
 10
-14.36226
 20
3.30312
 30
0.0
 10
-14.36226
 20
3.30312
 30
0.0
 10
-14.36226
 20
6.05846
 30
0.0
 10
-14.36226
 20
6.05846
 30
0.0
 10
-14.36226
 20
6.05846
 30
0.0
 10
-14.36226
 20
6.05846
 30
0.0
 10
-24.24118
 20
6.05846
 30
0.0
 10
-24.24118
 20
6.05846
 30
0.0
 10
-24.24118
 20
6.05846
 30
0.0
 10
-24.24118
 20
6.05846
 30
0.0
 10
-24.24118
 20
3.30312
 30
0.0
 10
-24.24118
 20
3.30312
 30
0.0
 10
-24.24118
 20
3.30312
 30
0.0
 10
-24.24118
 20
3.30312
 30
0.0
 10
-20.94753
 20
3.30312
 30
0.0
 10
-20.94753
 20
3.30312
 30
0.0
 10
-20.94753
 20
3.30312
 30
0.0
 10
-20.94753
 20
3.30312
 30
0.0
 10
-20.94753
 20
-6.38671
 30
0.0
 10
-20.94753
 20
-6.38671
 30
0.0
  0
SPLINE
  5
59
330
1F
100
AcDbEntity
  8
Layer 1
 62
   250
370
   100
100
AcDbSpline
210
0.0
220
0.0
230
1.0
 70
    11
 71
     3
 72
    28
 73
    24
 74
     0
 42
0.0000000001
 43
0.0000000001
 40
0.0
 40
0.0
 40
0.0
 40
0.0
 40
0.1428571428571428
 40
0.1428571428571428
 40
0.1428571428571428
 40
0.1428571428571428
 40
0.2857142857142857
 40
0.2857142857142857
 40
0.2857142857142857
 40
0.2857142857142857
 40
0.4285714285714285
 40
0.4285714285714285
 40
0.4285714285714285
 40
0.4285714285714285
 40
0.5714285714285714
 40
0.5714285714285714
 40
0.5714285714285714
 40
0.5714285714285714
 40
0.7142857142857143
 40
0.7142857142857143
 40
0.7142857142857143
 40
0.7142857142857143
 40
1.0
 40
1.0
 40
1.0
 40
1.0
 10
-96.94085
 20
4.47257
 30
0.0
 10
-96.94085
 20
4.47257
 30
0.0
 10
-110.5134
 20
4.47257
 30
0.0
 10
-110.5134
 20
4.47257
 30
0.0
 10
-110.5134
 20
4.47257
 30
0.0
 10
-110.90902
 20
4.47257
 30
0.0
 10
-111.22945
 20
4.793
 30
0.0
 10
-111.22945
 20
5.18862
 30
0.0
 10
-111.22945
 20
5.18862
 30
0.0
 10
-111.22945
 20
5.58415
 30
0.0
 10
-110.90902
 20
5.90459
 30
0.0
 10
-110.5134
 20
5.90459
 30
0.0
 10
-110.5134
 20
5.90459
 30
0.0
 10
-110.5134
 20
5.90459
 30
0.0
 10
-96.94085
 20
5.90459
 30
0.0
 10
-96.94085
 20
5.90459
 30
0.0
 10
-96.94085
 20
5.90459
 30
0.0
 10
-96.54557
 20
5.90459
 30
0.0
 10
-96.2248
 20
5.58415
 30
0.0
 10
-96.2248
 20
5.18862
 30
0.0
 10
-96.2248
 20
5.18862
 30
0.0
 10
-96.2248
 20
4.793
 30
0.0
 10
-96.54557
 20
4.47257
 30
0.0
 10
-96.94085
 20
4.47257
 30
0.0
  0
SPLINE
  5
5A
330
1F
100
AcDbEntity
  8
Layer 1
 62
   250
370
   100
100
AcDbSpline
210
0.0
220
0.0
230
1.0
 70
    11
 71
     3
 72
    36
 73
    32
 74
     0
 42
0.0000000001
 43
0.0000000001
 40
0.0
 40
0.0
 40
0.0
 40
0.0
 40
0.1111111111111111
 40
0.1111111111111111
 40
0.1111111111111111
 40
0.1111111111111111
 40
0.2222222222222222
 40
0.2222222222222222
 40
0.2222222222222222
 40
0.2222222222222222
 40
0.3333333333333333
 40
0.3333333333333333
 40
0.3333333333333333
 40
0.3333333333333333
 40
0.4444444444444444
 40
0.4444444444444444
 40
0.4444444444444444
 40
0.4444444444444444
 40
0.5555555555555556
 40
0.5555555555555556
 40
0.5555555555555556
 40
0.5555555555555556
 40
0.6666666666666666
 40
0.6666666666666666
 40
0.6666666666666666
 40
0.6666666666666666
 40
0.7777777777777778
 40
0.7777777777777778
 40
0.7777777777777778
 40
0.7777777777777778
 40
1.0
 40
1.0
 40
1.0
 40
1.0
 10
-97.00377
 20
-6.60119
 30
0.0
 10
-97.00377
 20
-6.60119
 30
0.0
 10
-110.45073
 20
-6.60119
 30
0.0
 10
-110.45073
 20
-6.60119
 30
0.0
 10
-110.45073
 20
-6.60119
 30
0.0
 10
-110.72761
 20
-6.60119
 30
0.0
 10
-110.97938
 20
-6.44186
 30
0.0
 10
-111.09786
 20
-6.19153
 30
0.0
 10
-111.09786
 20
-6.19153
 30
0.0
 10
-111.21626
 20
-5.94121
 30
0.0
 10
-111.17989
 20
-5.64496
 30
0.0
 10
-111.0045
 20
-5.43108
 30
0.0
 10
-111.0045
 20
-5.43108
 30
0.0
 10
-111.0045
 20
-5.43108
 30
0.0
 10
-104.28068
 20
2.76146
 30
0.0
 10
-104.28068
 20
2.76146
 30
0.0
 10
-104.28068
 20
2.76146
 30
0.0
 10
-104.00921
 20
3.09289
 30
0.0
 10
-103.4453
 20
3.09289
 30
0.0
 10
-103.17383
 20
2.76146
 30
0.0
 10
-103.17383
 20
2.76146
 30
0.0
 10
-103.17383
 20
2.76146
 30
0.0
 10
-96.45035
 20
-5.43108
 30
0.0
 10
-96.45035
 20
-5.43108
 30
0.0
 10
-96.45035
 20
-5.43108
 30
0.0
 10
-96.27461
 20
-5.64496
 30
0.0
 10
-96.23825
 20
-5.94121
 30
0.0
 10
-96.35639
 20
-6.19153
 30
0.0
 10
-96.35639
 20
-6.19153
 30
0.0
 10
-96.47479
 20
-6.44186
 30
0.0
 10
-96.72689
 20
-6.60119
 30
0.0
 10
-97.00377
 20
-6.60119
 30
0.0
  0
SPLINE
  5
5B
330
1F
100
AcDbEntity
  8
Layer 1
 62
   250
370
   100
100
AcDbSpline
210
0.0
220
0.0
230
1.0
 70
    11
 71
     3
 72
    60
 73
    56
 74
     0
 42
0.0000000001
 43
0.0000000001
 40
0.0
 40
0.0
 40
0.0
 40
0.0
 40
0.0666666666666667
 40
0.0666666666666667
 40
0.0666666666666667
 40
0.0666666666666667
 40
0.1333333333333333
 40
0.1333333333333333
 40
0.1333333333333333
 40
0.1333333333333333
 40
0.2
 40
0.2
 40
0.2
 40
0.2
 40
0.2666666666666667
 40
0.2666666666666667
 40
0.2666666666666667
 40
0.2666666666666667
 40
0.3333333333333333
 40
0.3333333333333333
 40
0.3333333333333333
 40
0.3333333333333333
 40
0.4
 40
0.4
 40
0.4
 40
0.4
 40
0.4666666666666667
 40
0.4666666666666667
 40
0.4666666666666667
 40
0.4666666666666667
 40
0.5333333333333333
 40
0.5333333333333333
 40
0.5333333333333333
 40
0.5333333333333333
 40
0.6
 40
0.6
 40
0.6
 40
0.6
 40
0.6666666666666666
 40
0.6666666666666666
 40
0.6666666666666666
 40
0.6666666666666666
 40
0.7333333333333333
 40
0.7333333333333333
 40
0.7333333333333333
 40
0.7333333333333333
 40
0.8
 40
0.8
 40
0.8
 40
0.8
 40
0.8666666666666667
 40
0.8666666666666667
 40
0.8666666666666667
 40
0.8666666666666667
 40
1.0
 40
1.0
 40
1.0
 40
1.0
 10
-103.94629
 20
-15.0
 30
0.0
 10
-112.2218
 20
-15.0
 30
0.0
 10
-118.95424
 20
-8.26722
 30
0.0
 10
-118.95424
 20
0.00854
 30
0.0
 10
-118.95424
 20
0.00854
 30
0.0
 10
-118.95424
 20
7.63624
 30
0.0
 10
-113.24839
 20
14.04529
 30
0.0
 10
-105.68175
 20
14.91704
 30
0.0
 10
-105.68175
 20
14.91704
 30
0.0
 10
-105.055
 20
14.98926
 30
0.0
 10
-104.33599
 20
15.0
 30
0.0
 10
-103.96363
 20
15.0
 30
0.0
 10
-103.96363
 20
15.0
 30
0.0
 10
-103.5686
 20
15.0
 30
0.0
 10
-103.2485
 20
14.6805
 30
0.0
 10
-103.24757
 20
14.28572
 30
0.0
 10
-103.24757
 20
14.28572
 30
0.0
 10
-103.24757
 20
14.28572
 30
0.0
 10
-103.23057
 20
7.90213
 30
0.0
 10
-103.23057
 20
7.90213
 30
0.0
 10
-103.23057
 20
7.90213
 30
0.0
 10
-103.22973
 20
7.50651
 30
0.0
 10
-103.54949
 20
7.18515
 30
0.0
 10
-103.94485
 20
7.1843
 30
0.0
 10
-103.94485
 20
7.1843
 30
0.0
 10
-103.94485
 20
7.1843
 30
0.0
 10
-103.94663
 20
7.1843
 30
0.0
 10
-103.94663
 20
7.1843
 30
0.0
 10
-103.94663
 20
7.1843
 30
0.0
 10
-104.34165
 20
7.1843
 30
0.0
 10
-104.66175
 20
7.50347
 30
0.0
 10
-104.6626
 20
7.89849
 30
0.0
 10
-104.6626
 20
7.89849
 30
0.0
 10
-104.6626
 20
7.89849
 30
0.0
 10
-104.67782
 20
13.55419
 30
0.0
 10
-104.67782
 20
13.55419
 30
0.0
 10
-104.67782
 20
13.55419
 30
0.0
 10
-104.94937
 20
13.54379
 30
0.0
 10
-105.24562
 20
13.52561
 30
0.0
 10
-105.51768
 20
13.49423
 30
0.0
 10
-105.51768
 20
13.49423
 30
0.0
 10
-112.36142
 20
12.70604
 30
0.0
 10
-117.52213
 20
6.9086
 30
0.0
 10
-117.52213
 20
0.00854
 30
0.0
 10
-117.52213
 20
0.00854
 30
0.0
 10
-117.52213
 20
-7.4775
 30
0.0
 10
-111.43208
 20
-13.56789
 30
0.0
 10
-103.94629
 20
-13.56789
 30
0.0
 10
-103.94629
 20
-13.56789
 30
0.0
 10
-103.55101
 20
-13.56789
 30
0.0
 10
-103.23032
 20
-13.88867
 30
0.0
 10
-103.23032
 20
-14.28395
 30
0.0
 10
-103.23032
 20
-14.28395
 30
0.0
 10
-103.23032
 20
-14.67923
 30
0.0
 10
-103.55101
 20
-15.0
 30
0.0
 10
-103.94629
 20
-15.0
 30
0.0
  0
ENDSEC
  0
SECTION
  2
OBJECTS
  0
DICTIONARY
  5
C
330
0
100
AcDbDictionary
281
     1
  3
ACAD_GROUP
350
D
  3
ACAD_LAYOUT
350
1A
  3
ACAD_MATERIAL
350
3B
  3
ACAD_MLEADERSTYLE
350
7D
  3
ACAD_MLINESTYLE
350
17
  3
ACAD_PLOTSETTINGS
350
19
  3
ACAD_PLOTSTYLENAME
350
E
  3
ACAD_TABLESTYLE
350
7C
  3
ACAD_VISUALSTYLE
350
2A
  0
DICTIONARY
  5
D
102
{ACAD_REACTORS
330
C
102
}
330
C
100
AcDbDictionary
281
     1
  0
DICTIONARY
  5
1A
102
{ACAD_REACTORS
330
C
102
}
330
C
100
AcDbDictionary
281
     1
  3
Layout1
350
1E
  3
Layout2
350
26
  3
Model
350
22
  0
DICTIONARY
  5
3B
102
{ACAD_REACTORS
330
C
102
}
330
C
100
AcDbDictionary
281
     1
  3
ByBlock
350
3D
  3
ByLayer
350
3C
  3
Global
350
3E
  0
DICTIONARY
  5
7D
102
{ACAD_REACTORS
330
C
102
}
330
C
100
AcDbDictionary
281
     1
  0
DICTIONARY
  5
17
102
{ACAD_REACTORS
330
C
102
}
330
C
100
AcDbDictionary
281
     1
  3
Standard
350
18
  0
DICTIONARY
  5
19
102
{ACAD_REACTORS
330
C
102
}
330
C
100
AcDbDictionary
281
     1
  0
ACDBDICTIONARYWDFLT
  5
E
102
{ACAD_REACTORS
330
C
102
}
330
C
100
AcDbDictionary
281
     1
  3
Normal
350
F
100
AcDbDictionaryWithDefault
340
F
  0
DICTIONARY
  5
7C
102
{ACAD_REACTORS
330
C
102
}
330
C
100
AcDbDictionary
281
     1
  0
DICTIONARY
  5
2A
102
{ACAD_REACTORS
330
C
102
}
330
C
100
AcDbDictionary
281
     1
  3
2dWireframe
350
2F
  3
3D Hidden
350
31
  3
3dWireframe
350
30
  3
Basic
350
32
  3
Brighten
350
36
  3
ColorChange
350
3A
  3
Conceptual
350
34
  3
Dim
350
35
  3
Facepattern
350
39
  3
Flat
350
2B
  3
FlatWithEdges
350
2C
  3
Gouraud
350
2D
  3
GouraudWithEdges
350
2E
  3
Linepattern
350
38
  3
Realistic
350
33
  3
Thicken
350
37
  0
LAYOUT
  5
1E
102
{ACAD_REACTORS
330
1A
102
}
330
1A
100
AcDbPlotSettings
  1

  2
none_device
  4

  6

 40
0.0
 41
0.0
 42
0.0
 43
0.0
 44
0.0
 45
0.0
 46
0.0
 47
0.0
 48
0.0
 49
0.0
140
0.0
141
0.0
142
1.0
143
1.0
 70
   688
 72
     0
 73
     0
 74
     5
  7

 75
    16
 76
     0
 77
     2
 78
   300
147
1.0
148
0.0
149
0.0
100
AcDbLayout
  1
Layout1
 70
     1
 71
     1
 10
0.0
 20
0.0
 11
12.0
 21
9.0
 12
0.0
 22
0.0
 32
0.0
 14
1.000000000000000E+20
 24
1.000000000000000E+20
 34
1.000000000000000E+20
 15
-1.000000000000000E+20
 25
-1.000000000000000E+20
 35
-1.000000000000000E+20
146
0.0
 13
0.0
 23
0.0
 33
0.0
 16
1.0
 26
0.0
 36
0.0
 17
0.0
 27
1.0
 37
0.0
 76
     0
330
1B
  0
LAYOUT
  5
26
102
{ACAD_REACTORS
330
1A
102
}
330
1A
100
AcDbPlotSettings
  1

  2
none_device
  4

  6

 40
0.0
 41
0.0
 42
0.0
 43
0.0
 44
0.0
 45
0.0
 46
0.0
 47
0.0
 48
0.0
 49
0.0
140
0.0
141
0.0
142
1.0
143
1.0
 70
   688
 72
     0
 73
     0
 74
     5
  7

 75
    16
 76
     0
 77
     2
 78
   300
147
1.0
148
0.0
149
0.0
100
AcDbLayout
  1
Layout2
 70
     1
 71
     2
 10
0.0
 20
0.0
 11
0.0
 21
0.0
 12
0.0
 22
0.0
 32
0.0
 14
0.0
 24
0.0
 34
0.0
 15
0.0
 25
0.0
 35
0.0
146
0.0
 13
0.0
 23
0.0
 33
0.0
 16
1.0
 26
0.0
 36
0.0
 17
0.0
 27
1.0
 37
0.0
 76
     0
330
23
  0
LAYOUT
  5
22
102
{ACAD_REACTORS
330
1A
102
}
330
1A
100
AcDbPlotSettings
  1

  2
none_device
  4

  6

 40
0.0
 41
0.0
 42
0.0
 43
0.0
 44
0.0
 45
0.0
 46
0.0
 47
0.0
 48
0.0
 49
0.0
140
0.0
141
0.0
142
1.0
143
1.0
 70
  1712
 72
     0
 73
     0
 74
     0
  7

 75
     0
 76
     0
 77
     2
 78
   300
147
1.0
148
0.0
149
0.0
100
AcDbLayout
  1
Model
 70
     1
 71
     0
 10
0.0
 20
0.0
 11
12.0
 21
9.0
 12
0.0
 22
0.0
 32
0.0
 14
-149.01
 24
-18.01
 34
0.0
 15
149.01
 25
18.01
 35
0.0
146
0.0
 13
0.0
 23
0.0
 33
0.0
 16
1.0
 26
0.0
 36
0.0
 17
0.0
 27
1.0
 37
0.0
 76
     0
330
1F
331
29
  0
MATERIAL
  5
3D
102
{ACAD_REACTORS
330
3B
102
}
330
3B
100
AcDbMaterial
  1
ByBlock
 72
     1
 94
      127
  0
MATERIAL
  5
3C
102
{ACAD_REACTORS
330
3B
102
}
330
3B
100
AcDbMaterial
  1
ByLayer
 72
     1
 94
      127
  0
MATERIAL
  5
3E
102
{ACAD_REACTORS
330
3B
102
}
330
3B
100
AcDbMaterial
  1
Global
 72
     1
 94
      127
  0
MLINESTYLE
  5
18
102
{ACAD_REACTORS
330
17
102
}
330
17
100
AcDbMlineStyle
  2
Standard
 70
     0
  3

 62
   256
 51
90.0
 52
90.0
 71
     2
 49
0.5
 62
   256
  6
BYLAYER
 49
-0.5
 62
   256
  6
BYLAYER
  0
ACDBPLACEHOLDER
  5
F
102
{ACAD_REACTORS
330
E
102
}
330
E
  0
VISUALSTYLE
  5
2F
102
{ACAD_REACTORS
330
2A
102
}
102
{ACAD_XDICTIONARY
360
64
102
}
330
2A
100
AcDbVisualStyle
  2
2dWireframe
 70
     4
 71
     0
 72
     2
 73
     0
 90
        0
 40
-0.6
 41
-30.0
 62
     5
 63
     7
421
 16777215
 74
     1
 91
        4
 64
     7
 65
   257
 75
     1
175
     1
 42
1.0
 92
        0
 66
   257
 43
1.0
 76
     1
 77
     6
 78
     2
 67
     7
 79
     5
170
     0
171
     0
290
     0
174
     0
 93
        1
 44
0.0
173
     0
291
     0
 45
0.0
  0
VISUALSTYLE
  5
31
102
{ACAD_REACTORS
330
2A
102
}
102
{ACAD_XDICTIONARY
360
68
102
}
330
2A
100
AcDbVisualStyle
  2
3D Hidden
 70
     6
 71
     1
 72
     2
 73
     2
 90
        0
 40
-0.6
 41
-30.0
 62
     5
 63
     7
421
 16777215
 74
     2
 91
        2
 64
     7
 65
   257
 75
     2
175
     1
 42
40.0
 92
        0
 66
   257
 43
1.0
 76
     1
 77
     6
 78
     2
 67
     7
 79
     3
170
     0
171
     0
290
     0
174
     0
 93
        1
 44
0.0
173
     0
291
     0
 45
0.0
  0
VISUALSTYLE
  5
30
102
{ACAD_REACTORS
330
2A
102
}
102
{ACAD_XDICTIONARY
360
66
102
}
330
2A
100
AcDbVisualStyle
  2
3dWireframe
 70
     5
 71
     0
 72
     2
 73
     0
 90
        0
 40
-0.6
 41
-30.0
 62
     5
 63
     7
421
 16777215
 74
     1
 91
        4
 64
     7
 65
   257
 75
     1
175
     1
 42
1.0
 92
        0
 66
   257
 43
1.0
 76
     1
 77
     6
 78
     2
 67
     7
 79
     5
170
     0
171
     0
290
     0
174
     0
 93
        1
 44
0.0
173
     0
291
     0
 45
0.0
  0
VISUALSTYLE
  5
32
102
{ACAD_REACTORS
330
2A
102
}
102
{ACAD_XDICTIONARY
360
6A
102
}
330
2A
100
AcDbVisualStyle
  2
Basic
 70
     7
 71
     1
 72
     0
 73
     1
 90
        0
 40
-0.6
 41
-30.0
 62
     5
 63
     7
421
 16777215
 74
     0
 91
        4
 64
     7
 65
   257
 75
     1
175
     1
 42
1.0
 92
        8
 66
     7
 43
1.0
 76
     1
 77
     6
 78
     2
 67
     7
 79
     5
170
     0
171
     0
290
     0
174
     0
 93
        1
 44
0.0
173
     0
291
     1
 45
0.0
  0
VISUALSTYLE
  5
36
102
{ACAD_REACTORS
330
2A
102
}
102
{ACAD_XDICTIONARY
360
72
102
}
330
2A
100
AcDbVisualStyle
  2
Brighten
 70
    12
 71
     2
 72
     2
 73
     0
 90
        0
 40
-0.6
 41
-30.0
 62
     5
 63
     7
421
 16777215
 74
     1
 91
        4
 64
     7
 65
   257
 75
     1
175
     1
 42
1.0
 92
        8
 66
     7
 43
1.0
 76
     1
 77
     6
 78
     2
 67
     7
 79
     5
170
     0
171
     0
290
     0
174
     0
 93
        1
 44
50.0
173
     0
291
     1
 45
0.0
  0
VISUALSTYLE
  5
3A
102
{ACAD_REACTORS
330
2A
102
}
102
{ACAD_XDICTIONARY
360
7A
102
}
330
2A
100
AcDbVisualStyle
  2
ColorChange
 70
    16
 71
     2
 72
     2
 73
     3
 90
        0
 40
-0.6
 41
-30.0
 62
     5
 63
     8
421
  8421504
 74
     1
 91
        4
 64
     7
 65
   257
 75
     1
175
     1
 42
1.0
 92
        8
 66
     8
424
  8421504
 43
1.0
 76
     1
 77
     6
 78
     2
 67
     7
 79
     5
170
     0
171
     0
290
     0
174
     0
 93
        1
 44
0.0
173
     0
291
     1
 45
0.0
  0
VISUALSTYLE
  5
34
102
{ACAD_REACTORS
330
2A
102
}
102
{ACAD_XDICTIONARY
360
6E
102
}
330
2A
100
AcDbVisualStyle
  2
Conceptual
 70
     9
 71
     3
 72
     2
 73
     0
 90
        0
 40
-0.6
 41
-30.0
 62
     5
 63
     7
421
 16777215
 74
     2
 91
        2
 64
     7
 65
   257
 75
     1
175
     1
 42
40.0
 92
        8
 66
     7
 43
1.0
 76
     1
 77
     6
 78
     2
 67
     7
 79
     3
170
     0
171
     0
290
     0
174
     0
 93
        1
 44
0.0
173
     0
291
     0
 45
0.0
  0
VISUALSTYLE
  5
35
102
{ACAD_REACTORS
330
2A
102
}
102
{ACAD_XDICTIONARY
360
70
102
}
330
2A
100
AcDbVisualStyle
  2
Dim
 70
    11
 71
     2
 72
     2
 73
     0
 90
        0
 40
-0.6
 41
-30.0
 62
     5
 63
     7
421
 16777215
 74
     1
 91
        4
 64
     7
 65
   257
 75
     1
175
     1
 42
1.0
 92
        8
 66
     7
 43
1.0
 76
     1
 77
     6
 78
     2
 67
     7
 79
     5
170
     0
171
     0
290
     0
174
     0
 93
        1
 44
-50.0
173
     0
291
     1
 45
0.0
  0
VISUALSTYLE
  5
39
102
{ACAD_REACTORS
330
2A
102
}
102
{ACAD_XDICTIONARY
360
78
102
}
330
2A
100
AcDbVisualStyle
  2
Facepattern
 70
    15
 71
     2
 72
     2
 73
     0
 90
        0
 40
-0.6
 41
-30.0
 62
     5
 63
     7
421
 16777215
 74
     1
 91
        4
 64
     7
 65
   257
 75
     1
175
     1
 42
1.0
 92
        8
 66
     7
 43
1.0
 76
     1
 77
     6
 78
     2
 67
     7
 79
     5
170
     0
171
     0
290
     0
174
     0
 93
        1
 44
0.0
173
     0
291
     1
 45
0.0
  0
VISUALSTYLE
  5
2B
102
{ACAD_REACTORS
330
2A
102
}
102
{ACAD_XDICTIONARY
360
5C
102
}
330
2A
100
AcDbVisualStyle
  2
Flat
 70
     0
 71
     2
 72
     1
 73
     1
 90
        2
 40
-0.6
 41
30.0
 62
     5
 63
     7
421
 16777215
 74
     0
 91
        4
 64
     7
 65
   257
 75
     1
175
     1
 42
1.0
 92
        8
 66
     7
 43
1.0
 76
     1
 77
     6
 78
     2
 67
     7
 79
     5
170
     0
171
     0
290
     0
174
     0
 93
       13
 44
0.0
173
     0
291
     1
 45
0.0
  0
VISUALSTYLE
  5
2C
102
{ACAD_REACTORS
330
2A
102
}
102
{ACAD_XDICTIONARY
360
5E
102
}
330
2A
100
AcDbVisualStyle
  2
FlatWithEdges
 70
     1
 71
     2
 72
     1
 73
     1
 90
        2
 40
-0.6
 41
30.0
 62
     5
 63
     7
421
 16777215
 74
     1
 91
        4
 64
     7
 65
   257
 75
     1
175
     1
 42
1.0
 92
        0
 66
   257
 43
1.0
 76
     1
 77
     6
 78
     2
 67
     7
 79
     5
170
     0
171
     0
290
     0
174
     0
 93
       13
 44
0.0
173
     0
291
     1
 45
0.0
  0
VISUALSTYLE
  5
2D
102
{ACAD_REACTORS
330
2A
102
}
102
{ACAD_XDICTIONARY
360
60
102
}
330
2A
100
AcDbVisualStyle
  2
Gouraud
 70
     2
 71
     2
 72
     2
 73
     1
 90
        2
 40
-0.6
 41
30.0
 62
     5
 63
     7
421
 16777215
 74
     0
 91
        4
 64
     7
 65
   257
 75
     1
175
     1
 42
1.0
 92
        0
 66
     7
 43
1.0
 76
     1
 77
     6
 78
     2
 67
     7
 79
     5
170
     0
171
     0
290
     0
174
     0
 93
       13
 44
0.0
173
     0
291
     1
 45
0.0
  0
VISUALSTYLE
  5
2E
102
{ACAD_REACTORS
330
2A
102
}
102
{ACAD_XDICTIONARY
360
62
102
}
330
2A
100
AcDbVisualStyle
  2
GouraudWithEdges
 70
     3
 71
     2
 72
     2
 73
     1
 90
        2
 40
-0.6
 41
30.0
 62
     5
 63
     7
421
 16777215
 74
     1
 91
        4
 64
     7
 65
   257
 75
     1
175
     1
 42
1.0
 92
        0
 66
   257
 43
1.0
 76
     1
 77
     6
 78
     2
 67
     7
 79
     5
170
     0
171
     0
290
     0
174
     0
 93
       13
 44
0.0
173
     0
291
     1
 45
0.0
  0
VISUALSTYLE
  5
38
102
{ACAD_REACTORS
330
2A
102
}
102
{ACAD_XDICTIONARY
360
76
102
}
330
2A
100
AcDbVisualStyle
  2
Linepattern
 70
    14
 71
     2
 72
     2
 73
     0
 90
        0
 40
-0.6
 41
-30.0
 62
     5
 63
     7
421
 16777215
 74
     1
 91
        4
 64
     7
 65
   257
 75
     7
175
     7
 42
1.0
 92
        8
 66
     7
 43
1.0
 76
     1
 77
     6
 78
     2
 67
     7
 79
     5
170
     0
171
     0
290
     0
174
     0
 93
        1
 44
0.0
173
     0
291
     1
 45
0.0
  0
VISUALSTYLE
  5
33
102
{ACAD_REACTORS
330
2A
102
}
102
{ACAD_XDICTIONARY
360
6C
102
}
330
2A
100
AcDbVisualStyle
  2
Realistic
 70
     8
 71
     2
 72
     2
 73
     0
 90
        0
 40
-0.6
 41
-30.0
 62
     5
 63
     7
421
 16777215
 74
     1
 91
        0
 64
     7
 65
   257
 75
     1
175
     1
 42
1.0
 92
        8
 66
     8
424
  7895160
 43
1.0
 76
     1
 77
     6
 78
     2
 67
     7
 79
     5
170
     0
171
     0
290
     0
174
     0
 93
       13
 44
0.0
173
     0
291
     0
 45
0.0
  0
VISUALSTYLE
  5
37
102
{ACAD_REACTORS
330
2A
102
}
102
{ACAD_XDICTIONARY
360
74
102
}
330
2A
100
AcDbVisualStyle
  2
Thicken
 70
    13
 71
     2
 72
     2
 73
     0
 90
        0
 40
-0.6
 41
-30.0
 62
     5
 63
     7
421
 16777215
 74
     1
 91
        4
 64
     7
 65
   257
 75
     1
175
     1
 42
1.0
 92
       12
 66
     7
 43
1.0
 76
     1
 77
     6
 78
     2
 67
     7
 79
     5
170
     0
171
     0
290
     0
174
     0
 93
        1
 44
0.0
173
     0
291
     1
 45
0.0
  0
DICTIONARY
  5
64
330
2F
100
AcDbDictionary
280
     1
281
     1
  3
ACAD_XREC_ROUNDTRIP
360
65
  0
DICTIONARY
  5
68
330
31
100
AcDbDictionary
280
     1
281
     1
  3
ACAD_XREC_ROUNDTRIP
360
69
  0
DICTIONARY
  5
66
330
30
100
AcDbDictionary
280
     1
281
     1
  3
ACAD_XREC_ROUNDTRIP
360
67
  0
DICTIONARY
  5
6A
330
32
100
AcDbDictionary
280
     1
281
     1
  3
ACAD_XREC_ROUNDTRIP
360
6B
  0
DICTIONARY
  5
72
330
36
100
AcDbDictionary
280
     1
281
     1
  3
ACAD_XREC_ROUNDTRIP
360
73
  0
DICTIONARY
  5
7A
330
3A
100
AcDbDictionary
280
     1
281
     1
  3
ACAD_XREC_ROUNDTRIP
360
7B
  0
DICTIONARY
  5
6E
330
34
100
AcDbDictionary
280
     1
281
     1
  3
ACAD_XREC_ROUNDTRIP
360
6F
  0
DICTIONARY
  5
70
330
35
100
AcDbDictionary
280
     1
281
     1
  3
ACAD_XREC_ROUNDTRIP
360
71
  0
DICTIONARY
  5
78
330
39
100
AcDbDictionary
280
     1
281
     1
  3
ACAD_XREC_ROUNDTRIP
360
79
  0
DICTIONARY
  5
5C
330
2B
100
AcDbDictionary
280
     1
281
     1
  3
ACAD_XREC_ROUNDTRIP
360
5D
  0
DICTIONARY
  5
5E
330
2C
100
AcDbDictionary
280
     1
281
     1
  3
ACAD_XREC_ROUNDTRIP
360
5F
  0
DICTIONARY
  5
60
330
2D
100
AcDbDictionary
280
     1
281
     1
  3
ACAD_XREC_ROUNDTRIP
360
61
  0
DICTIONARY
  5
62
330
2E
100
AcDbDictionary
280
     1
281
     1
  3
ACAD_XREC_ROUNDTRIP
360
63
  0
DICTIONARY
  5
76
330
38
100
AcDbDictionary
280
     1
281
     1
  3
ACAD_XREC_ROUNDTRIP
360
77
  0
DICTIONARY
  5
6C
330
33
100
AcDbDictionary
280
     1
281
     1
  3
ACAD_XREC_ROUNDTRIP
360
6D
  0
DICTIONARY
  5
74
330
37
100
AcDbDictionary
280
     1
281
     1
  3
ACAD_XREC_ROUNDTRIP
360
75
  0
XRECORD
  5
65
102
{ACAD_REACTORS
330
64
102
}
330
64
100
AcDbXrecord
280
     1
102
RTVSPropertyOp0
 70
     1
102
RTVSPropertyOp1
 70
     1
102
RTVSPropertyOp2
 70
     1
102
RTVSPropertyOp3
 70
     1
102
RTVSPropertyOp4
 70
     1
102
RTVSPropertyOp5
 70
     1
102
RTVSPropertyOp6
 70
     1
102
RTVSPropertyOp7
 70
     1
102
RTVSPropertyOp8
 70
     1
102
RTVSPropertyOp9
 70
     1
102
RTVSPropertyOp10
 70
     1
102
RTVSPropertyOp11
 70
     1
102
RTVSPropertyOp12
 70
     1
102
RTVSPropertyOp13
 70
     1
102
RTVSPropertyOp14
 70
     1
102
RTVSPropertyOp15
 70
     1
102
RTVSPropertyOp16
 70
     1
102
RTVSPropertyOp17
 70
     1
102
RTVSPropertyOp18
 70
     1
102
RTVSPropertyOp19
 70
     1
102
RTVSPropertyOp20
 70
     1
102
RTVSPropertyOp21
 70
     1
102
RTVSPropertyOp22
 70
     1
102
RTVSPropertyOp23
 70
     1
102
RTVSPropertyOp24
 70
     1
102
RTVSPropertyOp25
 70
     1
102
RTVSPropertyOp26
 70
     1
102
RTVSPropertyOp27
 70
     1
  0
XRECORD
  5
69
102
{ACAD_REACTORS
330
68
102
}
330
68
100
AcDbXrecord
280
     1
102
RTVSPropertyOp0
 70
     1
102
RTVSPropertyOp1
 70
     1
102
RTVSPropertyOp2
 70
     1
102
RTVSPropertyOp3
 70
     1
102
RTVSPropertyOp4
 70
     1
102
RTVSPropertyOp5
 70
     1
102
RTVSPropertyOp6
 70
     1
102
RTVSPropertyOp7
 70
     1
102
RTVSPropertyOp8
 70
     1
102
RTVSPropertyOp9
 70
     1
102
RTVSPropertyOp10
 70
     1
102
RTVSPropertyOp11
 70
     1
102
RTVSPropertyOp12
 70
     1
102
RTVSPropertyOp13
 70
     1
102
RTVSPropertyOp14
 70
     1
102
RTVSPropertyOp15
 70
     1
102
RTVSPropertyOp16
 70
     1
102
RTVSPropertyOp17
 70
     1
102
RTVSPropertyOp18
 70
     1
102
RTVSPropertyOp19
 70
     1
102
RTVSPropertyOp20
 70
     1
102
RTVSPropertyOp21
 70
     1
102
RTVSPropertyOp22
 70
     1
102
RTVSPropertyOp23
 70
     1
102
RTVSPropertyOp24
 70
     1
102
RTVSPropertyOp25
 70
     1
102
RTVSPropertyOp26
 70
     1
102
RTVSPropertyOp27
 70
     1
  0
XRECORD
  5
67
102
{ACAD_REACTORS
330
66
102
}
330
66
100
AcDbXrecord
280
     1
102
RTVSPropertyOp0
 70
     1
102
RTVSPropertyOp1
 70
     1
102
RTVSPropertyOp2
 70
     1
102
RTVSPropertyOp3
 70
     1
102
RTVSPropertyOp4
 70
     1
102
RTVSPropertyOp5
 70
     1
102
RTVSPropertyOp6
 70
     1
102
RTVSPropertyOp7
 70
     1
102
RTVSPropertyOp8
 70
     1
102
RTVSPropertyOp9
 70
     1
102
RTVSPropertyOp10
 70
     1
102
RTVSPropertyOp11
 70
     1
102
RTVSPropertyOp12
 70
     1
102
RTVSPropertyOp13
 70
     1
102
RTVSPropertyOp14
 70
     1
102
RTVSPropertyOp15
 70
     1
102
RTVSPropertyOp16
 70
     1
102
RTVSPropertyOp17
 70
     1
102
RTVSPropertyOp18
 70
     1
102
RTVSPropertyOp19
 70
     1
102
RTVSPropertyOp20
 70
     1
102
RTVSPropertyOp21
 70
     1
102
RTVSPropertyOp22
 70
     1
102
RTVSPropertyOp23
 70
     1
102
RTVSPropertyOp24
 70
     1
102
RTVSPropertyOp25
 70
     1
102
RTVSPropertyOp26
 70
     1
102
RTVSPropertyOp27
 70
     1
  0
XRECORD
  5
6B
102
{ACAD_REACTORS
330
6A
102
}
330
6A
100
AcDbXrecord
280
     1
102
RTVSPropertyOp0
 70
     1
102
RTVSPropertyOp1
 70
     1
102
RTVSPropertyOp2
 70
     1
102
RTVSPropertyOp3
 70
     1
102
RTVSPropertyOp4
 70
     1
102
RTVSPropertyOp5
 70
     1
102
RTVSPropertyOp6
 70
     1
102
RTVSPropertyOp7
 70
     1
102
RTVSPropertyOp8
 70
     1
102
RTVSPropertyOp9
 70
     1
102
RTVSPropertyOp10
 70
     1
102
RTVSPropertyOp11
 70
     1
102
RTVSPropertyOp12
 70
     1
102
RTVSPropertyOp13
 70
     1
102
RTVSPropertyOp14
 70
     1
102
RTVSPropertyOp15
 70
     1
102
RTVSPropertyOp16
 70
     1
102
RTVSPropertyOp17
 70
     1
102
RTVSPropertyOp18
 70
     1
102
RTVSPropertyOp19
 70
     1
102
RTVSPropertyOp20
 70
     1
102
RTVSPropertyOp21
 70
     1
102
RTVSPropertyOp22
 70
     1
102
RTVSPropertyOp23
 70
     1
102
RTVSPropertyOp24
 70
     1
102
RTVSPropertyOp25
 70
     1
102
RTVSPropertyOp26
 70
     1
102
RTVSPropertyOp27
 70
     1
  0
XRECORD
  5
73
102
{ACAD_REACTORS
330
72
102
}
330
72
100
AcDbXrecord
280
     1
102
RTVSPropertyOp0
 70
     1
102
RTVSPropertyOp1
 70
     1
102
RTVSPropertyOp2
 70
     1
102
RTVSPropertyOp3
 70
     1
102
RTVSPropertyOp4
 70
     1
102
RTVSPropertyOp5
 70
     1
102
RTVSPropertyOp6
 70
     1
102
RTVSPropertyOp7
 70
     1
102
RTVSPropertyOp8
 70
     1
102
RTVSPropertyOp9
 70
     1
102
RTVSPropertyOp10
 70
     1
102
RTVSPropertyOp11
 70
     1
102
RTVSPropertyOp12
 70
     1
102
RTVSPropertyOp13
 70
     1
102
RTVSPropertyOp14
 70
     1
102
RTVSPropertyOp15
 70
     1
102
RTVSPropertyOp16
 70
     1
102
RTVSPropertyOp17
 70
     1
102
RTVSPropertyOp18
 70
     1
102
RTVSPropertyOp19
 70
     1
102
RTVSPropertyOp20
 70
     1
102
RTVSPropertyOp21
 70
     1
102
RTVSPropertyOp22
 70
     1
102
RTVSPropertyOp23
 70
     1
102
RTVSPropertyOp24
 70
     1
102
RTVSPropertyOp25
 70
     1
102
RTVSPropertyOp26
 70
     1
102
RTVSPropertyOp27
 70
     1
  0
XRECORD
  5
7B
102
{ACAD_REACTORS
330
7A
102
}
330
7A
100
AcDbXrecord
280
     1
102
RTVSPropertyOp0
 70
     1
102
RTVSPropertyOp1
 70
     1
102
RTVSPropertyOp2
 70
     1
102
RTVSPropertyOp3
 70
     1
102
RTVSPropertyOp4
 70
     1
102
RTVSPropertyOp5
 70
     1
102
RTVSPropertyOp6
 70
     1
102
RTVSPropertyOp7
 70
     1
102
RTVSPropertyOp8
 70
     1
102
RTVSPropertyOp9
 70
     1
102
RTVSPropertyOp10
 70
     1
102
RTVSPropertyOp11
 70
     1
102
RTVSPropertyOp12
 70
     1
102
RTVSPropertyOp13
 70
     1
102
RTVSPropertyOp14
 70
     1
102
RTVSPropertyOp15
 70
     1
102
RTVSPropertyOp16
 70
     1
102
RTVSPropertyOp17
 70
     1
102
RTVSPropertyOp18
 70
     1
102
RTVSPropertyOp19
 70
     1
102
RTVSPropertyOp20
 70
     1
102
RTVSPropertyOp21
 70
     1
102
RTVSPropertyOp22
 70
     1
102
RTVSPropertyOp23
 70
     1
102
RTVSPropertyOp24
 70
     1
102
RTVSPropertyOp25
 70
     1
102
RTVSPropertyOp26
 70
     1
102
RTVSPropertyOp27
 70
     1
  0
XRECORD
  5
6F
102
{ACAD_REACTORS
330
6E
102
}
330
6E
100
AcDbXrecord
280
     1
102
RTVSPropertyOp0
 70
     1
102
RTVSPropertyOp1
 70
     1
102
RTVSPropertyOp2
 70
     1
102
RTVSPropertyOp3
 70
     1
102
RTVSPropertyOp4
 70
     1
102
RTVSPropertyOp5
 70
     1
102
RTVSPropertyOp6
 70
     1
102
RTVSPropertyOp7
 70
     1
102
RTVSPropertyOp8
 70
     1
102
RTVSPropertyOp9
 70
     1
102
RTVSPropertyOp10
 70
     1
102
RTVSPropertyOp11
 70
     1
102
RTVSPropertyOp12
 70
     1
102
RTVSPropertyOp13
 70
     1
102
RTVSPropertyOp14
 70
     1
102
RTVSPropertyOp15
 70
     1
102
RTVSPropertyOp16
 70
     1
102
RTVSPropertyOp17
 70
     1
102
RTVSPropertyOp18
 70
     1
102
RTVSPropertyOp19
 70
     1
102
RTVSPropertyOp20
 70
     1
102
RTVSPropertyOp21
 70
     1
102
RTVSPropertyOp22
 70
     1
102
RTVSPropertyOp23
 70
     1
102
RTVSPropertyOp24
 70
     1
102
RTVSPropertyOp25
 70
     1
102
RTVSPropertyOp26
 70
     1
102
RTVSPropertyOp27
 70
     1
  0
XRECORD
  5
71
102
{ACAD_REACTORS
330
70
102
}
330
70
100
AcDbXrecord
280
     1
102
RTVSPropertyOp0
 70
     1
102
RTVSPropertyOp1
 70
     1
102
RTVSPropertyOp2
 70
     1
102
RTVSPropertyOp3
 70
     1
102
RTVSPropertyOp4
 70
     1
102
RTVSPropertyOp5
 70
     1
102
RTVSPropertyOp6
 70
     1
102
RTVSPropertyOp7
 70
     1
102
RTVSPropertyOp8
 70
     1
102
RTVSPropertyOp9
 70
     1
102
RTVSPropertyOp10
 70
     1
102
RTVSPropertyOp11
 70
     1
102
RTVSPropertyOp12
 70
     1
102
RTVSPropertyOp13
 70
     1
102
RTVSPropertyOp14
 70
     1
102
RTVSPropertyOp15
 70
     1
102
RTVSPropertyOp16
 70
     1
102
RTVSPropertyOp17
 70
     1
102
RTVSPropertyOp18
 70
     1
102
RTVSPropertyOp19
 70
     1
102
RTVSPropertyOp20
 70
     1
102
RTVSPropertyOp21
 70
     1
102
RTVSPropertyOp22
 70
     1
102
RTVSPropertyOp23
 70
     1
102
RTVSPropertyOp24
 70
     1
102
RTVSPropertyOp25
 70
     1
102
RTVSPropertyOp26
 70
     1
102
RTVSPropertyOp27
 70
     1
  0
XRECORD
  5
79
102
{ACAD_REACTORS
330
78
102
}
330
78
100
AcDbXrecord
280
     1
102
RTVSPropertyOp0
 70
     1
102
RTVSPropertyOp1
 70
     1
102
RTVSPropertyOp2
 70
     1
102
RTVSPropertyOp3
 70
     1
102
RTVSPropertyOp4
 70
     1
102
RTVSPropertyOp5
 70
     1
102
RTVSPropertyOp6
 70
     1
102
RTVSPropertyOp7
 70
     1
102
RTVSPropertyOp8
 70
     1
102
RTVSPropertyOp9
 70
     1
102
RTVSPropertyOp10
 70
     1
102
RTVSPropertyOp11
 70
     1
102
RTVSPropertyOp12
 70
     1
102
RTVSPropertyOp13
 70
     1
102
RTVSPropertyOp14
 70
     1
102
RTVSPropertyOp15
 70
     1
102
RTVSPropertyOp16
 70
     1
102
RTVSPropertyOp17
 70
     1
102
RTVSPropertyOp18
 70
     1
102
RTVSPropertyOp19
 70
     1
102
RTVSPropertyOp20
 70
     1
102
RTVSPropertyOp21
 70
     1
102
RTVSPropertyOp22
 70
     1
102
RTVSPropertyOp23
 70
     1
102
RTVSPropertyOp24
 70
     1
102
RTVSPropertyOp25
 70
     1
102
RTVSPropertyOp26
 70
     1
102
RTVSPropertyOp27
 70
     1
  0
XRECORD
  5
5D
102
{ACAD_REACTORS
330
5C
102
}
330
5C
100
AcDbXrecord
280
     1
102
RTVSPropertyOp0
 70
     1
102
RTVSPropertyOp1
 70
     1
102
RTVSPropertyOp2
 70
     1
102
RTVSPropertyOp3
 70
     1
102
RTVSPropertyOp4
 70
     1
102
RTVSPropertyOp5
 70
     1
102
RTVSPropertyOp6
 70
     1
102
RTVSPropertyOp7
 70
     1
102
RTVSPropertyOp8
 70
     1
102
RTVSPropertyOp9
 70
     1
102
RTVSPropertyOp10
 70
     1
102
RTVSPropertyOp11
 70
     1
102
RTVSPropertyOp12
 70
     1
102
RTVSPropertyOp13
 70
     1
102
RTVSPropertyOp14
 70
     1
102
RTVSPropertyOp15
 70
     1
102
RTVSPropertyOp16
 70
     1
102
RTVSPropertyOp17
 70
     1
102
RTVSPropertyOp18
 70
     1
102
RTVSPropertyOp19
 70
     1
102
RTVSPropertyOp20
 70
     1
102
RTVSPropertyOp21
 70
     1
102
RTVSPropertyOp22
 70
     1
102
RTVSPropertyOp23
 70
     1
102
RTVSPropertyOp24
 70
     1
102
RTVSPropertyOp25
 70
     1
102
RTVSPropertyOp26
 70
     1
102
RTVSPropertyOp27
 70
     1
  0
XRECORD
  5
5F
102
{ACAD_REACTORS
330
5E
102
}
330
5E
100
AcDbXrecord
280
     1
102
RTVSPropertyOp0
 70
     1
102
RTVSPropertyOp1
 70
     1
102
RTVSPropertyOp2
 70
     1
102
RTVSPropertyOp3
 70
     1
102
RTVSPropertyOp4
 70
     1
102
RTVSPropertyOp5
 70
     1
102
RTVSPropertyOp6
 70
     1
102
RTVSPropertyOp7
 70
     1
102
RTVSPropertyOp8
 70
     1
102
RTVSPropertyOp9
 70
     1
102
RTVSPropertyOp10
 70
     1
102
RTVSPropertyOp11
 70
     1
102
RTVSPropertyOp12
 70
     1
102
RTVSPropertyOp13
 70
     1
102
RTVSPropertyOp14
 70
     1
102
RTVSPropertyOp15
 70
     1
102
RTVSPropertyOp16
 70
     1
102
RTVSPropertyOp17
 70
     1
102
RTVSPropertyOp18
 70
     1
102
RTVSPropertyOp19
 70
     1
102
RTVSPropertyOp20
 70
     1
102
RTVSPropertyOp21
 70
     1
102
RTVSPropertyOp22
 70
     1
102
RTVSPropertyOp23
 70
     1
102
RTVSPropertyOp24
 70
     1
102
RTVSPropertyOp25
 70
     1
102
RTVSPropertyOp26
 70
     1
102
RTVSPropertyOp27
 70
     1
  0
XRECORD
  5
61
102
{ACAD_REACTORS
330
60
102
}
330
60
100
AcDbXrecord
280
     1
102
RTVSPropertyOp0
 70
     1
102
RTVSPropertyOp1
 70
     1
102
RTVSPropertyOp2
 70
     1
102
RTVSPropertyOp3
 70
     1
102
RTVSPropertyOp4
 70
     1
102
RTVSPropertyOp5
 70
     1
102
RTVSPropertyOp6
 70
     1
102
RTVSPropertyOp7
 70
     1
102
RTVSPropertyOp8
 70
     1
102
RTVSPropertyOp9
 70
     1
102
RTVSPropertyOp10
 70
     1
102
RTVSPropertyOp11
 70
     1
102
RTVSPropertyOp12
 70
     1
102
RTVSPropertyOp13
 70
     1
102
RTVSPropertyOp14
 70
     1
102
RTVSPropertyOp15
 70
     1
102
RTVSPropertyOp16
 70
     1
102
RTVSPropertyOp17
 70
     1
102
RTVSPropertyOp18
 70
     1
102
RTVSPropertyOp19
 70
     1
102
RTVSPropertyOp20
 70
     1
102
RTVSPropertyOp21
 70
     1
102
RTVSPropertyOp22
 70
     1
102
RTVSPropertyOp23
 70
     1
102
RTVSPropertyOp24
 70
     1
102
RTVSPropertyOp25
 70
     1
102
RTVSPropertyOp26
 70
     1
102
RTVSPropertyOp27
 70
     1
  0
XRECORD
  5
63
102
{ACAD_REACTORS
330
62
102
}
330
62
100
AcDbXrecord
280
     1
102
RTVSPropertyOp0
 70
     1
102
RTVSPropertyOp1
 70
     1
102
RTVSPropertyOp2
 70
     1
102
RTVSPropertyOp3
 70
     1
102
RTVSPropertyOp4
 70
     1
102
RTVSPropertyOp5
 70
     1
102
RTVSPropertyOp6
 70
     1
102
RTVSPropertyOp7
 70
     1
102
RTVSPropertyOp8
 70
     1
102
RTVSPropertyOp9
 70
     1
102
RTVSPropertyOp10
 70
     1
102
RTVSPropertyOp11
 70
     1
102
RTVSPropertyOp12
 70
     1
102
RTVSPropertyOp13
 70
     1
102
RTVSPropertyOp14
 70
     1
102
RTVSPropertyOp15
 70
     1
102
RTVSPropertyOp16
 70
     1
102
RTVSPropertyOp17
 70
     1
102
RTVSPropertyOp18
 70
     1
102
RTVSPropertyOp19
 70
     1
102
RTVSPropertyOp20
 70
     1
102
RTVSPropertyOp21
 70
     1
102
RTVSPropertyOp22
 70
     1
102
RTVSPropertyOp23
 70
     1
102
RTVSPropertyOp24
 70
     1
102
RTVSPropertyOp25
 70
     1
102
RTVSPropertyOp26
 70
     1
102
RTVSPropertyOp27
 70
     1
  0
XRECORD
  5
77
102
{ACAD_REACTORS
330
76
102
}
330
76
100
AcDbXrecord
280
     1
102
RTVSPropertyOp0
 70
     1
102
RTVSPropertyOp1
 70
     1
102
RTVSPropertyOp2
 70
     1
102
RTVSPropertyOp3
 70
     1
102
RTVSPropertyOp4
 70
     1
102
RTVSPropertyOp5
 70
     1
102
RTVSPropertyOp6
 70
     1
102
RTVSPropertyOp7
 70
     1
102
RTVSPropertyOp8
 70
     1
102
RTVSPropertyOp9
 70
     1
102
RTVSPropertyOp10
 70
     1
102
RTVSPropertyOp11
 70
     1
102
RTVSPropertyOp12
 70
     1
102
RTVSPropertyOp13
 70
     1
102
RTVSPropertyOp14
 70
     1
102
RTVSPropertyOp15
 70
     1
102
RTVSPropertyOp16
 70
     1
102
RTVSPropertyOp17
 70
     1
102
RTVSPropertyOp18
 70
     1
102
RTVSPropertyOp19
 70
     1
102
RTVSPropertyOp20
 70
     1
102
RTVSPropertyOp21
 70
     1
102
RTVSPropertyOp22
 70
     1
102
RTVSPropertyOp23
 70
     1
102
RTVSPropertyOp24
 70
     1
102
RTVSPropertyOp25
 70
     1
102
RTVSPropertyOp26
 70
     1
102
RTVSPropertyOp27
 70
     1
  0
XRECORD
  5
6D
102
{ACAD_REACTORS
330
6C
102
}
330
6C
100
AcDbXrecord
280
     1
102
RTVSPropertyOp0
 70
     1
102
RTVSPropertyOp1
 70
     1
102
RTVSPropertyOp2
 70
     1
102
RTVSPropertyOp3
 70
     1
102
RTVSPropertyOp4
 70
     1
102
RTVSPropertyOp5
 70
     1
102
RTVSPropertyOp6
 70
     1
102
RTVSPropertyOp7
 70
     1
102
RTVSPropertyOp8
 70
     1
102
RTVSPropertyOp9
 70
     1
102
RTVSPropertyOp10
 70
     1
102
RTVSPropertyOp11
 70
     1
102
RTVSPropertyOp12
 70
     1
102
RTVSPropertyOp13
 70
     1
102
RTVSPropertyOp14
 70
     1
102
RTVSPropertyOp15
 70
     1
102
RTVSPropertyOp16
 70
     1
102
RTVSPropertyOp17
 70
     1
102
RTVSPropertyOp18
 70
     1
102
RTVSPropertyOp19
 70
     1
102
RTVSPropertyOp20
 70
     1
102
RTVSPropertyOp21
 70
     1
102
RTVSPropertyOp22
 70
     1
102
RTVSPropertyOp23
 70
     1
102
RTVSPropertyOp24
 70
     1
102
RTVSPropertyOp25
 70
     1
102
RTVSPropertyOp26
 70
     1
102
RTVSPropertyOp27
 70
     1
  0
XRECORD
  5
75
102
{ACAD_REACTORS
330
74
102
}
330
74
100
AcDbXrecord
280
     1
102
RTVSPropertyOp0
 70
     1
102
RTVSPropertyOp1
 70
     1
102
RTVSPropertyOp2
 70
     1
102
RTVSPropertyOp3
 70
     1
102
RTVSPropertyOp4
 70
     1
102
RTVSPropertyOp5
 70
     1
102
RTVSPropertyOp6
 70
     1
102
RTVSPropertyOp7
 70
     1
102
RTVSPropertyOp8
 70
     1
102
RTVSPropertyOp9
 70
     1
102
RTVSPropertyOp10
 70
     1
102
RTVSPropertyOp11
 70
     1
102
RTVSPropertyOp12
 70
     1
102
RTVSPropertyOp13
 70
     1
102
RTVSPropertyOp14
 70
     1
102
RTVSPropertyOp15
 70
     1
102
RTVSPropertyOp16
 70
     1
102
RTVSPropertyOp17
 70
     1
102
RTVSPropertyOp18
 70
     1
102
RTVSPropertyOp19
 70
     1
102
RTVSPropertyOp20
 70
     1
102
RTVSPropertyOp21
 70
     1
102
RTVSPropertyOp22
 70
     1
102
RTVSPropertyOp23
 70
     1
102
RTVSPropertyOp24
 70
     1
102
RTVSPropertyOp25
 70
     1
102
RTVSPropertyOp26
 70
     1
102
RTVSPropertyOp27
 70
     1
  0
ENDSEC
  0
EOF
