999
dxflib 3.3.4.0
  0
SECTION
  2
HEADER
  9
$ACADVER
  1
AC1015
  9
$HANDSEED
  5
FFFF
  9
$ANGBASE
 50
0.0
  9
$ANGDIR
 70
0
  9
$ATTMODE
 70
1
  9
$AUNITS
 70
0
  9
$AUPREC
 70
0
  9
$CECOLOR
 62
256
  9
$CELTSCALE
 40
1.0
  9
$CHAMFERA
 40
0.5
  9
$CHAMFERB
 40
0.5
  9
$CHAMFERC
 40
1.0
  9
$CHAMFERD
 40
0.0
  9
$CMLJUST
 70
0
  9
$CMLSCALE
 40
1.0
  9
$DIMADEC
 70
0
  9
$DIMALT
 70
0
  9
$DIMALTD
 70
2
  9
$DIMALTF
 40
25.3999999999999986
  9
$DIMALTRND
 40
0.0
  9
$DIMALTTD
 70
2
  9
$DIMALTTZ
 70
0
  9
$DIMALTU
 70
2
  9
$DIMALTZ
 70
0
  9
$DIMAPOST
  1

  9
$DIMASZ
 40
0.18
  9
$DIMATFIT
 70
3
  9
$DIMAUNIT
 70
0
  9
$DIMAZIN
 70
0
  9
$DIMBLK
  1

  9
$DIMBLK1
  1

  9
$DIMBLK2
  1

  9
$DIMCEN
 40
0.09
  9
$DIMCLRD
 70
0
  9
$DIMCLRE
 70
0
  9
$DIMCLRT
 70
0
  9
$DIMDEC
 70
4
  9
$DIMDLE
 40
0.0
  9
$DIMDLI
 40
0.38
  9
$DIMDSEP
 70
46
  9
$DIMEXE
 40
0.18
  9
$DIMEXO
 40
0.0625
  9
$DIMFRAC
 70
0
  9
$DIMGAP
 40
0.09
  9
$DIMJUST
 70
0
  9
$DIMLDRBLK
  1

  9
$DIMLFAC
 40
1.0
  9
$DIMLIM
 70
0
  9
$DIMLUNIT
 70
2
  9
$DIMLWD
 70
-2
  9
$DIMLWE
 70
-2
  9
$DIMPOST
  1

  9
$DIMRND
 40
0.0
  9
$DIMSAH
 70
0
  9
$DIMSCALE
 40
1.0
  9
$DIMSD1
 70
0
  9
$DIMSD2
 70
0
  9
$DIMSE1
 70
0
  9
$DIMSE2
 70
0
  9
$DIMSOXD
 70
0
  9
$DIMTAD
 70
0
  9
$DIMTDEC
 70
4
  9
$DIMTFAC
 40
1.0
  9
$DIMTIH
 70
1
  9
$DIMTIX
 70
0
  9
$DIMTM
 40
0.0
  9
$DIMTOFL
 70
0
  9
$DIMTOH
 70
1
  9
$DIMTOL
 70
0
  9
$DIMTOLJ
 70
1
  9
$DIMTP
 40
0.0
  9
$DIMTSZ
 40
0.0
  9
$DIMTVP
 40
0.0
  9
$DIMTXSTY
  7
Standard
  9
$DIMTXT
 40
0.18
  9
$DIMTZIN
 70
0
  9
$DIMUPT
 70
0
  9
$DIMZIN
 70
0
  9
$DISPSILH
 70
0
  9
$DWGCODEPAGE
  3
ANSI_1252
  9
$ELEVATION
 40
0.0
  9
$EXTMAX
 10
149.0099999999999909
 20
18.0100000000000016
 30
0.0
  9
$EXTMIN
 10
-149.0099999999999909
 20
-18.0100000000000016
 30
0.0
  9
$FILLETRAD
 40
0.5
  9
$FILLMODE
 70
1
  9
$INSBASE
 10
0.0
 20
0.0
 30
0.0
  9
$INSUNITS
 70
5
  9
$LIMCHECK
 70
0
  9
$LIMMAX
 10
12.0
 20
9.0
  9
$LIMMIN
 10
0.0
 20
0.0
  9
$LTSCALE
 40
1.0
  9
$LUNITS
 70
2
  9
$LUPREC
 70
4
  9
$MAXACTVP
 70
64
  9
$MIRRTEXT
 70
1
  9
$ORTHOMODE
 70
0
  9
$PDMODE
 70
0
  9
$PDSIZE
 40
0.0
  9
$PELEVATION
 40
0.0
  9
$PEXTMAX
 10
-100000000000000000000.0
 20
-100000000000000000000.0
 30
-100000000000000000000.0
  9
$PEXTMIN
 10
100000000000000000000.0
 20
100000000000000000000.0
 30
100000000000000000000.0
  9
$PINSBASE
 10
0.0
 20
0.0
 30
0.0
  9
$PLIMCHECK
 70
0
  9
$PLIMMAX
 10
12.0
 20
9.0
  9
$PLIMMIN
 10
0.0
 20
0.0
  9
$PLINEGEN
 70
0
  9
$PLINEWID
 40
0.0
  9
$PROXYGRAPHICS
 70
1
  9
$PSLTSCALE
 70
1
  9
$PUCSNAME
  2

  9
$PUCSORG
 10
0.0
 20
0.0
 30
0.0
  9
$PUCSXDIR
 10
1.0
 20
0.0
 30
0.0
  9
$PUCSYDIR
 10
0.0
 20
1.0
 30
0.0
  9
$QTEXTMODE
 70
0
  9
$REGENMODE
 70
1
  9
$SHADEDGE
 70
3
  9
$SHADEDIF
 70
70
  9
$SKETCHINC
 40
0.1
  9
$SKPOLY
 70
0
  9
$SPLFRAME
 70
0
  9
$SPLINESEGS
 70
8
  9
$SPLINETYPE
 70
6
  9
$SURFTAB1
 70
6
  9
$SURFTAB2
 70
6
  9
$SURFTYPE
 70
6
  9
$SURFU
 70
6
  9
$SURFV
 70
6
  9
$TEXTSIZE
 40
0.2
  9
$TEXTSTYLE
  7
Standard
  9
$THICKNESS
 40
0.0
  9
$TILEMODE
 70
1
  9
$TRACEWID
 40
0.05
  9
$TREEDEPTH
 70
3020
  9
$UCSNAME
  2

  9
$UCSORG
 10
0.0
 20
0.0
 30
0.0
  9
$UCSXDIR
 10
1.0
 20
0.0
 30
0.0
  9
$UCSYDIR
 10
0.0
 20
1.0
 30
0.0
  9
$UNITMODE
 70
0
  9
$USERI1
 70
0
  9
$USERI2
 70
0
  9
$USERI3
 70
0
  9
$USERI4
 70
0
  9
$USERI5
 70
0
  9
$USERR1
 40
0.0
  9
$USERR2
 40
0.0
  9
$USERR3
 40
0.0
  9
$USERR4
 40
0.0
  9
$USERR5
 40
0.0
  9
$USRTIMER
 70
1
  9
$VISRETAIN
 70
1
  0
ENDSEC
  0
SECTION
  2
TABLES
  0
TABLE
  2
VPORT
  5
8
100
AcDbSymbolTable
 70
1
  0
VPORT
  5
30
100
AcDbSymbolTableRecord
100
AcDbViewportTableRecord
  2
*Active
 70
0
 10
0.0
 20
0.0
 11
1.0
 21
1.0
 12
286.3055555555554861
 22
148.5
 13
0.0
 23
0.0
 14
10.0
 24
10.0
 15
10.0
 25
10.0
 16
0.0
 26
0.0
 36
1.0
 17
0.0
 27
0.0
 37
0.0
 40
297.0
 41
1.92798353909465
 42
50.0
 43
0.0
 44
0.0
 50
0.0
 51
0.0
 71
0
 72
100
 73
1
 74
3
 75
1
 76
1
 77
0
 78
0
281
0
 65
1
110
0.0
120
0.0
130
0.0
111
1.0
121
0.0
131
0.0
112
0.0
122
1.0
132
0.0
 79
0
146
0.0
  0
ENDTAB
  0
TABLE
  2
LTYPE
  5
5
100
AcDbSymbolTable
 70
21
  0
LTYPE
  5
16
100
AcDbSymbolTableRecord
100
AcDbLinetypeTableRecord
  2
CONTINUOUS
 70
0
  3
Solid line
 72
65
 73
0
 40
0.0
  0
LTYPE
  5
31
100
AcDbSymbolTableRecord
100
AcDbLinetypeTableRecord
  2
CENTER2
 70
0
  3
Center (.5x) ___ _ ___ _ ___ _ ___ _ ___ _ ___
 72
65
 73
4
 40
28.5749999999999993
 49
19.0500000000000007
 74
0
 49
-3.1749999999999998
 74
0
 49
3.1749999999999998
 74
0
 49
-3.1749999999999998
 74
0
  0
LTYPE
  5
32
100
AcDbSymbolTableRecord
100
AcDbLinetypeTableRecord
  2
DIVIDEX2
 70
0
  3
Divide (2x) ________  .  .  ________  .  .  _
 72
65
 73
6
 40
63.5
 49
25.3999999999999986
 74
0
 49
-12.6999999999999993
 74
0
 49
0.0
 74
0
 49
-12.6999999999999993
 74
0
 49
0.0
 74
0
 49
-12.6999999999999993
 74
0
  0
LTYPE
  5
33
100
AcDbSymbolTableRecord
100
AcDbLinetypeTableRecord
  2
DOT2
 70
0
  3
Dot (.5x) .....................................
 72
65
 73
2
 40
3.1749999999999998
 49
0.0
 74
0
 49
-3.1749999999999998
 74
0
  0
LTYPE
  5
34
100
AcDbSymbolTableRecord
100
AcDbLinetypeTableRecord
  2
DASHDOT2
 70
0
  3
Dash dot (.5x) _._._._._._._._._._._._._._._.
 72
65
 73
4
 40
12.6999999999999993
 49
6.3499999999999996
 74
0
 49
-3.1749999999999998
 74
0
 49
0.0
 74
0
 49
-3.1749999999999998
 74
0
  0
LTYPE
  5
35
100
AcDbSymbolTableRecord
100
AcDbLinetypeTableRecord
  2
DIVIDE
 70
0
  3
Divide ____ . . ____ . . ____ . . ____ . . ____
 72
65
 73
6
 40
31.75
 49
12.6999999999999993
 74
0
 49
-6.3499999999999996
 74
0
 49
0.0
 74
0
 49
-6.3499999999999996
 74
0
 49
0.0
 74
0
 49
-6.3499999999999996
 74
0
  0
LTYPE
  5
36
100
AcDbSymbolTableRecord
100
AcDbLinetypeTableRecord
  2
DASHDOT
 70
0
  3
Dash dot __ . __ . __ . __ . __ . __ . __ . __
 72
65
 73
4
 40
25.3999999999999986
 49
12.6999999999999993
 74
0
 49
-6.3499999999999996
 74
0
 49
0.0
 74
0
 49
-6.3499999999999996
 74
0
  0
LTYPE
  5
37
100
AcDbSymbolTableRecord
100
AcDbLinetypeTableRecord
  2
BORDER
 70
0
  3
Border __ __ . __ __ . __ __ . __ __ . __ __ .
 72
65
 73
6
 40
44.4500000000000028
 49
12.6999999999999993
 74
0
 49
-6.3499999999999996
 74
0
 49
12.6999999999999993
 74
0
 49
-6.3499999999999996
 74
0
 49
0.0
 74
0
 49
-6.3499999999999996
 74
0
  0
LTYPE
  5
38
100
AcDbSymbolTableRecord
100
AcDbLinetypeTableRecord
  2
DASHDOTX2
 70
0
  3
Dash dot (2x) ____  .  ____  .  ____  .  ___
 72
65
 73
4
 40
50.7999999999999972
 49
25.3999999999999986
 74
0
 49
-12.6999999999999993
 74
0
 49
0.0
 74
0
 49
-12.6999999999999993
 74
0
  0
LTYPE
  5
39
100
AcDbSymbolTableRecord
100
AcDbLinetypeTableRecord
  2
CENTERX2
 70
0
  3
Center (2x) ________  __  ________  __  _____
 72
65
 73
4
 40
101.5999999999999943
 49
63.5
 74
0
 49
-12.6999999999999993
 74
0
 49
12.6999999999999993
 74
0
 49
-12.6999999999999993
 74
0
  0
LTYPE
  5
3A
100
AcDbSymbolTableRecord
100
AcDbLinetypeTableRecord
  2
BORDER2
 70
0
  3
Border (.5x) __.__.__.__.__.__.__.__.__.__.__.
 72
65
 73
6
 40
22.2250000000000014
 49
6.3499999999999996
 74
0
 49
-3.1749999999999998
 74
0
 49
6.3499999999999996
 74
0
 49
-3.1749999999999998
 74
0
 49
0.0
 74
0
 49
-3.1749999999999998
 74
0
  0
LTYPE
  5
3B
100
AcDbSymbolTableRecord
100
AcDbLinetypeTableRecord
  2
BORDERX2
 70
0
  3
Border (2x) ____  ____  .  ____  ____  .  ___
 72
65
 73
6
 40
88.9000000000000057
 49
25.3999999999999986
 74
0
 49
-12.6999999999999993
 74
0
 49
25.3999999999999986
 74
0
 49
-12.6999999999999993
 74
0
 49
0.0
 74
0
 49
-12.6999999999999993
 74
0
  0
LTYPE
  5
14
100
AcDbSymbolTableRecord
100
AcDbLinetypeTableRecord
  2
BYBLOCK
 70
0
  3

 72
65
 73
0
 40
0.0
  0
LTYPE
  5
15
100
AcDbSymbolTableRecord
100
AcDbLinetypeTableRecord
  2
BYLAYER
 70
0
  3

 72
65
 73
0
 40
0.0
  0
LTYPE
  5
3C
100
AcDbSymbolTableRecord
100
AcDbLinetypeTableRecord
  2
DASHED2
 70
0
  3
Dashed (.5x) _ _ _ _ _ _ _ _ _ _ _ _ _ _ _ _ _
 72
65
 73
2
 40
9.5250000000000004
 49
6.3499999999999996
 74
0
 49
-3.1749999999999998
 74
0
  0
LTYPE
  5
3D
100
AcDbSymbolTableRecord
100
AcDbLinetypeTableRecord
  2
CENTER
 70
0
  3
Center ____ _ ____ _ ____ _ ____ _ ____ _ ____
 72
65
 73
4
 40
50.7999999999999972
 49
31.75
 74
0
 49
-6.3499999999999996
 74
0
 49
6.3499999999999996
 74
0
 49
-6.3499999999999996
 74
0
  0
LTYPE
  5
3E
100
AcDbSymbolTableRecord
100
AcDbLinetypeTableRecord
  2
DIVIDE2
 70
0
  3
Divide (.5x) __..__..__..__..__..__..__..__.._
 72
65
 73
6
 40
15.875
 49
6.3499999999999996
 74
0
 49
-3.1749999999999998
 74
0
 49
0.0
 74
0
 49
-3.1749999999999998
 74
0
 49
0.0
 74
0
 49
-3.1749999999999998
 74
0
  0
LTYPE
  5
3F
100
AcDbSymbolTableRecord
100
AcDbLinetypeTableRecord
  2
DASHED
 70
0
  3
Dashed __ __ __ __ __ __ __ __ __ __ __ __ __ _
 72
65
 73
2
 40
19.0500000000000007
 49
12.6999999999999993
 74
0
 49
-6.3499999999999996
 74
0
  0
LTYPE
  5
40
100
AcDbSymbolTableRecord
100
AcDbLinetypeTableRecord
  2
DOTX2
 70
0
  3
Dot (2x) .  .  .  .  .  .  .  .  .  .  .  .  .
 72
65
 73
2
 40
12.6999999999999993
 49
0.0
 74
0
 49
-12.6999999999999993
 74
0
  0
LTYPE
  5
41
100
AcDbSymbolTableRecord
100
AcDbLinetypeTableRecord
  2
DASHEDX2
 70
0
  3
Dashed (2x) ____  ____  ____  ____  ____  ___
 72
65
 73
2
 40
38.1000000000000014
 49
25.3999999999999986
 74
0
 49
-12.6999999999999993
 74
0
  0
LTYPE
  5
42
100
AcDbSymbolTableRecord
100
AcDbLinetypeTableRecord
  2
DOT
 70
0
  3
Dot . . . . . . . . . . . . . . . . . . . . . .
 72
65
 73
2
 40
6.3499999999999996
 49
0.0
 74
0
 49
-6.3499999999999996
 74
0
  0
ENDTAB
  0
TABLE
  2
LAYER
  5
2
100
AcDbSymbolTable
 70
5
  0
LAYER
  5
43
100
AcDbSymbolTableRecord
100
AcDbLayerTableRecord
  2
komp_okvir
 70
0
 62
7
420
16777215
  6
CONTINUOUS
370
-3
390
F
  0
LAYER
  5
44
100
AcDbSymbolTableRecord
100
AcDbLayerTableRecord
  2
slova
 70
0
 62
7
420
0
  6
CONTINUOUS
370
25
390
F
  0
LAYER
  5
45
100
AcDbSymbolTableRecord
100
AcDbLayerTableRecord
  2
okvir
 70
0
 62
1
420
16711680
  6
CONTINUOUS
370
25
390
F
  0
LAYER
  5
10
100
AcDbSymbolTableRecord
100
AcDbLayerTableRecord
  2
0
 70
0
 62
7
420
16777215
  6
CONTINUOUS
370
-3
390
F
  0
LAYER
  5
46
100
AcDbSymbolTableRecord
100
AcDbLayerTableRecord
  2
znak
 70
0
 62
7
420
0
  6
CONTINUOUS
370
25
390
F
  0
ENDTAB
  0
TABLE
  2
STYLE
  5
3
100
AcDbSymbolTable
 70
1
  0
STYLE
  5
47
100
AcDbSymbolTableRecord
100
AcDbTextStyleTableRecord
  2
Standard
 70
0
 40
0.0
 41
1.0
 50
0.0
 71
0
 42
2.5
  3

  4

1001
ACAD
1000
txt
1071
0
  0
ENDTAB
  0
TABLE
  2
VIEW
  5
6
100
AcDbSymbolTable
 70
0
  0
ENDTAB
  0
TABLE
  2
UCS
  5
7
100
AcDbSymbolTable
 70
0
  0
ENDTAB
  0
TABLE
  2
APPID
  5
9
100
AcDbSymbolTable
 70
1
  0
APPID
  5
12
100
AcDbSymbolTableRecord
100
AcDbRegAppTableRecord
  2
ACAD
 70
0
  0
APPID
  5
48
100
AcDbSymbolTableRecord
100
AcDbRegAppTableRecord
  2
QCAD
 70
0
  0
ENDTAB
  0
TABLE
  2
DIMSTYLE
  5
A
100
AcDbSymbolTable
 70
1
100
AcDbDimStyleTable
 71
0
  0
DIMSTYLE
105
27
100
AcDbSymbolTableRecord
100
AcDbDimStyleTableRecord
  2
Standard
 41
0.18
 42
0.0625
 43
3.75
 44
0.18
 70
0
 73
0
 74
0
 77
1
 78
8
140
0.18
141
2.5
143
0.03937007874016
147
0.09
171
3
172
1
271
2
272
2
274
3
278
44
283
0
284
8
340
47
  0
ENDTAB
  0
TABLE
  2
BLOCK_RECORD
  5
1
100
AcDbSymbolTable
 70
1
  0
BLOCK_RECORD
  5
1F
100
AcDbSymbolTableRecord
100
AcDbBlockTableRecord
  2
*Model_Space
340
22
  0
BLOCK_RECORD
  5
1B
100
AcDbSymbolTableRecord
100
AcDbBlockTableRecord
  2
*Paper_Space
340
1E
  0
BLOCK_RECORD
  5
23
100
AcDbSymbolTableRecord
100
AcDbBlockTableRecord
  2
*Paper_Space0
340
26
  0
ENDTAB
  0
ENDSEC
  0
SECTION
  2
BLOCKS
  0
BLOCK
  5
20
100
AcDbEntity
  8
0
100
AcDbBlockBegin
  2
*Model_Space
 70
0
 10
0.0
 20
0.0
 30
0.0
  3
*Model_Space
  1

  0
ENDBLK
  5
21
100
AcDbEntity
  8
0
100
AcDbBlockEnd
  0
BLOCK
  5
1C
100
AcDbEntity
 67
1
  8
0
100
AcDbBlockBegin
  2
*Paper_Space
 70
0
 10
0.0
 20
0.0
 30
0.0
  3
*Paper_Space
  1

  0
ENDBLK
  5
1D
100
AcDbEntity
 67
1
  8
0
100
AcDbBlockEnd
  0
BLOCK
  5
24
100
AcDbEntity
  8
0
100
AcDbBlockBegin
  2
*Paper_Space0
 70
0
 10
0.0
 20
0.0
 30
0.0
  3
*Paper_Space0
  1

  0
ENDBLK
  5
25
100
AcDbEntity
  8
0
100
AcDbBlockEnd
  0
ENDSEC
  0
SECTION
  2
ENTITIES
  0
LWPOLYLINE
  5
49
  8
komp_okvir
 62
250
420
5526612
370
20
  6
BYLAYER
100
AcDbEntity
100
AcDbPolyline
 90
5
 70
1
 10
0.0
 20
-600.0
 30
0.0
 10
2980.0
 20
-600.0
 30
0.0
 10
2980.0
 20
-240.0
 30
0.0
 10
0.0
 20
-240.0
 30
0.0
 10
0.0
 20
-600.0
 30
0.0
  0
SPLINE
  5
4A
  8
slova
 62
250
420
5526612
370
100
  6
BYLAYER
100
AcDbEntity
100
AcDbSpline
 70
8
 71
3
 72
52
 73
48
 74
0
 40
0.0
 40
0.0
 40
0.0
 40
0.0
 40
0.0769230769230769
 40
0.0769230769230769
 40
0.0769230769230769
 40
0.0769230769230769
 40
0.1538461538461539
 40
0.1538461538461539
 40
0.1538461538461539
 40
0.1538461538461539
 40
0.2307692307692308
 40
0.2307692307692308
 40
0.2307692307692308
 40
0.2307692307692308
 40
0.3076923076923077
 40
0.3076923076923077
 40
0.3076923076923077
 40
0.3076923076923077
 40
0.3846153846153846
 40
0.3846153846153846
 40
0.3846153846153846
 40
0.3846153846153846
 40
0.4615384615384616
 40
0.4615384615384616
 40
0.4615384615384616
 40
0.4615384615384616
 40
0.5384615384615384
 40
0.5384615384615384
 40
0.5384615384615384
 40
0.5384615384615384
 40
0.6153846153846154
 40
0.6153846153846154
 40
0.6153846153846154
 40
0.6153846153846154
 40
0.6923076923076923
 40
0.6923076923076923
 40
0.6923076923076923
 40
0.6923076923076923
 40
0.7692307692307693
 40
0.7692307692307693
 40
0.7692307692307693
 40
0.7692307692307693
 40
0.8461538461538461
 40
0.8461538461538461
 40
0.8461538461538461
 40
0.8461538461538461
 40
1.0
 40
1.0
 40
1.0
 40
1.0
 10
1425.9421999999999571
 20
-483.8648000000000025
 30
0.0
 10
1425.9421999999999571
 20
-483.8648000000000025
 30
0.0
 10
1508.2631000000001222
 20
-483.8648000000000025
 30
0.0
 10
1508.2631000000001222
 20
-483.8648000000000025
 30
0.0
 10
1508.2631000000001222
 20
-483.8648000000000025
 30
0.0
 10
1508.2631000000001222
 20
-483.8648000000000025
 30
0.0
 10
1508.2631000000001222
 20
-456.3136000000000081
 30
0.0
 10
1508.2631000000001222
 20
-456.3136000000000081
 30
0.0
 10
1508.2631000000001222
 20
-456.3136000000000081
 30
0.0
 10
1508.2631000000001222
 20
-456.3136000000000081
 30
0.0
 10
1458.8560999999999694
 20
-456.3136000000000081
 30
0.0
 10
1458.8560999999999694
 20
-456.3136000000000081
 30
0.0
 10
1458.8560999999999694
 20
-456.3136000000000081
 30
0.0
 10
1458.8560999999999694
 20
-456.3136000000000081
 30
0.0
 10
1458.8560999999999694
 20
-434.0755000000000337
 30
0.0
 10
1458.8560999999999694
 20
-434.0755000000000337
 30
0.0
 10
1458.8560999999999694
 20
-434.0755000000000337
 30
0.0
 10
1458.8560999999999694
 20
-434.0755000000000337
 30
0.0
 10
1499.4533999999998741
 20
-434.0755000000000337
 30
0.0
 10
1499.4533999999998741
 20
-434.0755000000000337
 30
0.0
 10
1499.4533999999998741
 20
-434.0755000000000337
 30
0.0
 10
1499.4533999999998741
 20
-434.0755000000000337
 30
0.0
 10
1499.4533999999998741
 20
-406.5244000000000142
 30
0.0
 10
1499.4533999999998741
 20
-406.5244000000000142
 30
0.0
 10
1499.4533999999998741
 20
-406.5244000000000142
 30
0.0
 10
1499.4533999999998741
 20
-406.5244000000000142
 30
0.0
 10
1458.8560999999999694
 20
-406.5244000000000142
 30
0.0
 10
1458.8560999999999694
 20
-406.5244000000000142
 30
0.0
 10
1458.8560999999999694
 20
-406.5244000000000142
 30
0.0
 10
1458.8560999999999694
 20
-406.5244000000000142
 30
0.0
 10
1458.8560999999999694
 20
-386.9664999999999964
 30
0.0
 10
1458.8560999999999694
 20
-386.9664999999999964
 30
0.0
 10
1458.8560999999999694
 20
-386.9664999999999964
 30
0.0
 10
1458.8560999999999694
 20
-386.9664999999999964
 30
0.0
 10
1506.3473999999998796
 20
-386.9664999999999964
 30
0.0
 10
1506.3473999999998796
 20
-386.9664999999999964
 30
0.0
 10
1506.3473999999998796
 20
-386.9664999999999964
 30
0.0
 10
1506.3473999999998796
 20
-386.9664999999999964
 30
0.0
 10
1506.3473999999998796
 20
-359.4154000000000337
 30
0.0
 10
1506.3473999999998796
 20
-359.4154000000000337
 30
0.0
 10
1506.3473999999998796
 20
-359.4154000000000337
 30
0.0
 10
1506.3473999999998796
 20
-359.4154000000000337
 30
0.0
 10
1425.9421999999999571
 20
-359.4154000000000337
 30
0.0
 10
1425.9421999999999571
 20
-359.4154000000000337
 30
0.0
 10
1425.9421999999999571
 20
-359.4154000000000337
 30
0.0
 10
1425.9421999999999571
 20
-359.4154000000000337
 30
0.0
 10
1425.9421999999999571
 20
-483.8648000000000025
 30
0.0
 10
1425.9421999999999571
 20
-483.8648000000000025
 30
0.0
  0
SPLINE
  5
4B
  8
slova
 62
250
420
5526612
370
100
  6
BYLAYER
100
AcDbEntity
100
AcDbSpline
 70
8
 71
3
 72
28
 73
24
 74
0
 40
0.0
 40
0.0
 40
0.0
 40
0.0
 40
0.1428571428571428
 40
0.1428571428571428
 40
0.1428571428571428
 40
0.1428571428571428
 40
0.2857142857142857
 40
0.2857142857142857
 40
0.2857142857142857
 40
0.2857142857142857
 40
0.4285714285714285
 40
0.4285714285714285
 40
0.4285714285714285
 40
0.4285714285714285
 40
0.5714285714285714
 40
0.5714285714285714
 40
0.5714285714285714
 40
0.5714285714285714
 40
0.7142857142857143
 40
0.7142857142857143
 40
0.7142857142857143
 40
0.7142857142857143
 40
1.0
 40
1.0
 40
1.0
 40
1.0
 10
1536.6850999999999203
 20
-483.8648000000000025
 30
0.0
 10
1536.6850999999999203
 20
-483.8648000000000025
 30
0.0
 10
1616.7079999999998563
 20
-483.8648000000000025
 30
0.0
 10
1616.7079999999998563
 20
-483.8648000000000025
 30
0.0
 10
1616.7079999999998563
 20
-483.8648000000000025
 30
0.0
 10
1616.7079999999998563
 20
-483.8648000000000025
 30
0.0
 10
1616.7079999999998563
 20
-456.3136000000000081
 30
0.0
 10
1616.7079999999998563
 20
-456.3136000000000081
 30
0.0
 10
1616.7079999999998563
 20
-456.3136000000000081
 30
0.0
 10
1616.7079999999998563
 20
-456.3136000000000081
 30
0.0
 10
1569.5990000000001601
 20
-456.3136000000000081
 30
0.0
 10
1569.5990000000001601
 20
-456.3136000000000081
 30
0.0
 10
1569.5990000000001601
 20
-456.3136000000000081
 30
0.0
 10
1569.5990000000001601
 20
-456.3136000000000081
 30
0.0
 10
1569.5990000000001601
 20
-359.4154000000000337
 30
0.0
 10
1569.5990000000001601
 20
-359.4154000000000337
 30
0.0
 10
1569.5990000000001601
 20
-359.4154000000000337
 30
0.0
 10
1569.5990000000001601
 20
-359.4154000000000337
 30
0.0
 10
1536.6850999999999203
 20
-359.4154000000000337
 30
0.0
 10
1536.6850999999999203
 20
-359.4154000000000337
 30
0.0
 10
1536.6850999999999203
 20
-359.4154000000000337
 30
0.0
 10
1536.6850999999999203
 20
-359.4154000000000337
 30
0.0
 10
1536.6850999999999203
 20
-483.8648000000000025
 30
0.0
 10
1536.6850999999999203
 20
-483.8648000000000025
 30
0.0
  0
SPLINE
  5
4C
  8
slova
 62
250
420
5526612
370
100
  6
BYLAYER
100
AcDbEntity
100
AcDbSpline
 70
8
 71
3
 72
52
 73
48
 74
0
 40
0.0
 40
0.0
 40
0.0
 40
0.0
 40
0.0769230769230769
 40
0.0769230769230769
 40
0.0769230769230769
 40
0.0769230769230769
 40
0.1538461538461539
 40
0.1538461538461539
 40
0.1538461538461539
 40
0.1538461538461539
 40
0.2307692307692308
 40
0.2307692307692308
 40
0.2307692307692308
 40
0.2307692307692308
 40
0.3076923076923077
 40
0.3076923076923077
 40
0.3076923076923077
 40
0.3076923076923077
 40
0.3846153846153846
 40
0.3846153846153846
 40
0.3846153846153846
 40
0.3846153846153846
 40
0.4615384615384616
 40
0.4615384615384616
 40
0.4615384615384616
 40
0.4615384615384616
 40
0.5384615384615384
 40
0.5384615384615384
 40
0.5384615384615384
 40
0.5384615384615384
 40
0.6153846153846154
 40
0.6153846153846154
 40
0.6153846153846154
 40
0.6153846153846154
 40
0.6923076923076923
 40
0.6923076923076923
 40
0.6923076923076923
 40
0.6923076923076923
 40
0.7692307692307693
 40
0.7692307692307693
 40
0.7692307692307693
 40
0.7692307692307693
 40
0.8461538461538461
 40
0.8461538461538461
 40
0.8461538461538461
 40
0.8461538461538461
 40
1.0
 40
1.0
 40
1.0
 40
1.0
 10
1639.4097999999999047
 20
-483.8648000000000025
 30
0.0
 10
1639.4097999999999047
 20
-483.8648000000000025
 30
0.0
 10
1721.7307000000000698
 20
-483.8648000000000025
 30
0.0
 10
1721.7307000000000698
 20
-483.8648000000000025
 30
0.0
 10
1721.7307000000000698
 20
-483.8648000000000025
 30
0.0
 10
1721.7307000000000698
 20
-483.8648000000000025
 30
0.0
 10
1721.7307000000000698
 20
-456.3136000000000081
 30
0.0
 10
1721.7307000000000698
 20
-456.3136000000000081
 30
0.0
 10
1721.7307000000000698
 20
-456.3136000000000081
 30
0.0
 10
1721.7307000000000698
 20
-456.3136000000000081
 30
0.0
 10
1672.3236999999999171
 20
-456.3136000000000081
 30
0.0
 10
1672.3236999999999171
 20
-456.3136000000000081
 30
0.0
 10
1672.3236999999999171
 20
-456.3136000000000081
 30
0.0
 10
1672.3236999999999171
 20
-456.3136000000000081
 30
0.0
 10
1672.3236999999999171
 20
-434.0755000000000337
 30
0.0
 10
1672.3236999999999171
 20
-434.0755000000000337
 30
0.0
 10
1672.3236999999999171
 20
-434.0755000000000337
 30
0.0
 10
1672.3236999999999171
 20
-434.0755000000000337
 30
0.0
 10
1712.9209000000000742
 20
-434.0755000000000337
 30
0.0
 10
1712.9209000000000742
 20
-434.0755000000000337
 30
0.0
 10
1712.9209000000000742
 20
-434.0755000000000337
 30
0.0
 10
1712.9209000000000742
 20
-434.0755000000000337
 30
0.0
 10
1712.9209000000000742
 20
-406.5244000000000142
 30
0.0
 10
1712.9209000000000742
 20
-406.5244000000000142
 30
0.0
 10
1712.9209000000000742
 20
-406.5244000000000142
 30
0.0
 10
1712.9209000000000742
 20
-406.5244000000000142
 30
0.0
 10
1672.3236999999999171
 20
-406.5244000000000142
 30
0.0
 10
1672.3236999999999171
 20
-406.5244000000000142
 30
0.0
 10
1672.3236999999999171
 20
-406.5244000000000142
 30
0.0
 10
1672.3236999999999171
 20
-406.5244000000000142
 30
0.0
 10
1672.3236999999999171
 20
-386.9664999999999964
 30
0.0
 10
1672.3236999999999171
 20
-386.9664999999999964
 30
0.0
 10
1672.3236999999999171
 20
-386.9664999999999964
 30
0.0
 10
1672.3236999999999171
 20
-386.9664999999999964
 30
0.0
 10
1719.8149000000000797
 20
-386.9664999999999964
 30
0.0
 10
1719.8149000000000797
 20
-386.9664999999999964
 30
0.0
 10
1719.8149000000000797
 20
-386.9664999999999964
 30
0.0
 10
1719.8149000000000797
 20
-386.9664999999999964
 30
0.0
 10
1719.8149000000000797
 20
-359.4154000000000337
 30
0.0
 10
1719.8149000000000797
 20
-359.4154000000000337
 30
0.0
 10
1719.8149000000000797
 20
-359.4154000000000337
 30
0.0
 10
1719.8149000000000797
 20
-359.4154000000000337
 30
0.0
 10
1639.4097999999999047
 20
-359.4154000000000337
 30
0.0
 10
1639.4097999999999047
 20
-359.4154000000000337
 30
0.0
 10
1639.4097999999999047
 20
-359.4154000000000337
 30
0.0
 10
1639.4097999999999047
 20
-359.4154000000000337
 30
0.0
 10
1639.4097999999999047
 20
-483.8648000000000025
 30
0.0
 10
1639.4097999999999047
 20
-483.8648000000000025
 30
0.0
  0
SPLINE
  5
4D
  8
slova
 62
250
420
5526612
370
100
  6
BYLAYER
100
AcDbEntity
100
AcDbSpline
 70
8
 71
3
 72
56
 73
52
 74
0
 40
0.0
 40
0.0
 40
0.0
 40
0.0
 40
0.0714285714285714
 40
0.0714285714285714
 40
0.0714285714285714
 40
0.0714285714285714
 40
0.1428571428571428
 40
0.1428571428571428
 40
0.1428571428571428
 40
0.1428571428571428
 40
0.2142857142857143
 40
0.2142857142857143
 40
0.2142857142857143
 40
0.2142857142857143
 40
0.2857142857142857
 40
0.2857142857142857
 40
0.2857142857142857
 40
0.2857142857142857
 40
0.3571428571428572
 40
0.3571428571428572
 40
0.3571428571428572
 40
0.3571428571428572
 40
0.4285714285714285
 40
0.4285714285714285
 40
0.4285714285714285
 40
0.4285714285714285
 40
0.5
 40
0.5
 40
0.5
 40
0.5
 40
0.5714285714285714
 40
0.5714285714285714
 40
0.5714285714285714
 40
0.5714285714285714
 40
0.6428571428571429
 40
0.6428571428571429
 40
0.6428571428571429
 40
0.6428571428571429
 40
0.7142857142857143
 40
0.7142857142857143
 40
0.7142857142857143
 40
0.7142857142857143
 40
0.7857142857142857
 40
0.7857142857142857
 40
0.7857142857142857
 40
0.7857142857142857
 40
0.8571428571428571
 40
0.8571428571428571
 40
0.8571428571428571
 40
0.8571428571428571
 40
1.0
 40
1.0
 40
1.0
 40
1.0
 10
1750.1526000000001204
 20
-483.8648000000000025
 30
0.0
 10
1750.1526000000001204
 20
-483.8648000000000025
 30
0.0
 10
1783.0664999999999054
 20
-483.8648000000000025
 30
0.0
 10
1783.0664999999999054
 20
-483.8648000000000025
 30
0.0
 10
1783.0664999999999054
 20
-483.8648000000000025
 30
0.0
 10
1783.0664999999999054
 20
-483.8648000000000025
 30
0.0
 10
1783.0664999999999054
 20
-452.8507999999999925
 30
0.0
 10
1783.0664999999999054
 20
-452.8507999999999925
 30
0.0
 10
1783.0664999999999054
 20
-452.8507999999999925
 30
0.0
 10
1783.0664999999999054
 20
-452.8507999999999925
 30
0.0
 10
1794.938799999999901
 20
-435.9980000000000473
 30
0.0
 10
1794.938799999999901
 20
-435.9980000000000473
 30
0.0
 10
1794.938799999999901
 20
-435.9980000000000473
 30
0.0
 10
1794.938799999999901
 20
-435.9980000000000473
 30
0.0
 10
1822.5148000000001502
 20
-483.8648000000000025
 30
0.0
 10
1822.5148000000001502
 20
-483.8648000000000025
 30
0.0
 10
1822.5148000000001502
 20
-483.8648000000000025
 30
0.0
 10
1822.5148000000001502
 20
-483.8648000000000025
 30
0.0
 10
1858.5160999999998239
 20
-483.8648000000000025
 30
0.0
 10
1858.5160999999998239
 20
-483.8648000000000025
 30
0.0
 10
1858.5160999999998239
 20
-483.8648000000000025
 30
0.0
 10
1858.5160999999998239
 20
-483.8648000000000025
 30
0.0
 10
1814.0895000000000437
 20
-409.9622999999999706
 30
0.0
 10
1814.0895000000000437
 20
-409.9622999999999706
 30
0.0
 10
1814.0895000000000437
 20
-409.9622999999999706
 30
0.0
 10
1814.0895000000000437
 20
-409.9622999999999706
 30
0.0
 10
1851.2398000000002867
 20
-359.4154000000000337
 30
0.0
 10
1851.2398000000002867
 20
-359.4154000000000337
 30
0.0
 10
1851.2398000000002867
 20
-359.4154000000000337
 30
0.0
 10
1851.2398000000002867
 20
-359.4154000000000337
 30
0.0
 10
1815.2385000000001583
 20
-359.4154000000000337
 30
0.0
 10
1815.2385000000001583
 20
-359.4154000000000337
 30
0.0
 10
1815.2385000000001583
 20
-359.4154000000000337
 30
0.0
 10
1815.2385000000001583
 20
-359.4154000000000337
 30
0.0
 10
1783.831000000000131
 20
-405.7486000000000104
 30
0.0
 10
1783.831000000000131
 20
-405.7486000000000104
 30
0.0
 10
1783.831000000000131
 20
-405.7486000000000104
 30
0.0
 10
1783.831000000000131
 20
-405.7486000000000104
 30
0.0
 10
1783.0664999999999054
 20
-405.7486000000000104
 30
0.0
 10
1783.0664999999999054
 20
-405.7486000000000104
 30
0.0
 10
1783.0664999999999054
 20
-405.7486000000000104
 30
0.0
 10
1783.0664999999999054
 20
-405.7486000000000104
 30
0.0
 10
1783.0664999999999054
 20
-359.4154000000000337
 30
0.0
 10
1783.0664999999999054
 20
-359.4154000000000337
 30
0.0
 10
1783.0664999999999054
 20
-359.4154000000000337
 30
0.0
 10
1783.0664999999999054
 20
-359.4154000000000337
 30
0.0
 10
1750.1526000000001204
 20
-359.4154000000000337
 30
0.0
 10
1750.1526000000001204
 20
-359.4154000000000337
 30
0.0
 10
1750.1526000000001204
 20
-359.4154000000000337
 30
0.0
 10
1750.1526000000001204
 20
-359.4154000000000337
 30
0.0
 10
1750.1526000000001204
 20
-483.8648000000000025
 30
0.0
 10
1750.1526000000001204
 20
-483.8648000000000025
 30
0.0
  0
SPLINE
  5
4E
  8
slova
 62
250
420
5526612
370
100
  6
BYLAYER
100
AcDbEntity
100
AcDbSpline
 70
8
 71
3
 72
36
 73
32
 74
0
 40
0.0
 40
0.0
 40
0.0
 40
0.0
 40
0.1111111111111111
 40
0.1111111111111111
 40
0.1111111111111111
 40
0.1111111111111111
 40
0.2222222222222222
 40
0.2222222222222222
 40
0.2222222222222222
 40
0.2222222222222222
 40
0.3333333333333333
 40
0.3333333333333333
 40
0.3333333333333333
 40
0.3333333333333333
 40
0.4444444444444444
 40
0.4444444444444444
 40
0.4444444444444444
 40
0.4444444444444444
 40
0.5555555555555556
 40
0.5555555555555556
 40
0.5555555555555556
 40
0.5555555555555556
 40
0.6666666666666666
 40
0.6666666666666666
 40
0.6666666666666666
 40
0.6666666666666666
 40
0.7777777777777778
 40
0.7777777777777778
 40
0.7777777777777778
 40
0.7777777777777778
 40
1.0
 40
1.0
 40
1.0
 40
1.0
 10
1901.2619999999997162
 20
-483.8648000000000025
 30
0.0
 10
1901.2619999999997162
 20
-483.8648000000000025
 30
0.0
 10
1934.175899999999956
 20
-483.8648000000000025
 30
0.0
 10
1934.175899999999956
 20
-483.8648000000000025
 30
0.0
 10
1934.175899999999956
 20
-483.8648000000000025
 30
0.0
 10
1934.175899999999956
 20
-483.8648000000000025
 30
0.0
 10
1934.175899999999956
 20
-386.9664999999999964
 30
0.0
 10
1934.175899999999956
 20
-386.9664999999999964
 30
0.0
 10
1934.175899999999956
 20
-386.9664999999999964
 30
0.0
 10
1934.175899999999956
 20
-386.9664999999999964
 30
0.0
 10
1967.1123999999999796
 20
-386.9664999999999964
 30
0.0
 10
1967.1123999999999796
 20
-386.9664999999999964
 30
0.0
 10
1967.1123999999999796
 20
-386.9664999999999964
 30
0.0
 10
1967.1123999999999796
 20
-386.9664999999999964
 30
0.0
 10
1967.1123999999999796
 20
-359.4154000000000337
 30
0.0
 10
1967.1123999999999796
 20
-359.4154000000000337
 30
0.0
 10
1967.1123999999999796
 20
-359.4154000000000337
 30
0.0
 10
1967.1123999999999796
 20
-359.4154000000000337
 30
0.0
 10
1868.3233000000000175
 20
-359.4154000000000337
 30
0.0
 10
1868.3233000000000175
 20
-359.4154000000000337
 30
0.0
 10
1868.3233000000000175
 20
-359.4154000000000337
 30
0.0
 10
1868.3233000000000175
 20
-359.4154000000000337
 30
0.0
 10
1868.3233000000000175
 20
-386.9664999999999964
 30
0.0
 10
1868.3233000000000175
 20
-386.9664999999999964
 30
0.0
 10
1868.3233000000000175
 20
-386.9664999999999964
 30
0.0
 10
1868.3233000000000175
 20
-386.9664999999999964
 30
0.0
 10
1901.2619999999997162
 20
-386.9664999999999964
 30
0.0
 10
1901.2619999999997162
 20
-386.9664999999999964
 30
0.0
 10
1901.2619999999997162
 20
-386.9664999999999964
 30
0.0
 10
1901.2619999999997162
 20
-386.9664999999999964
 30
0.0
 10
1901.2619999999997162
 20
-483.8648000000000025
 30
0.0
 10
1901.2619999999997162
 20
-483.8648000000000025
 30
0.0
  0
SPLINE
  5
4F
  8
slova
 62
250
420
5526612
370
100
  6
BYLAYER
100
AcDbEntity
100
AcDbSpline
 70
8
 71
3
 72
24
 73
20
 74
0
 40
0.0
 40
0.0
 40
0.0
 40
0.0
 40
0.1666666666666667
 40
0.1666666666666667
 40
0.1666666666666667
 40
0.1666666666666667
 40
0.3333333333333333
 40
0.3333333333333333
 40
0.3333333333333333
 40
0.3333333333333333
 40
0.5
 40
0.5
 40
0.5
 40
0.5
 40
0.6666666666666666
 40
0.6666666666666666
 40
0.6666666666666666
 40
0.6666666666666666
 40
1.0
 40
1.0
 40
1.0
 40
1.0
 10
2021.2127000000000407
 20
-385.4352000000000089
 30
0.0
 10
2021.2127000000000407
 20
-385.4352000000000089
 30
0.0
 10
2033.0939999999998236
 20
-385.4352000000000089
 30
0.0
 10
2033.0939999999998236
 20
-385.4352000000000089
 30
0.0
 10
2033.0939999999998236
 20
-385.4352000000000089
 30
0.0
 10
2046.1221000000000458
 20
-385.4352000000000089
 30
0.0
 10
2053.0250999999998385
 20
-388.8822999999999865
 30
0.0
 10
2053.0250999999998385
 20
-399.6145000000000209
 30
0.0
 10
2053.0250999999998385
 20
-399.6145000000000209
 30
0.0
 10
2053.0250999999998385
 20
-410.3445999999999572
 30
0.0
 10
2046.1221000000000458
 20
-416.0985999999999763
 30
0.0
 10
2033.0939999999998236
 20
-416.0985999999999763
 30
0.0
 10
2033.0939999999998236
 20
-416.0985999999999763
 30
0.0
 10
2033.0939999999998236
 20
-416.0985999999999763
 30
0.0
 10
2021.2127000000000407
 20
-416.0985999999999763
 30
0.0
 10
2021.2127000000000407
 20
-416.0985999999999763
 30
0.0
 10
2021.2127000000000407
 20
-416.0985999999999763
 30
0.0
 10
2021.2127000000000407
 20
-416.0985999999999763
 30
0.0
 10
2021.2127000000000407
 20
-385.4352000000000089
 30
0.0
 10
2021.2127000000000407
 20
-385.4352000000000089
 30
0.0
  0
SPLINE
  5
50
  8
slova
 62
250
420
5526612
370
100
  6
BYLAYER
100
AcDbEntity
100
AcDbSpline
 70
8
 71
3
 72
44
 73
40
 74
0
 40
0.0
 40
0.0
 40
0.0
 40
0.0
 40
0.0909090909090909
 40
0.0909090909090909
 40
0.0909090909090909
 40
0.0909090909090909
 40
0.1818181818181818
 40
0.1818181818181818
 40
0.1818181818181818
 40
0.1818181818181818
 40
0.2727272727272727
 40
0.2727272727272727
 40
0.2727272727272727
 40
0.2727272727272727
 40
0.3636363636363636
 40
0.3636363636363636
 40
0.3636363636363636
 40
0.3636363636363636
 40
0.4545454545454545
 40
0.4545454545454545
 40
0.4545454545454545
 40
0.4545454545454545
 40
0.5454545454545454
 40
0.5454545454545454
 40
0.5454545454545454
 40
0.5454545454545454
 40
0.6363636363636364
 40
0.6363636363636364
 40
0.6363636363636364
 40
0.6363636363636364
 40
0.7272727272727273
 40
0.7272727272727273
 40
0.7272727272727273
 40
0.7272727272727273
 40
0.8181818181818182
 40
0.8181818181818182
 40
0.8181818181818182
 40
0.8181818181818182
 40
1.0
 40
1.0
 40
1.0
 40
1.0
 10
2092.0661999999997533
 20
-483.8648000000000025
 30
0.0
 10
2092.0661999999997533
 20
-483.8648000000000025
 30
0.0
 10
2065.0806000000002314
 20
-435.6157999999999788
 30
0.0
 10
2065.0806000000002314
 20
-435.6157999999999788
 30
0.0
 10
2065.0806000000002314
 20
-435.6157999999999788
 30
0.0
 10
2077.138300000000072
 20
-429.1039999999999281
 30
0.0
 10
2085.1721999999999753
 20
-417.439899999999966
 30
0.0
 10
2085.1721999999999753
 20
-399.6145000000000209
 30
0.0
 10
2085.1721999999999753
 20
-399.6145000000000209
 30
0.0
 10
2085.1721999999999753
 20
-368.5982999999999947
 30
0.0
 10
2062.2080999999998312
 20
-359.4154000000000337
 30
0.0
 10
2035.3919999999998254
 20
-359.4154000000000337
 30
0.0
 10
2035.3919999999998254
 20
-359.4154000000000337
 30
0.0
 10
2035.3919999999998254
 20
-359.4154000000000337
 30
0.0
 10
1988.2988000000000284
 20
-359.4154000000000337
 30
0.0
 10
1988.2988000000000284
 20
-359.4154000000000337
 30
0.0
 10
1988.2988000000000284
 20
-359.4154000000000337
 30
0.0
 10
1988.2988000000000284
 20
-359.4154000000000337
 30
0.0
 10
1988.2988000000000284
 20
-483.8648000000000025
 30
0.0
 10
1988.2988000000000284
 20
-483.8648000000000025
 30
0.0
 10
1988.2988000000000284
 20
-483.8648000000000025
 30
0.0
 10
1988.2988000000000284
 20
-483.8648000000000025
 30
0.0
 10
2021.2127000000000407
 20
-483.8648000000000025
 30
0.0
 10
2021.2127000000000407
 20
-483.8648000000000025
 30
0.0
 10
2021.2127000000000407
 20
-483.8648000000000025
 30
0.0
 10
2021.2127000000000407
 20
-483.8648000000000025
 30
0.0
 10
2021.2127000000000407
 20
-442.1184999999999832
 30
0.0
 10
2021.2127000000000407
 20
-442.1184999999999832
 30
0.0
 10
2021.2127000000000407
 20
-442.1184999999999832
 30
0.0
 10
2021.2127000000000407
 20
-442.1184999999999832
 30
0.0
 10
2033.8585000000000491
 20
-442.1184999999999832
 30
0.0
 10
2033.8585000000000491
 20
-442.1184999999999832
 30
0.0
 10
2033.8585000000000491
 20
-442.1184999999999832
 30
0.0
 10
2033.8585000000000491
 20
-442.1184999999999832
 30
0.0
 10
2055.3231000000000677
 20
-483.8648000000000025
 30
0.0
 10
2055.3231000000000677
 20
-483.8648000000000025
 30
0.0
 10
2055.3231000000000677
 20
-483.8648000000000025
 30
0.0
 10
2055.3231000000000677
 20
-483.8648000000000025
 30
0.0
 10
2092.0661999999997533
 20
-483.8648000000000025
 30
0.0
 10
2092.0661999999997533
 20
-483.8648000000000025
 30
0.0
  0
SPLINE
  5
51
  8
slova
 62
250
420
5526612
370
100
  6
BYLAYER
100
AcDbEntity
100
AcDbSpline
 70
8
 71
3
 72
20
 73
16
 74
0
 40
0.0
 40
0.0
 40
0.0
 40
0.0
 40
0.2
 40
0.2
 40
0.2
 40
0.2
 40
0.4
 40
0.4
 40
0.4
 40
0.4
 40
0.6
 40
0.6
 40
0.6
 40
0.6
 40
1.0
 40
1.0
 40
1.0
 40
1.0
 10
2163.8877999999999702
 20
-486.1628000000000611
 30
0.0
 10
2198.3645999999998821
 20
-486.1628000000000611
 30
0.0
 10
2221.7133000000003449
 20
-462.0495999999999981
 30
0.0
 10
2221.7133000000003449
 20
-421.0609999999999786
 30
0.0
 10
2221.7133000000003449
 20
-421.0609999999999786
 30
0.0
 10
2221.7133000000003449
 20
-380.2715000000000032
 30
0.0
 10
2198.3645999999998821
 20
-357.1173999999999751
 30
0.0
 10
2163.8877999999999702
 20
-357.1173999999999751
 30
0.0
 10
2163.8877999999999702
 20
-357.1173999999999751
 30
0.0
 10
2129.4178000000001703
 20
-357.1173999999999751
 30
0.0
 10
2106.071400000000267
 20
-380.0815000000000055
 30
0.0
 10
2106.071400000000267
 20
-421.0609999999999786
 30
0.0
 10
2106.071400000000267
 20
-421.0609999999999786
 30
0.0
 10
2106.071400000000267
 20
-462.0495999999999981
 30
0.0
 10
2129.4178000000001703
 20
-486.1628000000000611
 30
0.0
 10
2163.8877999999999702
 20
-486.1628000000000611
 30
0.0
  0
SPLINE
  5
52
  8
slova
 62
250
420
5526612
370
100
  6
BYLAYER
100
AcDbEntity
100
AcDbSpline
 70
8
 71
3
 72
20
 73
16
 74
0
 40
0.0
 40
0.0
 40
0.0
 40
0.0
 40
0.2
 40
0.2
 40
0.2
 40
0.2
 40
0.4
 40
0.4
 40
0.4
 40
0.4
 40
0.6
 40
0.6
 40
0.6
 40
0.6
 40
1.0
 40
1.0
 40
1.0
 40
1.0
 10
2163.8877999999999702
 20
-457.8448999999999955
 30
0.0
 10
2148.9418000000000575
 20
-457.8448999999999955
 30
0.0
 10
2139.7498000000000502
 20
-443.6655999999999835
 30
0.0
 10
2139.7498000000000502
 20
-421.0609999999999786
 30
0.0
 10
2139.7498000000000502
 20
-421.0609999999999786
 30
0.0
 10
2139.7498000000000502
 20
-398.4565000000000055
 30
0.0
 10
2148.9418000000000575
 20
-385.4352000000000089
 30
0.0
 10
2163.8877999999999702
 20
-385.4352000000000089
 30
0.0
 10
2163.8877999999999702
 20
-385.4352000000000089
 30
0.0
 10
2178.8315999999999804
 20
-385.4352000000000089
 30
0.0
 10
2188.0326999999997497
 20
-398.4565000000000055
 30
0.0
 10
2188.0326999999997497
 20
-421.0609999999999786
 30
0.0
 10
2188.0326999999997497
 20
-421.0609999999999786
 30
0.0
 10
2188.0326999999997497
 20
-443.6655999999999835
 30
0.0
 10
2178.8315999999999804
 20
-457.8448999999999955
 30
0.0
 10
2163.8877999999999702
 20
-457.8448999999999955
 30
0.0
  0
SPLINE
  5
53
  8
slova
 62
250
420
5526612
370
100
  6
BYLAYER
100
AcDbEntity
100
AcDbSpline
 70
8
 71
3
 72
68
 73
64
 74
0
 40
0.0
 40
0.0
 40
0.0
 40
0.0
 40
0.0588235294117647
 40
0.0588235294117647
 40
0.0588235294117647
 40
0.0588235294117647
 40
0.1176470588235294
 40
0.1176470588235294
 40
0.1176470588235294
 40
0.1176470588235294
 40
0.1764705882352941
 40
0.1764705882352941
 40
0.1764705882352941
 40
0.1764705882352941
 40
0.2352941176470588
 40
0.2352941176470588
 40
0.2352941176470588
 40
0.2352941176470588
 40
0.2941176470588235
 40
0.2941176470588235
 40
0.2941176470588235
 40
0.2941176470588235
 40
0.3529411764705883
 40
0.3529411764705883
 40
0.3529411764705883
 40
0.3529411764705883
 40
0.4117647058823529
 40
0.4117647058823529
 40
0.4117647058823529
 40
0.4117647058823529
 40
0.4705882352941176
 40
0.4705882352941176
 40
0.4705882352941176
 40
0.4705882352941176
 40
0.5294117647058824
 40
0.5294117647058824
 40
0.5294117647058824
 40
0.5294117647058824
 40
0.5882352941176471
 40
0.5882352941176471
 40
0.5882352941176471
 40
0.5882352941176471
 40
0.6470588235294118
 40
0.6470588235294118
 40
0.6470588235294118
 40
0.6470588235294118
 40
0.7058823529411765
 40
0.7058823529411765
 40
0.7058823529411765
 40
0.7058823529411765
 40
0.7647058823529411
 40
0.7647058823529411
 40
0.7647058823529411
 40
0.7647058823529411
 40
0.8235294117647058
 40
0.8235294117647058
 40
0.8235294117647058
 40
0.8235294117647058
 40
0.8823529411764706
 40
0.8823529411764706
 40
0.8823529411764706
 40
0.8823529411764706
 40
1.0
 40
1.0
 40
1.0
 40
1.0
 10
2247.7716000000000349
 20
-483.8648000000000025
 30
0.0
 10
2247.7716000000000349
 20
-483.8648000000000025
 30
0.0
 10
2279.1543000000001484
 20
-483.8648000000000025
 30
0.0
 10
2279.1543000000001484
 20
-483.8648000000000025
 30
0.0
 10
2279.1543000000001484
 20
-483.8648000000000025
 30
0.0
 10
2279.1543000000001484
 20
-483.8648000000000025
 30
0.0
 10
2279.1543000000001484
 20
-447.872600000000034
 30
0.0
 10
2279.1543000000001484
 20
-447.872600000000034
 30
0.0
 10
2279.1543000000001484
 20
-447.872600000000034
 30
0.0
 10
2279.1543000000001484
 20
-432.5509999999999877
 30
0.0
 10
2276.4807999999998174
 20
-414.5582999999999743
 30
0.0
 10
2274.9495999999999185
 20
-400.3881000000000085
 30
0.0
 10
2274.9495999999999185
 20
-400.3881000000000085
 30
0.0
 10
2274.9495999999999185
 20
-400.3881000000000085
 30
0.0
 10
2275.7163000000000466
 20
-400.3881000000000085
 30
0.0
 10
2275.7163000000000466
 20
-400.3881000000000085
 30
0.0
 10
2275.7163000000000466
 20
-400.3881000000000085
 30
0.0
 10
2275.7163000000000466
 20
-400.3881000000000085
 30
0.0
 10
2287.5886000000000422
 20
-428.1472999999999729
 30
0.0
 10
2287.5886000000000422
 20
-428.1472999999999729
 30
0.0
 10
2287.5886000000000422
 20
-428.1472999999999729
 30
0.0
 10
2287.5886000000000422
 20
-428.1472999999999729
 30
0.0
 10
2315.1803999999997359
 20
-483.8648000000000025
 30
0.0
 10
2315.1803999999997359
 20
-483.8648000000000025
 30
0.0
 10
2315.1803999999997359
 20
-483.8648000000000025
 30
0.0
 10
2315.1803999999997359
 20
-483.8648000000000025
 30
0.0
 10
2348.8611000000000786
 20
-483.8648000000000025
 30
0.0
 10
2348.8611000000000786
 20
-483.8648000000000025
 30
0.0
 10
2348.8611000000000786
 20
-483.8648000000000025
 30
0.0
 10
2348.8611000000000786
 20
-483.8648000000000025
 30
0.0
 10
2348.8611000000000786
 20
-359.4154000000000337
 30
0.0
 10
2348.8611000000000786
 20
-359.4154000000000337
 30
0.0
 10
2348.8611000000000786
 20
-359.4154000000000337
 30
0.0
 10
2348.8611000000000786
 20
-359.4154000000000337
 30
0.0
 10
2317.4783999999999651
 20
-359.4154000000000337
 30
0.0
 10
2317.4783999999999651
 20
-359.4154000000000337
 30
0.0
 10
2317.4783999999999651
 20
-359.4154000000000337
 30
0.0
 10
2317.4783999999999651
 20
-359.4154000000000337
 30
0.0
 10
2317.4783999999999651
 20
-395.4076000000000022
 30
0.0
 10
2317.4783999999999651
 20
-395.4076000000000022
 30
0.0
 10
2317.4783999999999651
 20
-395.4076000000000022
 30
0.0
 10
2317.4783999999999651
 20
-410.7291000000000167
 30
0.0
 10
2320.1586999999999534
 20
-429.4885999999999626
 30
0.0
 10
2321.6921999999999571
 20
-442.8919999999999959
 30
0.0
 10
2321.6921999999999571
 20
-442.8919999999999959
 30
0.0
 10
2321.6921999999999571
 20
-442.8919999999999959
 30
0.0
 10
2320.9254000000000815
 20
-442.8919999999999959
 30
0.0
 10
2320.9254000000000815
 20
-442.8919999999999959
 30
0.0
 10
2320.9254000000000815
 20
-442.8919999999999959
 30
0.0
 10
2320.9254000000000815
 20
-442.8919999999999959
 30
0.0
 10
2309.0532000000002881
 20
-414.9406000000000176
 30
0.0
 10
2309.0532000000002881
 20
-414.9406000000000176
 30
0.0
 10
2309.0532000000002881
 20
-414.9406000000000176
 30
0.0
 10
2309.0532000000002881
 20
-414.9406000000000176
 30
0.0
 10
2281.4612999999999374
 20
-359.4154000000000337
 30
0.0
 10
2281.4612999999999374
 20
-359.4154000000000337
 30
0.0
 10
2281.4612999999999374
 20
-359.4154000000000337
 30
0.0
 10
2281.4612999999999374
 20
-359.4154000000000337
 30
0.0
 10
2247.7716000000000349
 20
-359.4154000000000337
 30
0.0
 10
2247.7716000000000349
 20
-359.4154000000000337
 30
0.0
 10
2247.7716000000000349
 20
-359.4154000000000337
 30
0.0
 10
2247.7716000000000349
 20
-359.4154000000000337
 30
0.0
 10
2247.7716000000000349
 20
-483.8648000000000025
 30
0.0
 10
2247.7716000000000349
 20
-483.8648000000000025
 30
0.0
  0
SPLINE
  5
54
  8
slova
 62
250
420
5526612
370
100
  6
BYLAYER
100
AcDbEntity
100
AcDbSpline
 70
8
 71
3
 72
20
 73
16
 74
0
 40
0.0
 40
0.0
 40
0.0
 40
0.0
 40
0.2
 40
0.2
 40
0.2
 40
0.2
 40
0.4
 40
0.4
 40
0.4
 40
0.4
 40
0.6
 40
0.6
 40
0.6
 40
0.6
 40
1.0
 40
1.0
 40
1.0
 40
1.0
 10
2380.7368000000001302
 20
-483.8648000000000025
 30
0.0
 10
2380.7368000000001302
 20
-483.8648000000000025
 30
0.0
 10
2413.6507000000001426
 20
-483.8648000000000025
 30
0.0
 10
2413.6507000000001426
 20
-483.8648000000000025
 30
0.0
 10
2413.6507000000001426
 20
-483.8648000000000025
 30
0.0
 10
2413.6507000000001426
 20
-483.8648000000000025
 30
0.0
 10
2413.6507000000001426
 20
-359.4154000000000337
 30
0.0
 10
2413.6507000000001426
 20
-359.4154000000000337
 30
0.0
 10
2413.6507000000001426
 20
-359.4154000000000337
 30
0.0
 10
2413.6507000000001426
 20
-359.4154000000000337
 30
0.0
 10
2380.7368000000001302
 20
-359.4154000000000337
 30
0.0
 10
2380.7368000000001302
 20
-359.4154000000000337
 30
0.0
 10
2380.7368000000001302
 20
-359.4154000000000337
 30
0.0
 10
2380.7368000000001302
 20
-359.4154000000000337
 30
0.0
 10
2380.7368000000001302
 20
-483.8648000000000025
 30
0.0
 10
2380.7368000000001302
 20
-483.8648000000000025
 30
0.0
  0
SPLINE
  5
55
  8
slova
 62
250
420
5526612
370
100
  6
BYLAYER
100
AcDbEntity
100
AcDbSpline
 70
8
 71
3
 72
56
 73
52
 74
0
 40
0.0
 40
0.0
 40
0.0
 40
0.0
 40
0.0714285714285714
 40
0.0714285714285714
 40
0.0714285714285714
 40
0.0714285714285714
 40
0.1428571428571428
 40
0.1428571428571428
 40
0.1428571428571428
 40
0.1428571428571428
 40
0.2142857142857143
 40
0.2142857142857143
 40
0.2142857142857143
 40
0.2142857142857143
 40
0.2857142857142857
 40
0.2857142857142857
 40
0.2857142857142857
 40
0.2857142857142857
 40
0.3571428571428572
 40
0.3571428571428572
 40
0.3571428571428572
 40
0.3571428571428572
 40
0.4285714285714285
 40
0.4285714285714285
 40
0.4285714285714285
 40
0.4285714285714285
 40
0.5
 40
0.5
 40
0.5
 40
0.5
 40
0.5714285714285714
 40
0.5714285714285714
 40
0.5714285714285714
 40
0.5714285714285714
 40
0.6428571428571429
 40
0.6428571428571429
 40
0.6428571428571429
 40
0.6428571428571429
 40
0.7142857142857143
 40
0.7142857142857143
 40
0.7142857142857143
 40
0.7142857142857143
 40
0.7857142857142857
 40
0.7857142857142857
 40
0.7857142857142857
 40
0.7857142857142857
 40
0.8571428571428571
 40
0.8571428571428571
 40
0.8571428571428571
 40
0.8571428571428571
 40
1.0
 40
1.0
 40
1.0
 40
1.0
 10
2445.2096999999998843
 20
-483.8648000000000025
 30
0.0
 10
2445.2096999999998843
 20
-483.8648000000000025
 30
0.0
 10
2478.1235999999998967
 20
-483.8648000000000025
 30
0.0
 10
2478.1235999999998967
 20
-483.8648000000000025
 30
0.0
 10
2478.1235999999998967
 20
-483.8648000000000025
 30
0.0
 10
2478.1235999999998967
 20
-483.8648000000000025
 30
0.0
 10
2478.1235999999998967
 20
-452.8507999999999925
 30
0.0
 10
2478.1235999999998967
 20
-452.8507999999999925
 30
0.0
 10
2478.1235999999998967
 20
-452.8507999999999925
 30
0.0
 10
2478.1235999999998967
 20
-452.8507999999999925
 30
0.0
 10
2489.9958999999998923
 20
-435.9980000000000473
 30
0.0
 10
2489.9958999999998923
 20
-435.9980000000000473
 30
0.0
 10
2489.9958999999998923
 20
-435.9980000000000473
 30
0.0
 10
2489.9958999999998923
 20
-435.9980000000000473
 30
0.0
 10
2517.5718999999999141
 20
-483.8648000000000025
 30
0.0
 10
2517.5718999999999141
 20
-483.8648000000000025
 30
0.0
 10
2517.5718999999999141
 20
-483.8648000000000025
 30
0.0
 10
2517.5718999999999141
 20
-483.8648000000000025
 30
0.0
 10
2553.5754000000001724
 20
-483.8648000000000025
 30
0.0
 10
2553.5754000000001724
 20
-483.8648000000000025
 30
0.0
 10
2553.5754000000001724
 20
-483.8648000000000025
 30
0.0
 10
2553.5754000000001724
 20
-483.8648000000000025
 30
0.0
 10
2509.1467000000002372
 20
-409.9622999999999706
 30
0.0
 10
2509.1467000000002372
 20
-409.9622999999999706
 30
0.0
 10
2509.1467000000002372
 20
-409.9622999999999706
 30
0.0
 10
2509.1467000000002372
 20
-409.9622999999999706
 30
0.0
 10
2546.2968999999998232
 20
-359.4154000000000337
 30
0.0
 10
2546.2968999999998232
 20
-359.4154000000000337
 30
0.0
 10
2546.2968999999998232
 20
-359.4154000000000337
 30
0.0
 10
2546.2968999999998232
 20
-359.4154000000000337
 30
0.0
 10
2510.2957000000001244
 20
-359.4154000000000337
 30
0.0
 10
2510.2957000000001244
 20
-359.4154000000000337
 30
0.0
 10
2510.2957000000001244
 20
-359.4154000000000337
 30
0.0
 10
2510.2957000000001244
 20
-359.4154000000000337
 30
0.0
 10
2478.8903999999997723
 20
-405.7486000000000104
 30
0.0
 10
2478.8903999999997723
 20
-405.7486000000000104
 30
0.0
 10
2478.8903999999997723
 20
-405.7486000000000104
 30
0.0
 10
2478.8903999999997723
 20
-405.7486000000000104
 30
0.0
 10
2478.1235999999998967
 20
-405.7486000000000104
 30
0.0
 10
2478.1235999999998967
 20
-405.7486000000000104
 30
0.0
 10
2478.1235999999998967
 20
-405.7486000000000104
 30
0.0
 10
2478.1235999999998967
 20
-405.7486000000000104
 30
0.0
 10
2478.1235999999998967
 20
-359.4154000000000337
 30
0.0
 10
2478.1235999999998967
 20
-359.4154000000000337
 30
0.0
 10
2478.1235999999998967
 20
-359.4154000000000337
 30
0.0
 10
2478.1235999999998967
 20
-359.4154000000000337
 30
0.0
 10
2445.2096999999998843
 20
-359.4154000000000337
 30
0.0
 10
2445.2096999999998843
 20
-359.4154000000000337
 30
0.0
 10
2445.2096999999998843
 20
-359.4154000000000337
 30
0.0
 10
2445.2096999999998843
 20
-359.4154000000000337
 30
0.0
 10
2445.2096999999998843
 20
-483.8648000000000025
 30
0.0
 10
2445.2096999999998843
 20
-483.8648000000000025
 30
0.0
  0
SPLINE
  5
56
  8
slova
 62
250
420
5526612
370
100
  6
BYLAYER
100
AcDbEntity
100
AcDbSpline
 70
8
 71
3
 72
28
 73
24
 74
0
 40
0.0
 40
0.0
 40
0.0
 40
0.0
 40
0.1428571428571428
 40
0.1428571428571428
 40
0.1428571428571428
 40
0.1428571428571428
 40
0.2857142857142857
 40
0.2857142857142857
 40
0.2857142857142857
 40
0.2857142857142857
 40
0.4285714285714285
 40
0.4285714285714285
 40
0.4285714285714285
 40
0.4285714285714285
 40
0.5714285714285714
 40
0.5714285714285714
 40
0.5714285714285714
 40
0.5714285714285714
 40
0.7142857142857143
 40
0.7142857142857143
 40
0.7142857142857143
 40
0.7142857142857143
 40
1.0
 40
1.0
 40
1.0
 40
1.0
 10
2609.6593000000002576
 20
-431.9924000000000319
 30
0.0
 10
2609.6593000000002576
 20
-431.9924000000000319
 30
0.0
 10
2611.7673000000004322
 20
-423.3681000000000267
 30
0.0
 10
2611.7673000000004322
 20
-423.3681000000000267
 30
0.0
 10
2611.7673000000004322
 20
-423.3681000000000267
 30
0.0
 10
2614.8297999999999774
 20
-411.4936000000000149
 30
0.0
 10
2617.8946000000000822
 20
-396.5498000000000047
 30
0.0
 10
2620.5747999999998683
 20
-383.9017000000000053
 30
0.0
 10
2620.5747999999998683
 20
-383.9017000000000053
 30
0.0
 10
2620.5747999999998683
 20
-383.9017000000000053
 30
0.0
 10
2621.3416000000001986
 20
-383.9017000000000053
 30
0.0
 10
2621.3416000000001986
 20
-383.9017000000000053
 30
0.0
 10
2621.3416000000001986
 20
-383.9017000000000053
 30
0.0
 10
2624.4063000000001011
 20
-396.3575000000000159
 30
0.0
 10
2627.4688000000005559
 20
-411.4936000000000149
 30
0.0
 10
2630.5245000000004438
 20
-423.3681000000000267
 30
0.0
 10
2630.5245000000004438
 20
-423.3681000000000267
 30
0.0
 10
2630.5245000000004438
 20
-423.3681000000000267
 30
0.0
 10
2632.632499999999709
 20
-431.9924000000000319
 30
0.0
 10
2632.632499999999709
 20
-431.9924000000000319
 30
0.0
 10
2632.632499999999709
 20
-431.9924000000000319
 30
0.0
 10
2632.632499999999709
 20
-431.9924000000000319
 30
0.0
 10
2609.6593000000002576
 20
-431.9924000000000319
 30
0.0
 10
2609.6593000000002576
 20
-431.9924000000000319
 30
0.0
  0
SPLINE
  5
57
  8
slova
 62
250
420
5526612
370
100
  6
BYLAYER
100
AcDbEntity
100
AcDbSpline
 70
8
 71
3
 72
36
 73
32
 74
0
 40
0.0
 40
0.0
 40
0.0
 40
0.0
 40
0.1111111111111111
 40
0.1111111111111111
 40
0.1111111111111111
 40
0.1111111111111111
 40
0.2222222222222222
 40
0.2222222222222222
 40
0.2222222222222222
 40
0.2222222222222222
 40
0.3333333333333333
 40
0.3333333333333333
 40
0.3333333333333333
 40
0.3333333333333333
 40
0.4444444444444444
 40
0.4444444444444444
 40
0.4444444444444444
 40
0.4444444444444444
 40
0.5555555555555556
 40
0.5555555555555556
 40
0.5555555555555556
 40
0.5555555555555556
 40
0.6666666666666666
 40
0.6666666666666666
 40
0.6666666666666666
 40
0.6666666666666666
 40
0.7777777777777778
 40
0.7777777777777778
 40
0.7777777777777778
 40
0.7777777777777778
 40
1.0
 40
1.0
 40
1.0
 40
1.0
 10
2644.6970000000001164
 20
-483.8648000000000025
 30
0.0
 10
2644.6970000000001164
 20
-483.8648000000000025
 30
0.0
 10
2679.5425000000000182
 20
-483.8648000000000025
 30
0.0
 10
2679.5425000000000182
 20
-483.8648000000000025
 30
0.0
 10
2679.5425000000000182
 20
-483.8648000000000025
 30
0.0
 10
2679.5425000000000182
 20
-483.8648000000000025
 30
0.0
 10
2641.6323000000002139
 20
-359.4154000000000337
 30
0.0
 10
2641.6323000000002139
 20
-359.4154000000000337
 30
0.0
 10
2641.6323000000002139
 20
-359.4154000000000337
 30
0.0
 10
2641.6323000000002139
 20
-359.4154000000000337
 30
0.0
 10
2601.8085999999998421
 20
-359.4154000000000337
 30
0.0
 10
2601.8085999999998421
 20
-359.4154000000000337
 30
0.0
 10
2601.8085999999998421
 20
-359.4154000000000337
 30
0.0
 10
2601.8085999999998421
 20
-359.4154000000000337
 30
0.0
 10
2563.8983000000002903
 20
-483.8648000000000025
 30
0.0
 10
2563.8983000000002903
 20
-483.8648000000000025
 30
0.0
 10
2563.8983000000002903
 20
-483.8648000000000025
 30
0.0
 10
2563.8983000000002903
 20
-483.8648000000000025
 30
0.0
 10
2597.5947999999998501
 20
-483.8648000000000025
 30
0.0
 10
2597.5947999999998501
 20
-483.8648000000000025
 30
0.0
 10
2597.5947999999998501
 20
-483.8648000000000025
 30
0.0
 10
2597.5947999999998501
 20
-483.8648000000000025
 30
0.0
 10
2603.7242999999998574
 20
-457.4378000000000384
 30
0.0
 10
2603.7242999999998574
 20
-457.4378000000000384
 30
0.0
 10
2603.7242999999998574
 20
-457.4378000000000384
 30
0.0
 10
2603.7242999999998574
 20
-457.4378000000000384
 30
0.0
 10
2638.5675000000001091
 20
-457.4378000000000384
 30
0.0
 10
2638.5675000000001091
 20
-457.4378000000000384
 30
0.0
 10
2638.5675000000001091
 20
-457.4378000000000384
 30
0.0
 10
2638.5675000000001091
 20
-457.4378000000000384
 30
0.0
 10
2644.6970000000001164
 20
-483.8648000000000025
 30
0.0
 10
2644.6970000000001164
 20
-483.8648000000000025
 30
0.0
  0
SPLINE
  5
58
  8
slova
 62
250
420
5526612
370
100
  6
BYLAYER
100
AcDbEntity
100
AcDbSpline
 70
8
 71
3
 72
52
 73
48
 74
0
 40
0.0
 40
0.0
 40
0.0
 40
0.0
 40
0.0769230769230769
 40
0.0769230769230769
 40
0.0769230769230769
 40
0.0769230769230769
 40
0.1538461538461539
 40
0.1538461538461539
 40
0.1538461538461539
 40
0.1538461538461539
 40
0.2307692307692308
 40
0.2307692307692308
 40
0.2307692307692308
 40
0.2307692307692308
 40
0.3076923076923077
 40
0.3076923076923077
 40
0.3076923076923077
 40
0.3076923076923077
 40
0.3846153846153846
 40
0.3846153846153846
 40
0.3846153846153846
 40
0.3846153846153846
 40
0.4615384615384616
 40
0.4615384615384616
 40
0.4615384615384616
 40
0.4615384615384616
 40
0.5384615384615384
 40
0.5384615384615384
 40
0.5384615384615384
 40
0.5384615384615384
 40
0.6153846153846154
 40
0.6153846153846154
 40
0.6153846153846154
 40
0.6153846153846154
 40
0.6923076923076923
 40
0.6923076923076923
 40
0.6923076923076923
 40
0.6923076923076923
 40
0.7692307692307693
 40
0.7692307692307693
 40
0.7692307692307693
 40
0.7692307692307693
 40
0.8461538461538461
 40
0.8461538461538461
 40
0.8461538461538461
 40
0.8461538461538461
 40
1.0
 40
1.0
 40
1.0
 40
1.0
 10
641.9767000000000507
 20
-483.8670999999999935
 30
0.0
 10
641.9767000000000507
 20
-483.8670999999999935
 30
0.0
 10
674.8905999999999494
 20
-483.8670999999999935
 30
0.0
 10
674.8905999999999494
 20
-483.8670999999999935
 30
0.0
 10
674.8905999999999494
 20
-483.8670999999999935
 30
0.0
 10
674.8905999999999494
 20
-483.8670999999999935
 30
0.0
 10
674.8905999999999494
 20
-434.4599999999999795
 30
0.0
 10
674.8905999999999494
 20
-434.4599999999999795
 30
0.0
 10
674.8905999999999494
 20
-434.4599999999999795
 30
0.0
 10
674.8905999999999494
 20
-434.4599999999999795
 30
0.0
 10
712.0656999999999925
 20
-434.4599999999999795
 30
0.0
 10
712.0656999999999925
 20
-434.4599999999999795
 30
0.0
 10
712.0656999999999925
 20
-434.4599999999999795
 30
0.0
 10
712.0656999999999925
 20
-434.4599999999999795
 30
0.0
 10
712.0656999999999925
 20
-483.8670999999999935
 30
0.0
 10
712.0656999999999925
 20
-483.8670999999999935
 30
0.0
 10
712.0656999999999925
 20
-483.8670999999999935
 30
0.0
 10
712.0656999999999925
 20
-483.8670999999999935
 30
0.0
 10
744.9796000000001186
 20
-483.8670999999999935
 30
0.0
 10
744.9796000000001186
 20
-483.8670999999999935
 30
0.0
 10
744.9796000000001186
 20
-483.8670999999999935
 30
0.0
 10
744.9796000000001186
 20
-483.8670999999999935
 30
0.0
 10
744.9796000000001186
 20
-359.4154000000000337
 30
0.0
 10
744.9796000000001186
 20
-359.4154000000000337
 30
0.0
 10
744.9796000000001186
 20
-359.4154000000000337
 30
0.0
 10
744.9796000000001186
 20
-359.4154000000000337
 30
0.0
 10
712.0656999999999925
 20
-359.4154000000000337
 30
0.0
 10
712.0656999999999925
 20
-359.4154000000000337
 30
0.0
 10
712.0656999999999925
 20
-359.4154000000000337
 30
0.0
 10
712.0656999999999925
 20
-359.4154000000000337
 30
0.0
 10
712.0656999999999925
 20
-405.759900000000016
 30
0.0
 10
712.0656999999999925
 20
-405.759900000000016
 30
0.0
 10
712.0656999999999925
 20
-405.759900000000016
 30
0.0
 10
712.0656999999999925
 20
-405.759900000000016
 30
0.0
 10
674.8905999999999494
 20
-405.759900000000016
 30
0.0
 10
674.8905999999999494
 20
-405.759900000000016
 30
0.0
 10
674.8905999999999494
 20
-405.759900000000016
 30
0.0
 10
674.8905999999999494
 20
-405.759900000000016
 30
0.0
 10
674.8905999999999494
 20
-359.4154000000000337
 30
0.0
 10
674.8905999999999494
 20
-359.4154000000000337
 30
0.0
 10
674.8905999999999494
 20
-359.4154000000000337
 30
0.0
 10
674.8905999999999494
 20
-359.4154000000000337
 30
0.0
 10
641.9767000000000507
 20
-359.4154000000000337
 30
0.0
 10
641.9767000000000507
 20
-359.4154000000000337
 30
0.0
 10
641.9767000000000507
 20
-359.4154000000000337
 30
0.0
 10
641.9767000000000507
 20
-359.4154000000000337
 30
0.0
 10
641.9767000000000507
 20
-483.8670999999999935
 30
0.0
 10
641.9767000000000507
 20
-483.8670999999999935
 30
0.0
  0
SPLINE
  5
59
  8
slova
 62
250
420
5526612
370
100
  6
BYLAYER
100
AcDbEntity
100
AcDbSpline
 70
8
 71
3
 72
20
 73
16
 74
0
 40
0.0
 40
0.0
 40
0.0
 40
0.0
 40
0.2
 40
0.2
 40
0.2
 40
0.2
 40
0.4
 40
0.4
 40
0.4
 40
0.4
 40
0.6
 40
0.6
 40
0.6
 40
0.6
 40
1.0
 40
1.0
 40
1.0
 40
1.0
 10
829.2162999999999329
 20
-486.1650999999999954
 30
0.0
 10
863.6862999999999602
 20
-486.1650999999999954
 30
0.0
 10
887.0326999999999771
 20
-462.051900000000046
 30
0.0
 10
887.0326999999999771
 20
-421.0633000000000266
 30
0.0
 10
887.0326999999999771
 20
-421.0633000000000266
 30
0.0
 10
887.0326999999999771
 20
-380.2647999999999797
 30
0.0
 10
863.6862999999999602
 20
-357.1173999999999751
 30
0.0
 10
829.2162999999999329
 20
-357.1173999999999751
 30
0.0
 10
829.2162999999999329
 20
-357.1173999999999751
 30
0.0
 10
794.7372000000000298
 20
-357.1173999999999751
 30
0.0
 10
771.3908000000001266
 20
-380.0816000000000372
 30
0.0
 10
771.3908000000001266
 20
-421.0633000000000266
 30
0.0
 10
771.3908000000001266
 20
-421.0633000000000266
 30
0.0
 10
771.3908000000001266
 20
-462.051900000000046
 30
0.0
 10
794.7372000000000298
 20
-486.1650999999999954
 30
0.0
 10
829.2162999999999329
 20
-486.1650999999999954
 30
0.0
  0
SPLINE
  5
5A
  8
slova
 62
250
420
5526612
370
100
  6
BYLAYER
100
AcDbEntity
100
AcDbSpline
 70
8
 71
3
 72
20
 73
16
 74
0
 40
0.0
 40
0.0
 40
0.0
 40
0.0
 40
0.2
 40
0.2
 40
0.2
 40
0.2
 40
0.4
 40
0.4
 40
0.4
 40
0.4
 40
0.6
 40
0.6
 40
0.6
 40
0.6
 40
1.0
 40
1.0
 40
1.0
 40
1.0
 10
829.2162999999999329
 20
-457.8471999999999866
 30
0.0
 10
814.2701999999999316
 20
-457.8471999999999866
 30
0.0
 10
805.0715000000000146
 20
-443.6679000000000315
 30
0.0
 10
805.0715000000000146
 20
-421.0633000000000266
 30
0.0
 10
805.0715000000000146
 20
-421.0633000000000266
 30
0.0
 10
805.0715000000000146
 20
-398.4587999999999965
 30
0.0
 10
814.2701999999999316
 20
-385.4353000000000407
 30
0.0
 10
829.2162999999999329
 20
-385.4353000000000407
 30
0.0
 10
829.2162999999999329
 20
-385.4353000000000407
 30
0.0
 10
844.1532999999999447
 20
-385.4353000000000407
 30
0.0
 10
853.3520999999998367
 20
-398.4587999999999965
 30
0.0
 10
853.3520999999998367
 20
-421.0633000000000266
 30
0.0
 10
853.3520999999998367
 20
-421.0633000000000266
 30
0.0
 10
853.3520999999998367
 20
-443.6679000000000315
 30
0.0
 10
844.1532999999999447
 20
-457.8471999999999866
 30
0.0
 10
829.2162999999999329
 20
-457.8471999999999866
 30
0.0
  0
SPLINE
  5
5B
  8
slova
 62
250
420
5526612
370
100
  6
BYLAYER
100
AcDbEntity
100
AcDbSpline
 70
8
 71
3
 72
24
 73
20
 74
0
 40
0.0
 40
0.0
 40
0.0
 40
0.0
 40
0.1666666666666667
 40
0.1666666666666667
 40
0.1666666666666667
 40
0.1666666666666667
 40
0.3333333333333333
 40
0.3333333333333333
 40
0.3333333333333333
 40
0.3333333333333333
 40
0.5
 40
0.5
 40
0.5
 40
0.5
 40
0.6666666666666666
 40
0.6666666666666666
 40
0.6666666666666666
 40
0.6666666666666666
 40
1.0
 40
1.0
 40
1.0
 40
1.0
 10
946.01400000000001
 20
-385.4353000000000407
 30
0.0
 10
946.01400000000001
 20
-385.4353000000000407
 30
0.0
 10
957.8953000000000202
 20
-385.4353000000000407
 30
0.0
 10
957.8953000000000202
 20
-385.4353000000000407
 30
0.0
 10
957.8953000000000202
 20
-385.4353000000000407
 30
0.0
 10
970.9255999999999176
 20
-385.4353000000000407
 30
0.0
 10
977.8287000000000262
 20
-388.8822999999999865
 30
0.0
 10
977.8287000000000262
 20
-399.6145999999999958
 30
0.0
 10
977.8287000000000262
 20
-399.6145999999999958
 30
0.0
 10
977.8287000000000262
 20
-410.3469000000000051
 30
0.0
 10
970.9255999999999176
 20
-416.1009000000000242
 30
0.0
 10
957.8953000000000202
 20
-416.1009000000000242
 30
0.0
 10
957.8953000000000202
 20
-416.1009000000000242
 30
0.0
 10
957.8953000000000202
 20
-416.1009000000000242
 30
0.0
 10
946.01400000000001
 20
-416.1009000000000242
 30
0.0
 10
946.01400000000001
 20
-416.1009000000000242
 30
0.0
 10
946.01400000000001
 20
-416.1009000000000242
 30
0.0
 10
946.01400000000001
 20
-416.1009000000000242
 30
0.0
 10
946.01400000000001
 20
-385.4353000000000407
 30
0.0
 10
946.01400000000001
 20
-385.4353000000000407
 30
0.0
  0
SPLINE
  5
5C
  8
slova
 62
250
420
5526612
370
100
  6
BYLAYER
100
AcDbEntity
100
AcDbSpline
 70
8
 71
3
 72
44
 73
40
 74
0
 40
0.0
 40
0.0
 40
0.0
 40
0.0
 40
0.0909090909090909
 40
0.0909090909090909
 40
0.0909090909090909
 40
0.0909090909090909
 40
0.1818181818181818
 40
0.1818181818181818
 40
0.1818181818181818
 40
0.1818181818181818
 40
0.2727272727272727
 40
0.2727272727272727
 40
0.2727272727272727
 40
0.2727272727272727
 40
0.3636363636363636
 40
0.3636363636363636
 40
0.3636363636363636
 40
0.3636363636363636
 40
0.4545454545454545
 40
0.4545454545454545
 40
0.4545454545454545
 40
0.4545454545454545
 40
0.5454545454545454
 40
0.5454545454545454
 40
0.5454545454545454
 40
0.5454545454545454
 40
0.6363636363636364
 40
0.6363636363636364
 40
0.6363636363636364
 40
0.6363636363636364
 40
0.7272727272727273
 40
0.7272727272727273
 40
0.7272727272727273
 40
0.7272727272727273
 40
0.8181818181818182
 40
0.8181818181818182
 40
0.8181818181818182
 40
0.8181818181818182
 40
1.0
 40
1.0
 40
1.0
 40
1.0
 10
1016.8698000000000548
 20
-483.8670999999999935
 30
0.0
 10
1016.8698000000000548
 20
-483.8670999999999935
 30
0.0
 10
989.8840999999999894
 20
-435.6181000000000267
 30
0.0
 10
989.8840999999999894
 20
-435.6181000000000267
 30
0.0
 10
989.8840999999999894
 20
-435.6181000000000267
 30
0.0
 10
1001.9328000000000429
 20
-429.1062999999999761
 30
0.0
 10
1009.9757999999999356
 20
-417.439899999999966
 30
0.0
 10
1009.9757999999999356
 20
-399.6145999999999958
 30
0.0
 10
1009.9757999999999356
 20
-399.6145999999999958
 30
0.0
 10
1009.9757999999999356
 20
-368.6006000000000427
 30
0.0
 10
987.011600000000044
 20
-359.4154000000000337
 30
0.0
 10
960.1932999999999083
 20
-359.4154000000000337
 30
0.0
 10
960.1932999999999083
 20
-359.4154000000000337
 30
0.0
 10
960.1932999999999083
 20
-359.4154000000000337
 30
0.0
 10
913.1001000000001113
 20
-359.4154000000000337
 30
0.0
 10
913.1001000000001113
 20
-359.4154000000000337
 30
0.0
 10
913.1001000000001113
 20
-359.4154000000000337
 30
0.0
 10
913.1001000000001113
 20
-359.4154000000000337
 30
0.0
 10
913.1001000000001113
 20
-483.8670999999999935
 30
0.0
 10
913.1001000000001113
 20
-483.8670999999999935
 30
0.0
 10
913.1001000000001113
 20
-483.8670999999999935
 30
0.0
 10
913.1001000000001113
 20
-483.8670999999999935
 30
0.0
 10
946.01400000000001
 20
-483.8670999999999935
 30
0.0
 10
946.01400000000001
 20
-483.8670999999999935
 30
0.0
 10
946.01400000000001
 20
-483.8670999999999935
 30
0.0
 10
946.01400000000001
 20
-483.8670999999999935
 30
0.0
 10
946.01400000000001
 20
-442.1208000000000311
 30
0.0
 10
946.01400000000001
 20
-442.1208000000000311
 30
0.0
 10
946.01400000000001
 20
-442.1208000000000311
 30
0.0
 10
946.01400000000001
 20
-442.1208000000000311
 30
0.0
 10
958.6621000000000095
 20
-442.1208000000000311
 30
0.0
 10
958.6621000000000095
 20
-442.1208000000000311
 30
0.0
 10
958.6621000000000095
 20
-442.1208000000000311
 30
0.0
 10
958.6621000000000095
 20
-442.1208000000000311
 30
0.0
 10
980.1176000000000386
 20
-483.8670999999999935
 30
0.0
 10
980.1176000000000386
 20
-483.8670999999999935
 30
0.0
 10
980.1176000000000386
 20
-483.8670999999999935
 30
0.0
 10
980.1176000000000386
 20
-483.8670999999999935
 30
0.0
 10
1016.8698000000000548
 20
-483.8670999999999935
 30
0.0
 10
1016.8698000000000548
 20
-483.8670999999999935
 30
0.0
  0
SPLINE
  5
5D
  8
slova
 62
250
420
5526612
370
100
  6
BYLAYER
100
AcDbEntity
100
AcDbSpline
 70
8
 71
3
 72
44
 73
40
 74
0
 40
0.0
 40
0.0
 40
0.0
 40
0.0
 40
0.0909090909090909
 40
0.0909090909090909
 40
0.0909090909090909
 40
0.0909090909090909
 40
0.1818181818181818
 40
0.1818181818181818
 40
0.1818181818181818
 40
0.1818181818181818
 40
0.2727272727272727
 40
0.2727272727272727
 40
0.2727272727272727
 40
0.2727272727272727
 40
0.3636363636363636
 40
0.3636363636363636
 40
0.3636363636363636
 40
0.3636363636363636
 40
0.4545454545454545
 40
0.4545454545454545
 40
0.4545454545454545
 40
0.4545454545454545
 40
0.5454545454545454
 40
0.5454545454545454
 40
0.5454545454545454
 40
0.5454545454545454
 40
0.6363636363636364
 40
0.6363636363636364
 40
0.6363636363636364
 40
0.6363636363636364
 40
0.7272727272727273
 40
0.7272727272727273
 40
0.7272727272727273
 40
0.7272727272727273
 40
0.8181818181818182
 40
0.8181818181818182
 40
0.8181818181818182
 40
0.8181818181818182
 40
1.0
 40
1.0
 40
1.0
 40
1.0
 10
1058.6250999999999749
 20
-483.8670999999999935
 30
0.0
 10
1058.6250999999999749
 20
-483.8670999999999935
 30
0.0
 10
1098.4488000000001193
 20
-483.8670999999999935
 30
0.0
 10
1098.4488000000001193
 20
-483.8670999999999935
 30
0.0
 10
1098.4488000000001193
 20
-483.8670999999999935
 30
0.0
 10
1098.4488000000001193
 20
-483.8670999999999935
 30
0.0
 10
1135.2078000000001339
 20
-359.4154000000000337
 30
0.0
 10
1135.2078000000001339
 20
-359.4154000000000337
 30
0.0
 10
1135.2078000000001339
 20
-359.4154000000000337
 30
0.0
 10
1135.2078000000001339
 20
-359.4154000000000337
 30
0.0
 10
1101.5135999999999967
 20
-359.4154000000000337
 30
0.0
 10
1101.5135999999999967
 20
-359.4154000000000337
 30
0.0
 10
1101.5135999999999967
 20
-359.4154000000000337
 30
0.0
 10
1101.5135999999999967
 20
-359.4154000000000337
 30
0.0
 10
1088.8813999999999851
 20
-413.7939000000000078
 30
0.0
 10
1088.8813999999999851
 20
-413.7939000000000078
 30
0.0
 10
1088.8813999999999851
 20
-413.7939000000000078
 30
0.0
 10
1085.6266000000000531
 20
-427.016399999999976
 30
0.0
 10
1083.1363999999998668
 20
-439.8453999999999269
 30
0.0
 10
1079.6893999999999778
 20
-453.251199999999983
 30
0.0
 10
1079.6893999999999778
 20
-453.251199999999983
 30
0.0
 10
1079.6893999999999778
 20
-453.251199999999983
 30
0.0
 10
1078.9248999999999796
 20
-453.251199999999983
 30
0.0
 10
1078.9248999999999796
 20
-453.251199999999983
 30
0.0
 10
1078.9248999999999796
 20
-453.251199999999983
 30
0.0
 10
1075.4778999999998632
 20
-439.8453999999999269
 30
0.0
 10
1073.1799000000000888
 20
-427.016399999999976
 30
0.0
 10
1069.7328999999999724
 20
-413.8029000000000224
 30
0.0
 10
1069.7328999999999724
 20
-413.8029000000000224
 30
0.0
 10
1069.7328999999999724
 20
-413.8029000000000224
 30
0.0
 10
1056.7093999999999596
 20
-359.4154000000000337
 30
0.0
 10
1056.7093999999999596
 20
-359.4154000000000337
 30
0.0
 10
1056.7093999999999596
 20
-359.4154000000000337
 30
0.0
 10
1056.7093999999999596
 20
-359.4154000000000337
 30
0.0
 10
1021.8639000000000578
 20
-359.4154000000000337
 30
0.0
 10
1021.8639000000000578
 20
-359.4154000000000337
 30
0.0
 10
1021.8639000000000578
 20
-359.4154000000000337
 30
0.0
 10
1021.8639000000000578
 20
-359.4154000000000337
 30
0.0
 10
1058.6250999999999749
 20
-483.8670999999999935
 30
0.0
 10
1058.6250999999999749
 20
-483.8670999999999935
 30
0.0
  0
SPLINE
  5
5E
  8
slova
 62
250
420
5526612
370
100
  6
BYLAYER
100
AcDbEntity
100
AcDbSpline
 70
8
 71
3
 72
28
 73
24
 74
0
 40
0.0
 40
0.0
 40
0.0
 40
0.0
 40
0.1428571428571428
 40
0.1428571428571428
 40
0.1428571428571428
 40
0.1428571428571428
 40
0.2857142857142857
 40
0.2857142857142857
 40
0.2857142857142857
 40
0.2857142857142857
 40
0.4285714285714285
 40
0.4285714285714285
 40
0.4285714285714285
 40
0.4285714285714285
 40
0.5714285714285714
 40
0.5714285714285714
 40
0.5714285714285714
 40
0.5714285714285714
 40
0.7142857142857143
 40
0.7142857142857143
 40
0.7142857142857143
 40
0.7142857142857143
 40
1.0
 40
1.0
 40
1.0
 40
1.0
 10
1178.6798000000001139
 20
-431.9947000000000799
 30
0.0
 10
1178.6798000000001139
 20
-431.9947000000000799
 30
0.0
 10
1180.7855999999999312
 20
-423.3681000000000267
 30
0.0
 10
1180.7855999999999312
 20
-423.3681000000000267
 30
0.0
 10
1180.7855999999999312
 20
-423.3681000000000267
 30
0.0
 10
1183.8413000000000466
 20
-411.495900000000006
 30
0.0
 10
1186.9059999999999491
 20
-396.5520999999999958
 30
0.0
 10
1189.5862999999999374
 20
-383.9039999999999964
 30
0.0
 10
1189.5862999999999374
 20
-383.9039999999999964
 30
0.0
 10
1189.5862999999999374
 20
-383.9039999999999964
 30
0.0
 10
1190.3530000000000655
 20
-383.9039999999999964
 30
0.0
 10
1190.3530000000000655
 20
-383.9039999999999964
 30
0.0
 10
1190.3530000000000655
 20
-383.9039999999999964
 30
0.0
 10
1193.4177999999999429
 20
-396.3598000000000638
 30
0.0
 10
1196.4803000000001703
 20
-411.495900000000006
 30
0.0
 10
1199.5451000000000477
 20
-423.3681000000000267
 30
0.0
 10
1199.5451000000000477
 20
-423.3681000000000267
 30
0.0
 10
1199.5451000000000477
 20
-423.3681000000000267
 30
0.0
 10
1201.6508000000001175
 20
-431.9947000000000799
 30
0.0
 10
1201.6508000000001175
 20
-431.9947000000000799
 30
0.0
 10
1201.6508000000001175
 20
-431.9947000000000799
 30
0.0
 10
1201.6508000000001175
 20
-431.9947000000000799
 30
0.0
 10
1178.6798000000001139
 20
-431.9947000000000799
 30
0.0
 10
1178.6798000000001139
 20
-431.9947000000000799
 30
0.0
  0
SPLINE
  5
5F
  8
slova
 62
250
420
5526612
370
100
  6
BYLAYER
100
AcDbEntity
100
AcDbSpline
 70
8
 71
3
 72
36
 73
32
 74
0
 40
0.0
 40
0.0
 40
0.0
 40
0.0
 40
0.1111111111111111
 40
0.1111111111111111
 40
0.1111111111111111
 40
0.1111111111111111
 40
0.2222222222222222
 40
0.2222222222222222
 40
0.2222222222222222
 40
0.2222222222222222
 40
0.3333333333333333
 40
0.3333333333333333
 40
0.3333333333333333
 40
0.3333333333333333
 40
0.4444444444444444
 40
0.4444444444444444
 40
0.4444444444444444
 40
0.4444444444444444
 40
0.5555555555555556
 40
0.5555555555555556
 40
0.5555555555555556
 40
0.5555555555555556
 40
0.6666666666666666
 40
0.6666666666666666
 40
0.6666666666666666
 40
0.6666666666666666
 40
0.7777777777777778
 40
0.7777777777777778
 40
0.7777777777777778
 40
0.7777777777777778
 40
1.0
 40
1.0
 40
1.0
 40
1.0
 10
1213.7153000000000702
 20
-483.8670999999999935
 30
0.0
 10
1213.7153000000000702
 20
-483.8670999999999935
 30
0.0
 10
1248.560799999999972
 20
-483.8670999999999935
 30
0.0
 10
1248.560799999999972
 20
-483.8670999999999935
 30
0.0
 10
1248.560799999999972
 20
-483.8670999999999935
 30
0.0
 10
1248.560799999999972
 20
-483.8670999999999935
 30
0.0
 10
1210.6528000000000702
 20
-359.4154000000000337
 30
0.0
 10
1210.6528000000000702
 20
-359.4154000000000337
 30
0.0
 10
1210.6528000000000702
 20
-359.4154000000000337
 30
0.0
 10
1210.6528000000000702
 20
-359.4154000000000337
 30
0.0
 10
1170.8268000000000484
 20
-359.4154000000000337
 30
0.0
 10
1170.8268000000000484
 20
-359.4154000000000337
 30
0.0
 10
1170.8268000000000484
 20
-359.4154000000000337
 30
0.0
 10
1170.8268000000000484
 20
-359.4154000000000337
 30
0.0
 10
1132.9188999999998941
 20
-483.8670999999999935
 30
0.0
 10
1132.9188999999998941
 20
-483.8670999999999935
 30
0.0
 10
1132.9188999999998941
 20
-483.8670999999999935
 30
0.0
 10
1132.9188999999998941
 20
-483.8670999999999935
 30
0.0
 10
1166.6152999999999338
 20
-483.8670999999999935
 30
0.0
 10
1166.6152999999999338
 20
-483.8670999999999935
 30
0.0
 10
1166.6152999999999338
 20
-483.8670999999999935
 30
0.0
 10
1166.6152999999999338
 20
-483.8670999999999935
 30
0.0
 10
1172.7426000000000386
 20
-457.4401000000000295
 30
0.0
 10
1172.7426000000000386
 20
-457.4401000000000295
 30
0.0
 10
1172.7426000000000386
 20
-457.4401000000000295
 30
0.0
 10
1172.7426000000000386
 20
-457.4401000000000295
 30
0.0
 10
1207.5880999999999403
 20
-457.4401000000000295
 30
0.0
 10
1207.5880999999999403
 20
-457.4401000000000295
 30
0.0
 10
1207.5880999999999403
 20
-457.4401000000000295
 30
0.0
 10
1207.5880999999999403
 20
-457.4401000000000295
 30
0.0
 10
1213.7153000000000702
 20
-483.8670999999999935
 30
0.0
 10
1213.7153000000000702
 20
-483.8670999999999935
 30
0.0
  0
SPLINE
  5
60
  8
slova
 62
250
420
5526612
370
100
  6
BYLAYER
100
AcDbEntity
100
AcDbSpline
 70
8
 71
3
 72
36
 73
32
 74
0
 40
0.0
 40
0.0
 40
0.0
 40
0.0
 40
0.1111111111111111
 40
0.1111111111111111
 40
0.1111111111111111
 40
0.1111111111111111
 40
0.2222222222222222
 40
0.2222222222222222
 40
0.2222222222222222
 40
0.2222222222222222
 40
0.3333333333333333
 40
0.3333333333333333
 40
0.3333333333333333
 40
0.3333333333333333
 40
0.4444444444444444
 40
0.4444444444444444
 40
0.4444444444444444
 40
0.4444444444444444
 40
0.5555555555555556
 40
0.5555555555555556
 40
0.5555555555555556
 40
0.5555555555555556
 40
0.6666666666666666
 40
0.6666666666666666
 40
0.6666666666666666
 40
0.6666666666666666
 40
0.7777777777777778
 40
0.7777777777777778
 40
0.7777777777777778
 40
0.7777777777777778
 40
1.0
 40
1.0
 40
1.0
 40
1.0
 10
1280.5246999999999389
 20
-483.8670999999999935
 30
0.0
 10
1280.5246999999999389
 20
-483.8670999999999935
 30
0.0
 10
1313.4385999999999513
 20
-483.8670999999999935
 30
0.0
 10
1313.4385999999999513
 20
-483.8670999999999935
 30
0.0
 10
1313.4385999999999513
 20
-483.8670999999999935
 30
0.0
 10
1313.4385999999999513
 20
-483.8670999999999935
 30
0.0
 10
1313.4385999999999513
 20
-386.9687999999999874
 30
0.0
 10
1313.4385999999999513
 20
-386.9687999999999874
 30
0.0
 10
1313.4385999999999513
 20
-386.9687999999999874
 30
0.0
 10
1313.4385999999999513
 20
-386.9687999999999874
 30
0.0
 10
1346.3774000000000797
 20
-386.9687999999999874
 30
0.0
 10
1346.3774000000000797
 20
-386.9687999999999874
 30
0.0
 10
1346.3774000000000797
 20
-386.9687999999999874
 30
0.0
 10
1346.3774000000000797
 20
-386.9687999999999874
 30
0.0
 10
1346.3774000000000797
 20
-359.4154000000000337
 30
0.0
 10
1346.3774000000000797
 20
-359.4154000000000337
 30
0.0
 10
1346.3774000000000797
 20
-359.4154000000000337
 30
0.0
 10
1346.3774000000000797
 20
-359.4154000000000337
 30
0.0
 10
1247.5881999999999152
 20
-359.4154000000000337
 30
0.0
 10
1247.5881999999999152
 20
-359.4154000000000337
 30
0.0
 10
1247.5881999999999152
 20
-359.4154000000000337
 30
0.0
 10
1247.5881999999999152
 20
-359.4154000000000337
 30
0.0
 10
1247.5881999999999152
 20
-386.9687999999999874
 30
0.0
 10
1247.5881999999999152
 20
-386.9687999999999874
 30
0.0
 10
1247.5881999999999152
 20
-386.9687999999999874
 30
0.0
 10
1247.5881999999999152
 20
-386.9687999999999874
 30
0.0
 10
1280.5246999999999389
 20
-386.9687999999999874
 30
0.0
 10
1280.5246999999999389
 20
-386.9687999999999874
 30
0.0
 10
1280.5246999999999389
 20
-386.9687999999999874
 30
0.0
 10
1280.5246999999999389
 20
-386.9687999999999874
 30
0.0
 10
1280.5246999999999389
 20
-483.8670999999999935
 30
0.0
 10
1280.5246999999999389
 20
-483.8670999999999935
 30
0.0
  0
SPLINE
  5
61
  8
znak
 62
250
420
5526612
370
100
  6
BYLAYER
100
AcDbEntity
100
AcDbSpline
 70
8
 71
3
 72
28
 73
24
 74
0
 40
0.0
 40
0.0
 40
0.0
 40
0.0
 40
0.1428571428571428
 40
0.1428571428571428
 40
0.1428571428571428
 40
0.1428571428571428
 40
0.2857142857142857
 40
0.2857142857142857
 40
0.2857142857142857
 40
0.2857142857142857
 40
0.4285714285714285
 40
0.4285714285714285
 40
0.4285714285714285
 40
0.4285714285714285
 40
0.5714285714285714
 40
0.5714285714285714
 40
0.5714285714285714
 40
0.5714285714285714
 40
0.7142857142857143
 40
0.7142857142857143
 40
0.7142857142857143
 40
0.7142857142857143
 40
1.0
 40
1.0
 40
1.0
 40
1.0
 10
520.5914999999999964
 20
-375.2742999999999256
 30
0.0
 10
520.5914999999999964
 20
-375.2742999999999256
 30
0.0
 10
384.8659999999999854
 20
-375.2742999999999256
 30
0.0
 10
384.8659999999999854
 20
-375.2742999999999256
 30
0.0
 10
384.8659999999999854
 20
-375.2742999999999256
 30
0.0
 10
380.9098000000000184
 20
-375.2742999999999256
 30
0.0
 10
377.7055000000000291
 20
-372.0699999999999932
 30
0.0
 10
377.7055000000000291
 20
-368.1137999999999693
 30
0.0
 10
377.7055000000000291
 20
-368.1137999999999693
 30
0.0
 10
377.7055000000000291
 20
-364.1585000000000036
 30
0.0
 10
380.9098000000000184
 20
-360.9541000000000395
 30
0.0
 10
384.8659999999999854
 20
-360.9541000000000395
 30
0.0
 10
384.8659999999999854
 20
-360.9541000000000395
 30
0.0
 10
384.8659999999999854
 20
-360.9541000000000395
 30
0.0
 10
520.5914999999999964
 20
-360.9541000000000395
 30
0.0
 10
520.5914999999999964
 20
-360.9541000000000395
 30
0.0
 10
520.5914999999999964
 20
-360.9541000000000395
 30
0.0
 10
524.5443000000000211
 20
-360.9541000000000395
 30
0.0
 10
527.7519999999999527
 20
-364.1585000000000036
 30
0.0
 10
527.7519999999999527
 20
-368.1137999999999693
 30
0.0
 10
527.7519999999999527
 20
-368.1137999999999693
 30
0.0
 10
527.7519999999999527
 20
-372.0699999999999932
 30
0.0
 10
524.5443000000000211
 20
-375.2742999999999256
 30
0.0
 10
520.5914999999999964
 20
-375.2742999999999256
 30
0.0
  0
SPLINE
  5
62
  8
znak
 62
250
420
5526612
370
100
  6
BYLAYER
100
AcDbEntity
100
AcDbSpline
 70
8
 71
3
 72
36
 73
32
 74
0
 40
0.0
 40
0.0
 40
0.0
 40
0.0
 40
0.1111111111111111
 40
0.1111111111111111
 40
0.1111111111111111
 40
0.1111111111111111
 40
0.2222222222222222
 40
0.2222222222222222
 40
0.2222222222222222
 40
0.2222222222222222
 40
0.3333333333333333
 40
0.3333333333333333
 40
0.3333333333333333
 40
0.3333333333333333
 40
0.4444444444444444
 40
0.4444444444444444
 40
0.4444444444444444
 40
0.4444444444444444
 40
0.5555555555555556
 40
0.5555555555555556
 40
0.5555555555555556
 40
0.5555555555555556
 40
0.6666666666666666
 40
0.6666666666666666
 40
0.6666666666666666
 40
0.6666666666666666
 40
0.7777777777777778
 40
0.7777777777777778
 40
0.7777777777777778
 40
0.7777777777777778
 40
1.0
 40
1.0
 40
1.0
 40
1.0
 10
519.9622999999999138
 20
-486.0119000000000256
 30
0.0
 10
519.9622999999999138
 20
-486.0119000000000256
 30
0.0
 10
385.4927000000000703
 20
-486.0119000000000256
 30
0.0
 10
385.4927000000000703
 20
-486.0119000000000256
 30
0.0
 10
385.4927000000000703
 20
-486.0119000000000256
 30
0.0
 10
382.7239000000000146
 20
-486.0119000000000256
 30
0.0
 10
380.2061999999999671
 20
-484.4185999999999694
 30
0.0
 10
379.0214000000000283
 20
-481.915300000000002
 30
0.0
 10
379.0214000000000283
 20
-481.915300000000002
 30
0.0
 10
377.8373999999999455
 20
-479.4121000000000095
 30
0.0
 10
378.2010999999999967
 20
-476.4495999999999754
 30
0.0
 10
379.9550000000000409
 20
-474.3108000000000288
 30
0.0
 10
379.9550000000000409
 20
-474.3108000000000288
 30
0.0
 10
379.9550000000000409
 20
-474.3108000000000288
 30
0.0
 10
447.1931999999999334
 20
-392.3854000000000042
 30
0.0
 10
447.1931999999999334
 20
-392.3854000000000042
 30
0.0
 10
447.1931999999999334
 20
-392.3854000000000042
 30
0.0
 10
449.9079000000000406
 20
-389.0711000000000013
 30
0.0
 10
455.5469999999999686
 20
-389.0711000000000013
 30
0.0
 10
458.2617000000000189
 20
-392.3854000000000042
 30
0.0
 10
458.2617000000000189
 20
-392.3854000000000042
 30
0.0
 10
458.2617000000000189
 20
-392.3854000000000042
 30
0.0
 10
525.4964999999999691
 20
-474.3108000000000288
 30
0.0
 10
525.4964999999999691
 20
-474.3108000000000288
 30
0.0
 10
525.4964999999999691
 20
-474.3108000000000288
 30
0.0
 10
527.2539000000000442
 20
-476.4495999999999754
 30
0.0
 10
527.6175000000000637
 20
-479.4121000000000095
 30
0.0
 10
526.4360999999998967
 20
-481.915300000000002
 30
0.0
 10
526.4360999999998967
 20
-481.915300000000002
 30
0.0
 10
525.2521000000000413
 20
-484.4185999999999694
 30
0.0
 10
522.7310999999999694
 20
-486.0119000000000256
 30
0.0
 10
519.9622999999999138
 20
-486.0119000000000256
 30
0.0
  0
SPLINE
  5
63
  8
znak
 62
250
420
5526612
370
100
  6
BYLAYER
100
AcDbEntity
100
AcDbSpline
 70
8
 71
3
 72
60
 73
56
 74
0
 40
0.0
 40
0.0
 40
0.0
 40
0.0
 40
0.0666666666666667
 40
0.0666666666666667
 40
0.0666666666666667
 40
0.0666666666666667
 40
0.1333333333333333
 40
0.1333333333333333
 40
0.1333333333333333
 40
0.1333333333333333
 40
0.2
 40
0.2
 40
0.2
 40
0.2
 40
0.2666666666666667
 40
0.2666666666666667
 40
0.2666666666666667
 40
0.2666666666666667
 40
0.3333333333333333
 40
0.3333333333333333
 40
0.3333333333333333
 40
0.3333333333333333
 40
0.4
 40
0.4
 40
0.4
 40
0.4
 40
0.4666666666666667
 40
0.4666666666666667
 40
0.4666666666666667
 40
0.4666666666666667
 40
0.5333333333333333
 40
0.5333333333333333
 40
0.5333333333333333
 40
0.5333333333333333
 40
0.6
 40
0.6
 40
0.6
 40
0.6
 40
0.6666666666666666
 40
0.6666666666666666
 40
0.6666666666666666
 40
0.6666666666666666
 40
0.7333333333333333
 40
0.7333333333333333
 40
0.7333333333333333
 40
0.7333333333333333
 40
0.8
 40
0.8
 40
0.8
 40
0.8
 40
0.8666666666666667
 40
0.8666666666666667
 40
0.8666666666666667
 40
0.8666666666666667
 40
1.0
 40
1.0
 40
1.0
 40
1.0
 10
450.5370999999999526
 20
-570.0
 30
0.0
 10
367.7819999999999823
 20
-570.0
 30
0.0
 10
300.4576000000000136
 20
-502.6722000000000321
 30
0.0
 10
300.4576000000000136
 20
-419.914600000000064
 30
0.0
 10
300.4576000000000136
 20
-419.914600000000064
 30
0.0
 10
300.4576000000000136
 20
-343.6376000000000204
 30
0.0
 10
357.5160999999999945
 20
-279.5471000000000004
 30
0.0
 10
433.1825000000000614
 20
-270.8296000000000276
 30
0.0
 10
433.1825000000000614
 20
-270.8296000000000276
 30
0.0
 10
439.4499999999999318
 20
-270.1073999999999842
 30
0.0
 10
446.6401000000000749
 20
-270.0
 30
0.0
 10
450.3637000000000512
 20
-270.0
 30
0.0
 10
450.3637000000000512
 20
-270.0
 30
0.0
 10
454.3139999999999645
 20
-270.0
 30
0.0
 10
457.5149999999999295
 20
-273.1949999999999932
 30
0.0
 10
457.5243000000000393
 20
-277.1428000000000225
 30
0.0
 10
457.5243000000000393
 20
-277.1428000000000225
 30
0.0
 10
457.5243000000000393
 20
-277.1428000000000225
 30
0.0
 10
457.6942999999999984
 20
-340.9787000000000035
 30
0.0
 10
457.6942999999999984
 20
-340.9787000000000035
 30
0.0
 10
457.6942999999999984
 20
-340.9787000000000035
 30
0.0
 10
457.7026999999999362
 20
-344.9349000000000274
 30
0.0
 10
454.5050999999999704
 20
-348.1485000000000127
 30
0.0
 10
450.5514999999999759
 20
-348.1569999999999823
 30
0.0
 10
450.5514999999999759
 20
-348.1569999999999823
 30
0.0
 10
450.5514999999999759
 20
-348.1569999999999823
 30
0.0
 10
450.5337000000000103
 20
-348.1569999999999823
 30
0.0
 10
450.5337000000000103
 20
-348.1569999999999823
 30
0.0
 10
450.5337000000000103
 20
-348.1569999999999823
 30
0.0
 10
446.5834999999999582
 20
-348.1569999999999823
 30
0.0
 10
443.38250000000005
 20
-344.9653000000000134
 30
0.0
 10
443.3740000000000236
 20
-341.0151000000000749
 30
0.0
 10
443.3740000000000236
 20
-341.0151000000000749
 30
0.0
 10
443.3740000000000236
 20
-341.0151000000000749
 30
0.0
 10
443.2218000000000302
 20
-284.4581000000000017
 30
0.0
 10
443.2218000000000302
 20
-284.4581000000000017
 30
0.0
 10
443.2218000000000302
 20
-284.4581000000000017
 30
0.0
 10
440.5063000000000102
 20
-284.5620999999999867
 30
0.0
 10
437.5437999999999761
 20
-284.7438999999999965
 30
0.0
 10
434.8232000000000426
 20
-285.0576999999999543
 30
0.0
 10
434.8232000000000426
 20
-285.0576999999999543
 30
0.0
 10
366.3858000000000175
 20
-292.9395999999999844
 30
0.0
 10
314.778699999999958
 20
-350.9139999999999873
 30
0.0
 10
314.778699999999958
 20
-419.914600000000064
 30
0.0
 10
314.778699999999958
 20
-419.914600000000064
 30
0.0
 10
314.778699999999958
 20
-494.7749999999999773
 30
0.0
 10
375.6792000000000371
 20
-555.6788999999999987
 30
0.0
 10
450.5370999999999526
 20
-555.6788999999999987
 30
0.0
 10
450.5370999999999526
 20
-555.6788999999999987
 30
0.0
 10
454.4898999999999205
 20
-555.6788999999999987
 30
0.0
 10
457.6967999999999392
 20
-558.8867000000000189
 30
0.0
 10
457.6967999999999392
 20
-562.8395000000000437
 30
0.0
 10
457.6967999999999392
 20
-562.8395000000000437
 30
0.0
 10
457.6967999999999392
 20
-566.7923000000000684
 30
0.0
 10
454.4898999999999205
 20
-570.0
 30
0.0
 10
450.5370999999999526
 20
-570.0
 30
0.0
  0
LINE
  5
64
100
AcDbEntity
100
AcDbLine
  8
okvir
 62
256
370
-1
  6
BYLAYER
 10
-75.0
 20
-15.0
 30
0.0
 11
-74.9999999999999716
 21
335.0
 31
0.0
  0
LINE
  5
65
100
AcDbEntity
100
AcDbLine
  8
okvir
 62
256
370
-1
  6
BYLAYER
 10
-75.0
 20
-15.0
 30
0.0
 11
385.0
 21
-15.0
 31
0.0
  0
LINE
  5
66
100
AcDbEntity
100
AcDbLine
  8
okvir
 62
256
370
-1
  6
BYLAYER
 10
-74.9999999999999716
 20
335.0
 30
0.0
 11
385.0
 21
335.0
 31
0.0
  0
LINE
  5
67
100
AcDbEntity
100
AcDbLine
  8
okvir
 62
256
370
-1
  6
BYLAYER
 10
385.0
 20
-15.0
 30
0.0
 11
385.0
 21
335.0
 31
0.0
  0
LINE
  5
68
100
AcDbEntity
100
AcDbLine
  8
okvir
 62
256
370
-1
  6
BYLAYER
 10
-15.0
 20
345.0
 30
0.0
 11
345.0
 21
345.0
 31
0.0
  0
LINE
  5
69
100
AcDbEntity
100
AcDbLine
  8
okvir
 62
256
370
-1
  6
BYLAYER
 10
-15.0
 20
-25.0
 30
0.0
 11
345.0
 21
-25.0
 31
0.0
  0
LINE
  5
6A
100
AcDbEntity
100
AcDbLine
  8
okvir
 62
256
370
-1
  6
BYLAYER
 10
-15.0
 20
345.0
 30
0.0
 11
-15.0
 21
-25.0
 31
0.0
  0
LINE
  5
6B
100
AcDbEntity
100
AcDbLine
  8
okvir
 62
256
370
-1
  6
BYLAYER
 10
345.0
 20
-25.0
 30
0.0
 11
345.0
 21
345.0
 31
0.0
  0
LINE
  5
6C
100
AcDbEntity
100
AcDbLine
  8
okvir
 62
256
370
-1
  6
BYLAYER
 10
0.0
 20
335.0
 30
0.0
 11
0.0
 21
-15.0
 31
0.0
  0
LINE
  5
6D
100
AcDbEntity
100
AcDbLine
  8
okvir
 62
256
370
-1
  6
BYLAYER
 10
330.0
 20
-15.0
 30
0.0
 11
330.0
 21
335.0
 31
0.0
  0
LINE
  5
6E
100
AcDbEntity
100
AcDbLine
  8
okvir
 62
256
370
-1
  6
BYLAYER
 10
0.0
 20
320.0
 30
0.0
 11
330.0
 21
320.0
 31
0.0
  0
LINE
  5
6F
100
AcDbEntity
100
AcDbLine
  8
okvir
 62
256
370
-1
  6
BYLAYER
 10
-1.0
 20
0.0
 30
0.0
 11
330.0
 21
0.0
 31
0.0
  0
ENDSEC
  0
SECTION
  2
OBJECTS
  0
DICTIONARY
  5
C
100
AcDbDictionary
280
0
281
1
  3
ACAD_GROUP
350
D
  3
ACAD_LAYOUT
350
1A
  3
ACAD_MLINESTYLE
350
17
  3
ACAD_PLOTSETTINGS
350
19
  3
ACAD_PLOTSTYLENAME
350
E
  3
AcDbVariableDictionary
350
70
  3
QCAD_OBJECTS
350
71
  0
DICTIONARY
  5
D
100
AcDbDictionary
280
0
281
1
  0
ACDBDICTIONARYWDFLT
  5
E
100
AcDbDictionary
281
1
  3
Normal
350
F
100
AcDbDictionaryWithDefault
340
F
  0
ACDBPLACEHOLDER
  5
F
  0
DICTIONARY
  5
17
100
AcDbDictionary
280
0
281
1
  3
Standard
350
18
  0
MLINESTYLE
  5
18
100
AcDbMlineStyle
  2
STANDARD
 70
0
  3

 62
256
 51
90.0
 52
90.0
 71
2
 49
0.5
 62
256
  6
BYLAYER
 49
-0.5
 62
256
  6
BYLAYER
  0
DICTIONARY
  5
19
100
AcDbDictionary
280
0
281
1
  0
DICTIONARY
  5
1A
100
AcDbDictionary
281
1
  3
Layout1
350
1E
  3
Layout2
350
26
  3
Model
350
22
  0
LAYOUT
  5
1E
100
AcDbPlotSettings
  1

  2
none_device
  4

  6

 40
0.0
 41
0.0
 42
0.0
 43
0.0
 44
0.0
 45
0.0
 46
0.0
 47
0.0
 48
0.0
 49
0.0
140
0.0
141
0.0
142
1.0
143
1.0
 70
688
 72
0
 73
0
 74
5
  7

 75
16
147
1.0
148
0.0
149
0.0
100
AcDbLayout
  1
Layout1
 70
1
 71
1
 10
0.0
 20
0.0
 11
420.0
 21
297.0
 12
0.0
 22
0.0
 32
0.0
 14
100000000000000000000.0
 24
100000000000000000000.0
 34
100000000000000000000.0
 15
-100000000000000000000.0
 25
-100000000000000000000.0
 35
-100000000000000000000.0
146
0.0
 13
0.0
 23
0.0
 33
0.0
 16
1.0
 26
0.0
 36
0.0
 17
0.0
 27
1.0
 37
0.0
 76
0
330
1B
  0
LAYOUT
  5
22
100
AcDbPlotSettings
  1

  2
none_device
  4

  6

 40
0.0
 41
0.0
 42
0.0
 43
0.0
 44
0.0
 45
0.0
 46
0.0
 47
0.0
 48
0.0
 49
0.0
140
0.0
141
0.0
142
1.0
143
1.0
 70
1712
 72
0
 73
0
 74
0
  7

 75
0
147
1.0
148
0.0
149
0.0
100
AcDbLayout
  1
Model
 70
1
 71
0
 10
0.0
 20
0.0
 11
12.0
 21
9.0
 12
0.0
 22
0.0
 32
0.0
 14
0.0
 24
0.0
 34
0.0
 15
0.0
 25
0.0
 35
0.0
146
0.0
 13
0.0
 23
0.0
 33
0.0
 16
1.0
 26
0.0
 36
0.0
 17
0.0
 27
1.0
 37
0.0
 76
0
330
1F
  0
LAYOUT
  5
26
100
AcDbPlotSettings
  1

  2
none_device
  4

  6

 40
0.0
 41
0.0
 42
0.0
 43
0.0
 44
0.0
 45
0.0
 46
0.0
 47
0.0
 48
0.0
 49
0.0
140
0.0
141
0.0
142
1.0
143
1.0
 70
688
 72
0
 73
0
 74
5
  7

 75
16
147
1.0
148
0.0
149
0.0
100
AcDbLayout
  1
Layout2
 70
1
 71
2
 10
0.0
 20
0.0
 11
12.0
 21
9.0
 12
0.0
 22
0.0
 32
0.0
 14
0.0
 24
0.0
 34
0.0
 15
0.0
 25
0.0
 35
0.0
146
0.0
 13
0.0
 23
0.0
 33
0.0
 16
1.0
 26
0.0
 36
0.0
 17
0.0
 27
1.0
 37
0.0
 76
0
330
23
  0
DICTIONARY
  5
70
100
AcDbDictionary
281
1
  3
DIMASSOC
350
73
  3
HIDETEXT
350
72
  0
DICTIONARYVAR
  5
72
100
DictionaryVariables
280
0
  1
2
  0
DICTIONARYVAR
  5
73
100
DictionaryVariables
280
0
  1
1
  0
DICTIONARY
  5
71
100
AcDbDictionary
281
1
  3
Grid/DisplayGrid00
350
74
  3
Grid/DisplayGrid01
350
75
  3
Grid/DisplayGrid02
350
76
  3
Grid/DisplayGrid03
350
77
  3
Grid/GridSpacingX00
350
78
  3
Grid/GridSpacingX01
350
79
  3
Grid/GridSpacingX02
350
7A
  3
Grid/GridSpacingX03
350
7B
  3
Grid/GridSpacingY00
350
7C
  3
Grid/GridSpacingY01
350
7D
  3
Grid/GridSpacingY02
350
7E
  3
Grid/GridSpacingY03
350
7F
  3
Grid/IsometricGrid00
350
80
  3
Grid/IsometricGrid01
350
81
  3
Grid/IsometricGrid02
350
82
  3
Grid/IsometricGrid03
350
83
  3
Grid/IsometricProjection00
350
84
  3
Grid/IsometricProjection01
350
85
  3
Grid/IsometricProjection02
350
86
  3
Grid/IsometricProjection03
350
87
  3
Grid/MetaGridSpacingX00
350
88
  3
Grid/MetaGridSpacingX01
350
89
  3
Grid/MetaGridSpacingX02
350
8A
  3
Grid/MetaGridSpacingX03
350
8B
  3
Grid/MetaGridSpacingY00
350
8C
  3
Grid/MetaGridSpacingY01
350
8D
  3
Grid/MetaGridSpacingY02
350
8E
  3
Grid/MetaGridSpacingY03
350
8F
  3
MultiPageSettings/Columns
350
90
  3
MultiPageSettings/GlueMarginsBottom
350
91
  3
MultiPageSettings/GlueMarginsLeft
350
92
  3
MultiPageSettings/GlueMarginsRight
350
93
  3
MultiPageSettings/GlueMarginsTop
350
94
  3
MultiPageSettings/PrintCropMarks
350
95
  3
MultiPageSettings/Rows
350
96
  3
PageSettings/OffsetX
350
97
  3
PageSettings/OffsetY
350
98
  3
PageSettings/PageOrientation
350
99
  3
PageSettings/PaperHeight
350
9A
  3
PageSettings/PaperWidth
350
9B
  3
PageSettings/Scale
350
9C
  3
PageSettings/ShowPaperBorders
350
9D
  3
UnitSettings/PaperUnit
350
9E
  0
XRECORD
  5
74
330
71
100
AcDbXrecord
280
1
290
1
  0
XRECORD
  5
75
330
71
100
AcDbXrecord
280
1
290
1
  0
XRECORD
  5
76
330
71
100
AcDbXrecord
280
1
290
1
  0
XRECORD
  5
77
330
71
100
AcDbXrecord
280
1
290
1
  0
XRECORD
  5
78
330
71
100
AcDbXrecord
280
1
1000
auto
  0
XRECORD
  5
79
330
71
100
AcDbXrecord
280
1
1000
auto
  0
XRECORD
  5
7A
330
71
100
AcDbXrecord
280
1
1000
auto
  0
XRECORD
  5
7B
330
71
100
AcDbXrecord
280
1
1000
auto
  0
XRECORD
  5
7C
330
71
100
AcDbXrecord
280
1
1000
auto
  0
XRECORD
  5
7D
330
71
100
AcDbXrecord
280
1
1000
auto
  0
XRECORD
  5
7E
330
71
100
AcDbXrecord
280
1
1000
auto
  0
XRECORD
  5
7F
330
71
100
AcDbXrecord
280
1
1000
auto
  0
XRECORD
  5
80
330
71
100
AcDbXrecord
280
1
290
0
  0
XRECORD
  5
81
330
71
100
AcDbXrecord
280
1
290
0
  0
XRECORD
  5
82
330
71
100
AcDbXrecord
280
1
290
0
  0
XRECORD
  5
83
330
71
100
AcDbXrecord
280
1
290
0
  0
XRECORD
  5
84
330
71
100
AcDbXrecord
280
1
 90
0
  0
XRECORD
  5
85
330
71
100
AcDbXrecord
280
1
 90
0
  0
XRECORD
  5
86
330
71
100
AcDbXrecord
280
1
 90
0
  0
XRECORD
  5
87
330
71
100
AcDbXrecord
280
1
 90
0
  0
XRECORD
  5
88
330
71
100
AcDbXrecord
280
1
1000
auto
  0
XRECORD
  5
89
330
71
100
AcDbXrecord
280
1
1000
auto
  0
XRECORD
  5
8A
330
71
100
AcDbXrecord
280
1
1000
auto
  0
XRECORD
  5
8B
330
71
100
AcDbXrecord
280
1
1000
auto
  0
XRECORD
  5
8C
330
71
100
AcDbXrecord
280
1
1000
auto
  0
XRECORD
  5
8D
330
71
100
AcDbXrecord
280
1
1000
auto
  0
XRECORD
  5
8E
330
71
100
AcDbXrecord
280
1
1000
auto
  0
XRECORD
  5
8F
330
71
100
AcDbXrecord
280
1
1000
auto
  0
XRECORD
  5
90
330
71
100
AcDbXrecord
280
1
 90
1
  0
XRECORD
  5
91
330
71
100
AcDbXrecord
280
1
 40
10.0
  0
XRECORD
  5
92
330
71
100
AcDbXrecord
280
1
 40
10.0
  0
XRECORD
  5
93
330
71
100
AcDbXrecord
280
1
 40
10.0
  0
XRECORD
  5
94
330
71
100
AcDbXrecord
280
1
 40
10.0
  0
XRECORD
  5
95
330
71
100
AcDbXrecord
280
1
290
0
  0
XRECORD
  5
96
330
71
100
AcDbXrecord
280
1
 90
1
  0
XRECORD
  5
97
330
71
100
AcDbXrecord
280
1
 40
0.0
  0
XRECORD
  5
98
330
71
100
AcDbXrecord
280
1
 40
0.0
  0
XRECORD
  5
99
330
71
100
AcDbXrecord
280
1
1000
Portrait
  0
XRECORD
  5
9A
330
71
100
AcDbXrecord
280
1
 40
297.0
  0
XRECORD
  5
9B
330
71
100
AcDbXrecord
280
1
 40
210.0
  0
XRECORD
  5
9C
330
71
100
AcDbXrecord
280
1
1000
1:1
  0
XRECORD
  5
9D
330
71
100
AcDbXrecord
280
1
290
1
  0
XRECORD
  5
9E
330
71
100
AcDbXrecord
280
1
 90
4
  0
ENDSEC
  0
EOF
